SplineFontDB: 3.0
FontName: Besley-it-FatfaceItalic
FullName: Besley* Fatface Italic
FamilyName: Besley* Fatface
Weight: Fatface
Copyright: Copyright (c) 2017, Owen Earl,,, (EwonRael@yahoo.com)
Version: 001.1
ItalicAngle: -13
UnderlinePosition: -100
UnderlineWidth: 50
Ascent: 800
Descent: 200
InvalidEm: 0
LayerCount: 2
Layer: 0 0 "Back" 1
Layer: 1 0 "Fore" 0
XUID: [1021 31 -699969567 16487490]
FSType: 0
OS2Version: 0
OS2_WeightWidthSlopeOnly: 0
OS2_UseTypoMetrics: 1
CreationTime: 1460762150
ModificationTime: 1500759877
PfmFamily: 17
TTFWeight: 900
TTFWidth: 5
LineGap: 100
VLineGap: 0
OS2TypoAscent: 800
OS2TypoAOffset: 0
OS2TypoDescent: -200
OS2TypoDOffset: 0
OS2TypoLinegap: 100
OS2WinAscent: 900
OS2WinAOffset: 0
OS2WinDescent: 300
OS2WinDOffset: 0
HheadAscent: 900
HheadAOffset: 0
HheadDescent: -200
HheadDOffset: 0
OS2CapHeight: 700
OS2XHeight: 460
OS2FamilyClass: 1024
OS2Vendor: 'PfEd'
OS2UnicodeRanges: 00000001.00000000.00000000.00000000
Lookup: 5 0 0 "'calt' Contextual Alternates lookup 1" { "'calt' Contextual Alternates lookup 1-1"  } ['calt' ('DFLT' <'dflt' > 'grek' <'dflt' > 'latn' <'dflt' > ) ]
Lookup: 1 0 0 "'ss01' Style Set 1 lookup 2" { "'ss01' Style Set 1 lookup 2-1"  } ['ss01' ('DFLT' <'dflt' > 'grek' <'dflt' > 'latn' <'dflt' > ) ]
Lookup: 4 0 1 "'liga' Standard Ligatures lookup 0" { "Not your mama's contextual ligatures"  } ['liga' ('DFLT' <'dflt' > 'grek' <'dflt' > 'latn' <'dflt' > ) ]
Lookup: 258 0 0 "Kern like there's no tomorrow" { "Get it right" [150,0,5] } ['kern' ('DFLT' <'dflt' > 'grek' <'dflt' > 'latn' <'dflt' > ) ]
MarkAttachClasses: 1
DEI: 91125
KernClass2: 17 15 "Get it right"
 13 backslash A L
 3 B S
 5 D O Q
 1 E
 3 F P
 5 G g r
 7 H I M N
 3 J U
 5 K X Z
 3 T Y
 9 a h m n u
 15 b c e o p v w y
 5 d i l
 1 f
 7 k x z t
 9 slash W V
 3 A J
 23 B D E F H I K L M N P R
 7 C G O Q
 3 T Y
 1 U
 3 V W
 3 X Z
 13 a c d e o q s
 5 b l t
 19 f m n p r u y w i j
 3 h k
 1 v
 3 x z
 12 period comma

StartChar: ampersand
Encoding: 38 38 0
Width: 920
Flags: HMW
LayerCount: 2
Back
SplineSet
663 334 m 4
 618 334 594 368 594 416 c 4
 594 466 650 509 719 509 c 5
 709 350 l 5
 700 350 697 334 663 334 c 4
285 90 m 5
 527 90 716 271 716 329 c 4
 716 345 714 350 709 350 c 5
 719 509 l 5
 807 509 830 436 830 375 c 4
 830 215 525 -15 230 -15 c 5
 285 90 l 5
1 160 m 5
 1 490 522 395 522 655 c 5
 696 655 l 5
 696 407 191 480 191 190 c 5
 1 160 l 5
230 -15 m 5
 87 -15 1 57 1 160 c 5
 191 190 l 5
 191 128 231 90 285 90 c 5
 230 -15 l 5
432 91 m 6
 245 470 l 6
 228 512 219 548 219 583 c 4
 219 703 354 770 500 770 c 4
 607 770 696 729 696 655 c 5
 522 655 l 5
 522 692 516 710 483 710 c 4
 446 710 404 673 404 620 c 4
 404 585 416 540 443 470 c 6
 612 120 l 6
 627.51953125 79.583984375 644 71 684 71 c 4
 705 71 734 89 754 124 c 5
 820 80 l 5
 775 6 710 -35 611 -35 c 4
 538 -35 471.811523438 -11.642578125 432 91 c 6
EndSplineSet
Fore
SplineSet
683 324 m 0
 638 324 614 358 614 406 c 0
 614 476 690 509 759 509 c 0
 847 509 890 456 890 375 c 0
 890 290.765634264 788.83471268 187.129706576 649.978338517 107.867527623 c 1
 662.252061584 94.5561598371 678.254213176 90.9999999911 704 91 c 0
 718.691495922 91 737.298457647 99.8097980581 753.999999176 117.086989116 c 0
 776.018721808 139.86462776 771.571898259 145.806959435 800 124.651162791 c 2
 838 96.3720930233 l 2
 859.788141964 80.157661794 860.937374817 77.9877964233 843.000002929 55.880698267 c 0
 795.342556805 -2.8552105347 718.659413189 -35 631 -35 c 0
 589.267250465 -35 543.224246476 -27.3663335027 504.000002198 -1.64964168686 c 0
 466.854221941 22.7043414352 465.924360394 24.5382544034 415.000007359 11.0121865905 c 0
 352.877372601 -5.48826791448 289.991248809 -15 230 -15 c 0
 87 -15 1 57 1 160 c 0
 1 289.26571382 84.0110835653 353.319393416 184.99999632 399.042682423 c 0
 240.573494746 424.203891316 255.150126377 406.349733205 225 470 c 0
 205.641217925 510.868539937 199 548 199 583 c 0
 199 703 354 770 540 770 c 0
 667 770 756 729 756 655 c 0
 756 535.883796297 634.885084842 490.820712148 509.000003763 444.020453765 c 0
 477.422438812 432.280872027 483.752858198 429.476667423 497.824242424 402 c 2
 580.787878788 240 l 2
 599.599405309 203.26743342 599.189945367 192.708734181 633.999994165 217.504040911 c 0
 697.686136989 262.867879811 735 308.180144306 735 321 c 0
 735 327 734 330 729 330 c 0
 720 330 717 324 683 324 c 0
231 190 m 0
 231 128 261 110 315 110 c 0
 335.831814963 110 356.189384162 111.356046482 375.999989905 113.852537871 c 0
 417.512216576 119.083822454 415.684605183 120.872147997 399.229551451 151 c 6
 316.757255937 302 l 2
 293.12030201 345.27732144 282.807322328 330.528448808 258.780962529 292 c 0
 241.209468524 263.822514401 231 230.440816319 231 190 c 0
542 655 m 0
 542 672 536 690 513 690 c 0
 476 690 424 663 424 610 c 0
 424 590.640898837 427.671263326 571.281797673 435.521449678 546 c 0
 447.447472132 507.59183067 452.68813854 508.129333617 481.742367093 532 c 0
 518.688013366 562.354177012 542 601.028516182 542 655 c 0
EndSplineSet
EndChar

StartChar: period
Encoding: 46 46 1
Width: 345
Flags: HMW
LayerCount: 2
Back
SplineSet
40 50 m 4
 40 83 67 110 100 110 c 4
 133 110 160 83 160 50 c 4
 160 17 133 -10 100 -10 c 4
 67 -10 40 17 40 50 c 4
EndSplineSet
Fore
SplineSet
5 100 m 4
 5 166 59 220 125 220 c 4
 191 220 245 166 245 100 c 4
 245 34 191 -20 125 -20 c 4
 59 -20 5 34 5 100 c 4
EndSplineSet
EndChar

StartChar: zero
Encoding: 48 48 2
Width: 570
Flags: HMW
LayerCount: 2
Back
SplineSet
145 280 m 4
 110 128 126 40 210 40 c 4
 304 40 350 128 385 280 c 4
 420 432 414 520 320 520 c 4
 236 520 180 432 145 280 c 4
35 280 m 4
 80 473 209 570 332 570 c 4
 465 570 540 473 495 280 c 4
 450 87 311 -10 198 -10 c 4
 75 -10 -10 87 35 280 c 4
EndSplineSet
Fore
SplineSet
220 155 m 4
 220 103 225 80 240 80 c 4
 284 80 350 303 350 405 c 0
 350 467 347 480 325 480 c 0
 281 480 220 257 220 155 c 4
15 190 m 0
 15 403 172 580 345 580 c 0
 438 580 555 523 555 370 c 0
 555 147 388 -20 225 -20 c 0
 142 -20 15 47 15 190 c 0
EndSplineSet
EndChar

StartChar: one
Encoding: 49 49 3
Width: 570
VWidth: 1155
Flags: HMW
LayerCount: 2
Back
SplineSet
111 465 m 21
 227 465 265 468 343 590 c 13
 314 465 l 5
 111 465 l 21
314 465 m 5
 343 590 l 5
 388 590 l 5
 359 465 l 5
 314 465 l 5
111 465 m 5
 359 465 l 5
 347 410 l 5
 99 410 l 5
 111 465 l 5
-0 55 m 5
 170 55 l 5
 157 0 l 5
 -13 0 l 5
 -0 55 l 5
265 55 m 5
 425 55 l 5
 412 0 l 5
 252 0 l 5
 265 55 l 5
254 420 m 5
 349 420 l 5
 252 0 l 5
 157 0 l 5
 254 420 l 5
EndSplineSet
Fore
SplineSet
5 34 m 2
 5 88 l 2
 5 118.797983207 3.9724046489 120 35 120 c 2
 105 120 l 2
 154.453445457 120 154.652999271 122.420639194 164.24 162 c 2
 202.511111111 320 l 2
 208.462594074 344.570342507 219.676183734 355 185 355 c 2
 121 355 l 2
 92.0978803757 355 92 355.000247681 92 384 c 6
 92 440 l 2
 92 471.620379197 102.468726386 465 132 465 c 0
 191.226318487 465 299.574116518 467.415810469 378.999997585 556.071820249 c 0
 393.757130332 572.543888138 395.111340521 590 429 590 c 2
 455 590 l 2
 484.611885889 590 473.889881299 564.250214044 467.661016949 538 c 2
 378.440677966 162 l 2
 370.819177438 129.880819203 359.220338292 120 403 120 c 2
 465 120 l 2
 491.695055262 120 490 118.013315289 490 92 c 2
 490 40 l 2
 490 5.89660012597 494.542272966 0 459 0 c 2
 41 0 l 2
 6.21192476712 0 5 -1.03103948037 5 34 c 2
EndSplineSet
EndChar

StartChar: two
Encoding: 50 50 4
Width: 570
VWidth: 1155
Flags: HMW
LayerCount: 2
Back
SplineSet
179 473 m 5
 179 455 222 456 222 398 c 4
 222 351 182 320 145 320 c 4
 106 320 61 348 61 406 c 5
 179 473 l 5
472 157 m 5
 442 22 379 -35 280 -35 c 4
 173 -35 148 30 85 30 c 4
 44 30 19 10 9 -20 c 5
 -20 -15 l 5
 0 59 77 123 160 123 c 4
 240 123 251 83 317 83 c 4
 370 83 398 105 408 157 c 5
 472 157 l 5
61 406 m 5
 61 508 190 575 322 575 c 4
 433 575 518 530 518 430 c 5
 377 440 l 5
 377 494 353 518 294 518 c 4
 250 518 179 498 179 473 c 5
 61 406 l 5
232 269 m 4
 334.8359375 312.935546875 377 376 377 440 c 5
 518 430 l 5
 518 320 410.857421875 254.379882812 247 205 c 4
 140.1171875 172.790039062 4 80 4 -20 c 5
 -48 -20 l 5
 -17 137 114.060546875 218.611328125 232 269 c 4
EndSplineSet
Fore
SplineSet
551.113805207 198.000003693 m 0
 510.21600575 76.0077182524 407.558870162 -40 300 -40 c 0
 193 -40 168 30 105 30 c 0
 76.9524553274 30 56.3924991109 20.64051443 42.9999964849 5.12289194405 c 0
 30.9997002995 -8.7816090387 36.1453923448 -20 9 -20 c 2
 -20 -20 l 2
 -54.4738770605 -20 -47.4146874106 -11.9936426326 -39.7141263665 13 c 0
 1.30222643398 146.126412234 116.736738932 203.791204805 222 259 c 0
 324.8359375 312.935546875 342 406 342 450 c 0
 342 492 313 508 274 508 c 0
 240 508 234 488 234 483 c 0
 234 465 282 466 282 398 c 0
 282 331 222 280 165 280 c 0
 106 280 41 328 41 396 c 0
 41 518 190 580 322 580 c 0
 433 580 563 550 563 430 c 0
 563 300 410.857421875 234.379882812 247 185 c 0
 241.352949052 183.298217588 234.658203125 180.546875 229 177.556640625 c 0
 216.065469646 170.721029312 220.171875 159.091796875 235 166.063476562 c 0
 255.803710938 175.844726562 276.198242188 181 293 181 c 0
 343 181 336 163 382 163 c 0
 417.332743504 163 445.913714356 177.853899837 460.530674257 212 c 0
 469.899986764 233.887279261 466.624405774 237 499 237 c 6
 535 237 l 2
 571.989589597 237 559.627653521 223.395595328 551.113805207 198.000003693 c 0
EndSplineSet
EndChar

StartChar: three
Encoding: 51 51 5
Width: 570
VWidth: 1155
Flags: HMW
LayerCount: 2
Back
SplineSet
435 90 m 5
 334 90 l 5
 334 174 281 211 172 211 c 5
 172 245 l 5
 353 245 435 200 435 90 c 5
70 412 m 5
 70 494 174 570 316 570 c 4
 407 570 495 531 495 431 c 5
 394 431 l 5
 394 495 365 524 296 524 c 4
 232 524 159 493 159 466 c 5
 70 412 l 5
159 466 m 5
 159 443 191 440 191 404 c 4
 191 367 161 346 134 346 c 4
 105 346 70 364 70 412 c 5
 159 466 l 5
-50 -21 m 5
 34 -62 l 5
 34 -89 62 -114 136 -114 c 4
 265 -114 334 -14 334 90 c 5
 435 90 l 5
 435 -50 317 -160 136 -160 c 4
 4 -160 -50 -93 -50 -21 c 5
34 -62 m 5
 -50 -21 l 5
 -50 27 -12 65 27 65 c 4
 61 65 81 47 81 17 c 4
 81 -44 34 -32 34 -62 c 5
172 226 m 5
 172 260 l 5
 341 260 394 347 394 431 c 5
 495 431 l 5
 495 311 413 226 172 226 c 5
EndSplineSet
Fore
SplineSet
-60 -11 m 0
 -60 77 -7 145 72 145 c 0
 146 145 166 97 166 57 c 0
 166 -34 82 -13 82 -46 c 0
 82 -58 92 -79 146 -79 c 0
 225 -79 264 -14 264 90 c 0
 264 155.573499082 243.889999319 180.317602843 207.000005814 188.018081687 c 0
 180.98268893 193.448979857 172 184.217133042 172 218 c 2
 172 258 l 2
 172 286.190795561 181.804142271 279.028310962 204.999999978 281.963559644 c 0
 321.460363612 296.700679229 324 390.516521692 324 431 c 0
 324 475 298 498 256 498 c 0
 222 498 197 484 197 468 c 0
 197 445 236 450 236 394 c 0
 236 337 186 296 139 296 c 0
 90 296 45 324 45 402 c 0
 45 504 144 580 316 580 c 0
 407 580 545 551 545 431 c 0
 545 347.575471967 491.936223092 281.916411945 388 256.9609375 c 0
 323.681367276 241.517794123 326.920825268 239.712921405 390 219.049804688 c 0
 446.387245366 200.57879207 484.999999964 162.928998631 485 90 c 0
 485 -90 327 -170 146 -170 c 4
 -6 -170 -60 -83 -60 -11 c 0
EndSplineSet
EndChar

StartChar: four
Encoding: 52 52 6
Width: 570
VWidth: 1155
Flags: HMW
LayerCount: 2
Back
SplineSet
337 259 m 5
 432 259 l 5
 338 -150 l 5
 243 -150 l 5
 337 259 l 5
70 105 m 5
 12 105 l 5
 107 255 355 420 387 560 c 5
 465 560 l 5
 423 380 165 255 70 105 c 5
50 120 m 5
 490 120 l 5
 478 65 l 5
 38 65 l 5
 50 120 l 5
12 105 m 5
 47 105 l 5
 38 65 l 5
 3 65 l 5
 12 105 l 5
256 -95 m 5
 243 -150 l 5
 148 -150 l 5
 161 -95 l 5
 256 -95 l 5
426 -95 m 5
 413 -150 l 5
 338 -150 l 5
 351 -95 l 5
 426 -95 l 5
407 259 m 5
 433 370 l 5
 458 370 l 5
 432 259 l 5
 407 259 l 5
337 259 m 5
 377 280 398 306 433 370 c 13
 407 259 l 5
 337 259 l 5
EndSplineSet
Fore
SplineSet
490 -74 m 2
 490 -118 l 2
 490 -150.925993152 488.911792401 -150 456 -150 c 2
 119 -150 l 2
 93.3977547745 -150 85 -155.510462989 85 -128 c 2
 85 -77 l 2
 85 -56.2721417632 80.7685724968 -50 103 -50 c 2
 172 -50 l 2
 192.771692934 -50 192.679022292 -48.8782417818 196.464379947 -32 c 2
 207.229551451 16 l 2
 211.072878403 33.1367166422 213.93800312 35 192 35 c 2
 22 35 l 2
 -5.90578451675 35 -15 29.0189783694 -15 59 c 2
 -15 81 l 2
 -15 112.614502553 -7.59029467464 123.587488618 4.42622561983 143.999983113 c 0
 73.9290503926 262.064613577 234.061846427 382.664627945 278.422758377 500.999983069 c 0
 293.517068795 541.264948444 275.740949442 560 330 560 c 2
 446 560 l 2
 494.908263965 560 505.815489154 559.480620588 489.801936636 514 c 4
 438.488614964 368.263336547 161.067138005 245.841281741 79.9555867498 135 c 1
 202 135 l 2
 235.264083455 135 234.483867459 137.522185494 240.422163588 164 c 2
 249.168865435 203 l 2
 255.300264237 230.338825244 258.083625429 232.370584479 284.999998732 241.109693586 c 0
 324.676972443 253.99186751 380.941169989 272.351057439 424.999998688 321.402262223 c 0
 442.540176827 340.929945896 436.144165678 349 454 349 c 2
 473 349 l 2
 503.769245428 349 496.672139265 343.136261001 491.432865731 320 c 2
 456.106212425 164 l 2
 450.483024754 139.168401346 444.814208617 135 477 135 c 2
 497 135 l 2
 523.062972457 135 530 139.880317839 530 112 c 2
 530 60 l 2
 530 34.5623231185 529.461031833 35 504 35 c 2
 450 35 l 0
 426.893787575 35 l 1
 423.496993988 20 l 0
 412.627254509 -28 l 2
 407.637109493 -50.0361271072 406.957753232 -50 434 -50 c 2
 460 -50 l 2
 486.069006042 -50 490 -46.8866215098 490 -74 c 2
EndSplineSet
EndChar

StartChar: five
Encoding: 53 53 7
Width: 570
VWidth: 1155
Flags: HMW
LayerCount: 2
Back
SplineSet
229 565 m 5
 107 197 l 5
 37 197 l 5
 159 565 l 5
 229 565 l 5
460 130 m 5
 319 110 l 5
 319 204 295 246 246 246 c 4
 203 246 160 237 107 197 c 5
 42 197 l 5
 103 274 177 315 278 315 c 4
 399 315 460 230 460 130 c 5
-35 -11 m 5
 74 -67 l 5
 74 -84 92 -108 146 -108 c 4
 235 -108 319 -24 319 110 c 5
 460 130 l 5
 460 -50 347 -165 156 -165 c 4
 34 -165 -35 -103 -35 -11 c 5
74 -67 m 5
 -35 -11 l 5
 -35 55 10 85 49 85 c 4
 86 85 126 59 126 12 c 4
 126 -44 74 -44 74 -67 c 5
164 435 m 5
 164 565 l 5
 292 565 l 6
 416 565 428 546 465 597 c 5
 535 597 l 5
 506 525 l 6
 475.15625 448.422851562 487 435 250 435 c 6
 164 435 l 5
EndSplineSet
Fore
SplineSet
-25 -11 m 0
 -25 55 10 135 89 135 c 0
 156 135 191 102 191 45 c 0
 191 -31 107 -39 107 -62 c 0
 107 -79 122 -93 156 -93 c 0
 245 -93 299 -24 299 110 c 0
 299 204 276 222 237 222 c 0
 203.099001521 222 183.563974265 211.943820144 151 190.005132549 c 0
 138.39105445 181.510355005 131.164269472 177 107 177 c 6
 72 177 l 2
 39.025205871 177 42.5234205074 178.664648827 50.175257732 203 c 2
 151.108247423 524 l 2
 162.532947934 560.334293431 161.576539178 565 211 565 c 2
 302 565 l 2
 401.600200562 565 441.844366031 552.741688405 473 574.346795314 c 0
 487.593851759 584.467010739 488.88993267 597 519 597 c 2
 553 597 l 2
 580.475335109 597 586.146201232 600.629637235 579 578 c 2
 537 445 l 2
 511.560546875 364.440429688 477 355 250 355 c 2
 209 355 l 2
 184.409579347 355 186.350650081 349.852887143 180.737113402 332 c 2
 171.932989691 304 l 2
 162.628654599 274.409163808 168.759701159 284.491543268 191 294.390887948 c 0
 220.409225038 307.48118217 252.540611852 315 288 315 c 0
 409 315 520 230 520 130 c 0
 520 -50 357 -170 166 -170 c 0
 44 -170 -25 -103 -25 -11 c 0
EndSplineSet
EndChar

StartChar: six
Encoding: 54 54 8
Width: 570
VWidth: 1155
Flags: HMW
LayerCount: 2
Back
SplineSet
413 651 m 5
 510 611 l 5
 510 563 475 535 446 535 c 4
 419 535 389 556 389 593 c 4
 389 629 413 638 413 651 c 5
480 290 m 5
 380 290 l 5
 380 364 363 411 314 411 c 4
 211 411 100 300 100 220 c 5
 66 210 l 5
 66 317 175 460 326 460 c 4
 407 460 480 420 480 290 c 5
480 290 m 5
 480 150 350 -10 189 -10 c 4
 68 -10 10 70 10 220 c 4
 10 470 183 720 364 720 c 4
 446 720 510 693 510 611 c 5
 413 651 l 5
 413 664 408 678 369 678 c 4
 240 678 100 434 100 220 c 4
 100 128.818359375 121.305664062 40 189 40 c 4
 308 40 380 186 380 290 c 5
 480 290 l 5
EndSplineSet
Fore
SplineSet
299 449.195125085 m 0
 317.924117124 459.583241816 340.280421328 465 366 465 c 0
 447 465 545 420 545 290 c 0
 545 150 430 -20 229 -20 c 0
 108 -20 25 70 25 220 c 0
 25 470 223 730 404 730 c 0
 486 730 555 683 555 601 c 0
 555 543 520 485 451 485 c 0
 384 485 354 518 354 565 c 0
 354 611 396 613 396 631 c 0
 396 639 394 644 379 644 c 0
 341.651693917 644 298.333622908 567.767570424 266.100171843 464.000004603 c 4
 249.996964723 412.159740856 274.939041601 435.987214626 299 449.195125085 c 0
220 170 m 0
 220 88.818359375 226.305664062 80 254 80 c 0
 293 80 335 206 335 300 c 0
 335 344 328 361 309 361 c 0
 271 361 220 250 220 170 c 0
EndSplineSet
EndChar

StartChar: seven
Encoding: 55 55 9
Width: 570
VWidth: 1155
Flags: HMW
LayerCount: 2
Back
SplineSet
39 393 m 1
 69 528 132 585 231 585 c 0
 338 585 363 520 426 520 c 0
 467 520 492 540 502 570 c 1
 531 565 l 1
 511 491 404 427 331 427 c 0
 251 427 250 467 184 467 c 0
 151 467 113 445 103 393 c 1
 39 393 l 1
213 55 m 1
 213 -8 261 -4 261 -80 c 0
 261 -137 211 -165 157 -165 c 0
 108 -165 66 -131 66 -52 c 1
 213 55 l 1
309 218 m 0
 228.594726562 132.715820312 213 99 213 55 c 1
 66 -52 l 1
 66 37 138.556640625 138.651367188 230 231 c 0
 345.418945312 347.561523438 502 520 502 570 c 1
 560 570 l 1
 560 503 425.798828125 341.885742188 309 218 c 0
EndSplineSet
Fore
SplineSet
26.3816473418 344.999996301 m 0
 56.3800149704 469.515847773 102.962970113 590 231 590 c 0
 338 590 373 520 436 520 c 0
 467.807169781 520 489.984870917 532.036835806 503.000003019 551.441511319 c 0
 511.714471686 564.434190565 508.07174774 570 531 570 c 2
 580 570 l 2
 602.567591359 570 602.2544095 566.894910428 595.885785688 547.000002855 c 0
 572.509852802 473.976059536 453.755613827 348.080683434 349 228 c 0
 271.947265625 139.674804688 243 119 243 75 c 0
 243 12 306 26 306 -50 c 0
 306 -117 251 -170 177 -170 c 0
 108 -170 36 -131 36 -32 c 0
 36 77 137.867374322 170.631568834 240 251 c 0
 272.571664325 276.630728134 305.430550976 305.268092676 335.99999638 335.247924137 c 0
 345.377609661 344.444664934 356.300804035 350.146201379 350.728515625 354 c 0
 346.311546531 357.054778961 343.640625 347 328 347 c 0
 278 347 245 387 199 387 c 0
 161.987929834 387 132.384693296 370.700566016 118.480549717 333 c 0
 112.445513217 316.636223928 115.509379918 313 92 313 c 6
 40 313 l 2
 10.9318838252 313 21.3810905954 324.243914209 26.3816473418 344.999996301 c 0
EndSplineSet
EndChar

StartChar: eight
Encoding: 56 56 10
Width: 570
VWidth: 1155
Flags: HMW
LayerCount: 2
Back
SplineSet
205 490 m 4
 205 416 236 385 285 385 c 4
 374 385 425 496 425 570 c 4
 425 644 394 675 345 675 c 4
 256 675 205 564 205 490 c 4
105 490 m 4
 105 600 204 720 345 720 c 4
 446 720 525 680 525 570 c 4
 525 460 426 355 285 355 c 4
 184 355 105 380 105 490 c 4
110 140 m 4
 110 86 126 35 195 35 c 4
 304 35 370 126 370 240 c 4
 370 294 344 345 285 345 c 4
 166 345 110 254 110 140 c 4
10 140 m 4
 10 280 114 375 285 375 c 4
 396 375 470 340 470 240 c 4
 470 100 356 -10 195 -10 c 4
 74 -10 10 40 10 140 c 4
EndSplineSet
Fore
SplineSet
205 140 m 0
 205 86 215 77 235 77 c 0
 268 77 315 176 315 270 c 0
 315 304 306 325 290 325 c 0
 251 325 205 214 205 140 c 0
100 490 m 0
 100 600 204 730 365 730 c 0
 486 730 570 680 570 570 c 0
 570 495.852175091 516.080072755 418.558193077 433.74550562 385.000001637 c 0
 394.787374026 369.121319284 393.743161651 363.09251964 433.020213461 350 c 0
 484.465269988 332.85142642 514.999999983 287.626712187 515 230 c 0
 515 110 416 -20 215 -20 c 0
 74 -20 5 40 5 140 c 0
 5 231.597476745 58.1798970021 308.782322143 146.295543288 342.999997027 c 4
 200.499049066 364.048675853 199.01295822 362.045133405 152.912183197 388 c 4
 119.713345638 406.691039349 99.9999999831 440.764253005 100 490 c 0
295 450 m 0
 295 416 306 405 315 405 c 0
 344 405 375 506 375 580 c 0
 375 604 371 630 357 630 c 0
 318 630 295 524 295 450 c 0
EndSplineSet
EndChar

StartChar: A
Encoding: 65 65 12
Width: 1010
Flags: HMW
LayerCount: 2
Back
SplineSet
635 765 m 1
 635 695 l 1
 557 695 l 1
 557 765 l 1
 635 765 l 1
200 285 m 1
 651 285 l 1
 660 190 l 1
 200 190 l 1
 200 285 l 1
440 105 m 1
 850 105 l 1
 850 0 l 1
 440 0 l 1
 440 105 l 1
-60 105 m 1
 270 105 l 1
 270 0 l 1
 -60 0 l 1
 -60 105 l 1
462 695 m 1
 635 765 l 1
 780 0 l 1
 577 0 l 1
 462 695 l 1
465 765 m 1
 585 765 l 1
 100 0 l 1
 -25 0 l 1
 465 765 l 1
EndSplineSet
Fore
SplineSet
467.947712418 502 m 2
 379.08496732 370 l 2
 355.59282976 335.103912168 352.011412019 335 410 335 c 2
 500 335 l 2
 547.526581332 335 541.009699246 339.727844623 533.575539568 378 c 2
 510.26618705 498 l 2
 497.904093437 561.641889344 495.188968436 542.465166705 467.947712418 502 c 2
262 0 m 2
 -26 0 l 6
 -50.4404296875 0 -60 0.539348568238 -60 25 c 2
 -60 113 l 2
 -60 138.996287411 -54.5281004672 135 -30 135 c 2
 36 135 l 2
 67.705630251 135 69.4849400852 139.00188301 81.7189542484 157 c 2
 475.287581699 736 l 2
 491.485182722 759.829163043 493.847889489 765 536 765 c 2
 658 765 l 2
 703.00815599 765 697.540141121 753.222982076 705.137254902 718 c 2
 822.254901961 175 l 2
 828.907019787 144.158362806 824.433160737 135 864 135 c 2
 900 135 l 2
 923.030953596 135 930 139.701586115 930 115 c 2
 930 25 l 2
 930 0.382636457057 918.013671875 -0 892 0 c 2
 506 0 l 2
 469.596643197 0 470 0.536195915142 470 37 c 2
 470 110 l 2
 470 138.467311383 474.493010243 135 502 135 c 2
 548 135 l 2
 584.812613938 135 580.137907438 138.290032079 574.366906475 168 c 2
 570.870503597 186 l 2
 566.357355032 209.234357429 565.981251009 210 538 210 c 2
 308 210 l 2
 275.381318629 210 270.497201034 208.699725807 257.908496732 190 c 2
 243.098039216 168 l 2
 231.360731026 150.564969388 217.107372515 135 246 135 c 2
 272 135 l 2
 295.40133327 135 300 138.442223932 300 114 c 2
 300 35 l 2
 300 -1.4176492138 298.351922401 0 262 0 c 2
EndSplineSet
EndChar

StartChar: B
Encoding: 66 66 13
Width: 872
Flags: HMW
LayerCount: 2
Back
SplineSet
431.234375 415 m 5
 507.234375 415 590.700195312 456 613.556640625 555 c 4
 636.412109375 654 571.877929688 695 495.877929688 695 c 5
 508.575195312 750 l 5
 659.575195312 750 743.569335938 685 713.556640625 555 c 4
 683.54296875 425 584.154296875 380 423.154296875 380 c 5
 431.234375 415 l 5
228.575195312 750 m 5
 323.575195312 750 l 5
 150.424804688 0 l 5
 55.4248046875 0 l 5
 228.575195312 750 l 5
118.575195312 750 m 5
 228.575195312 750 l 5
 215.877929688 695 l 5
 105.877929688 695 l 5
 118.575195312 750 l 5
-41.8779296875 55 m 5
 68.1220703125 55 l 5
 55.4248046875 0 l 5
 -54.5751953125 0 l 5
 -41.8779296875 55 l 5
241.234375 415 m 5
 451.234375 415 l 5
 438.537109375 360 l 5
 228.537109375 360 l 5
 241.234375 415 l 5
318.575195312 750 m 5
 508.575195312 750 l 5
 495.877929688 695 l 5
 305.877929688 695 l 5
 318.575195312 750 l 5
158.122070312 55 m 5
 358.122070312 55 l 5
 355.424804688 0 l 5
 145.424804688 0 l 5
 158.122070312 55 l 5
358.122070312 55 m 5
 444.122070312 55 531.05078125 111 553.907226562 210 c 4
 576.762695312 309 514.537109375 360 428.537109375 360 c 5
 446.6171875 395 l 5
 607.6171875 395 693.919921875 340 663.907226562 210 c 4
 629.276367188 60 516.424804688 0 355.424804688 0 c 5
 358.122070312 55 l 5
EndSplineSet
Fore
SplineSet
432 0 m 2
 -24 0 l 2
 -58.3600413195 0 -50 14.5753285534 -50 46 c 2
 -50 104 l 2
 -50 139.432239956 -44.2184648969 135 -10 135 c 2
 48 135 l 2
 99.4908564769 135 93.4886095707 147.602857363 102.106666667 188 c 2
 187.013333333 586 l 2
 192.788600168 613.071563289 196.101703754 615 162 615 c 2
 118 615 l 2
 87.0461531851 615 78 608.825690578 78 642 c 2
 78 720 l 2
 78 757.278759331 89.0818425022 750 124 750 c 2
 572 750 l 2
 763 750 862 690 862 570 c 0
 862 482.77809176 813.935546875 428.631835938 726 411.150390625 c 0
 664.374023438 398.899414062 651.559570312 384.58203125 720 370.624023438 c 0
 788.609375 356.630859375 822.000000002 314.368918778 822 235 c 0
 822 75 693 0 432 0 c 2
422 135 m 2
 528 135 572 176 572 245 c 0
 572 314 528 325 482 325 c 2
 402 325 l 2
 366.349131416 325 369.842900867 318.013597812 363.866666667 290 c 2
 339.973333333 178 l 2
 332.610588854 143.487135254 322.371167618 135 368 135 c 2
 422 135 l 2
428 450 m 2
 492 450 l 2
 558 450 622 486 622 555 c 0
 622 604 588 615 552 615 c 2
 480 615 l 2
 435.146582299 615 433.17276381 614.872330361 425.306666667 578 c 2
 406.96 492 l 2
 400.72747825 462.785054299 387.848197604 450 428 450 c 2
EndSplineSet
EndChar

StartChar: C
Encoding: 67 67 14
Width: 867
Flags: HMW
LayerCount: 2
Back
SplineSet
545 770 m 5
 758 770 915 673 915 450 c 4
 915 177 698 -20 405 -20 c 5
 415 110 l 5
 569 110 660 303 660 465 c 4
 660 577 629 640 535 640 c 5
 545 770 l 5
405 -20 m 5
 192 -20 35 77 35 300 c 4
 35 573 252 770 545 770 c 5
 535 640 l 5
 391 640 290 447 290 285 c 4
 290 173 321 110 415 110 c 5
 405 -20 l 5
EndSplineSet
Fore
SplineSet
818.028487156 246.000003726 m 4
 767.572198858 114.111356397 615.194949741 -20 385 -20 c 0
 182 -20 35 80 35 310 c 0
 35 561 227 770 515 770 c 0
 589.074444604 770 643.301594314 750.906399849 682.000000477 721.667950277 c 0
 712.206023365 698.845892095 708.458892387 689.484659416 738 717.619047619 c 2
 754 732.857142857 l 2
 769.149573555 747.285308147 776.225793389 750 808 750 c 2
 876 750 l 2
 908.447734461 750 906.87706579 749.343656339 901.755555556 722 c 2
 856.053968254 478 l 2
 850.43052495 447.976531511 856.331012122 435 818 435 c 2
 746 435 l 2
 712.608595801 435 714.568049426 434.642168908 715.699081088 463.999942431 c 0
 720.281207489 582.936514846 638.520996438 644 543 644 c 0
 392 644 290 490 290 315 c 0
 290 173 355 128 439 128 c 0
 525.816263712 128 610.996879932 177.069424772 661.999997733 258.197761331 c 0
 674.289175516 277.745596722 672.289513468 285 706 285 c 2
 788 285 l 2
 834.234636209 285 831.467347329 281.128094787 818.028487156 246.000003726 c 4
EndSplineSet
EndChar

StartChar: D
Encoding: 68 68 15
Width: 958
Flags: HMW
LayerCount: 2
Back
SplineSet
-40.8779296875 55 m 5
 69.1220703125 55 l 5
 56.4248046875 0 l 5
 -53.5751953125 0 l 5
 -40.8779296875 55 l 5
119.575195312 750 m 5
 229.575195312 750 l 5
 216.877929688 695 l 5
 106.877929688 695 l 5
 119.575195312 750 l 5
229.575195312 750 m 5
 324.575195312 750 l 5
 151.424804688 0 l 5
 56.4248046875 0 l 5
 229.575195312 750 l 5
316.424804688 0 m 6
 151.424804688 0 l 5
 164.122070312 55 l 5
 329.122070312 55 l 6
 513.122070312 55 605.982421875 193 648 375 c 4
 690.017578125 557 650.877929688 695 476.877929688 695 c 6
 311.877929688 695 l 5
 324.575195312 750 l 5
 489.575195312 750 l 6
 712.575195312 750 812.174804688 588 763 375 c 4
 713.825195312 162 529.424804688 0 316.424804688 0 c 6
EndSplineSet
Fore
SplineSet
393 0 m 2
 -12 0 l 2
 -50.9101432746 0 -50 1.08370674298 -50 40 c 2
 -50 98 l 2
 -50 131.653705107 -52.8354305484 135 -18 135 c 2
 54 135 l 2
 97.8821159279 135 93.6168960516 143.516700242 100.973333333 178 c 2
 188.013333333 586 l 2
 195.013839537 618.814872829 189.930486444 615 152 615 c 2
 120 615 l 2
 88.2512497705 615 77 607.818231417 77 642 c 2
 77 726 l 2
 77 756.549809122 87.5002788256 750 116 750 c 6
 543 750 l 2
 836 750 923 608 923 465 c 0
 923 142 666 0 393 0 c 2
362 135 m 6
 393 135 l 2
 547 135 668 263 668 485 c 0
 668 587 607 615 523 615 c 2
 474 615 l 2
 431.144082633 615 433.216911561 610.391772941 425.88 576 c 2
 340.546666667 176 l 2
 334.26114105 146.536598672 322.28932755 135 362 135 c 6
EndSplineSet
EndChar

StartChar: E
Encoding: 69 69 16
Width: 809
Flags: HMW
LayerCount: 2
Back
SplineSet
320.618164062 408 m 21
 407.618164062 408 451.700195312 456 467.168945312 523 c 13
 440.618164062 408 l 5
 320.618164062 408 l 21
403.6796875 248 m 21
 419.147460938 315 398.383789062 368 311.383789062 368 c 13
 431.383789062 368 l 5
 403.6796875 248 l 21
384.122070312 55 m 21
 521.122070312 55 564.049804688 98 600.295898438 255 c 13
 554.122070312 55 l 5
 384.122070312 55 l 21
403.6796875 248 m 5
 431.383789062 368 l 5
 476.383789062 368 l 5
 448.6796875 248 l 5
 403.6796875 248 l 5
440.618164062 408 m 5
 467.168945312 523 l 5
 512.168945312 523 l 5
 485.618164062 408 l 5
 440.618164062 408 l 5
554.122070312 55 m 5
 600.295898438 255 l 5
 650.295898438 255 l 5
 604.122070312 55 l 5
 554.122070312 55 l 5
650.321289062 515 m 5
 691.877929688 695 l 5
 741.877929688 695 l 5
 700.321289062 515 l 5
 650.321289062 515 l 5
154.122070312 55 m 5
 604.122070312 55 l 5
 591.424804688 0 l 5
 141.424804688 0 l 5
 154.122070312 55 l 5
314.575195312 750 m 5
 754.575195312 750 l 5
 741.877929688 695 l 5
 301.877929688 695 l 5
 314.575195312 750 l 5
235.618164062 408 m 5
 485.618164062 408 l 5
 476.383789062 368 l 5
 226.383789062 368 l 5
 235.618164062 408 l 5
-50.8779296875 55 m 5
 59.1220703125 55 l 5
 46.4248046875 0 l 5
 -63.5751953125 0 l 5
 -50.8779296875 55 l 5
109.575195312 750 m 5
 219.575195312 750 l 5
 206.877929688 695 l 5
 96.8779296875 695 l 5
 109.575195312 750 l 5
219.575195312 750 m 5
 314.575195312 750 l 5
 141.424804688 0 l 5
 46.4248046875 0 l 5
 219.575195312 750 l 5
650.321289062 515 m 21
 681.950195312 652 658.877929688 695 541.877929688 695 c 13
 691.877929688 695 l 5
 650.321289062 515 l 21
EndSplineSet
Fore
SplineSet
370.306666667 319 m 2
 334.946666667 163 l 2
 329.865721214 140.58406418 322.989346912 135 353 135 c 2
 408 135 l 2
 540.618646624 135 632.006591612 165.923026228 673.999993114 310.314590694 c 0
 678.349865511 325.271342424 679.758486514 325 699 325 c 2
 761 325 l 6
 781.409179688 325 788.355286925 326.649546438 784.553846154 309 c 2
 722.523076923 21 l 2
 718.491152774 2.28035216449 719.487003395 0 696 0 c 2
 -23 0 l 2
 -46.7188235812 0 -50 -2.64065518981 -50 22 c 2
 -50 111 l 2
 -50 134.918995551 -49.999795023 135 -26 135 c 2
 69 135 l 2
 95.1101461221 135 91.1178655777 146.10823049 95.6266666667 166 c 2
 187.653333333 572 l 2
 195.446230531 606.380428814 206.039247189 615 160 615 c 2
 114 615 l 2
 79.5911414219 615 84 620.786706242 84 654 c 2
 84 716 l 2
 84 749.885243697 84.0002903841 750 118 750 c 2
 846 750 l 2
 866.678024525 750 869.4348928 752.105433395 865.695081967 734 c 2
 811.370491803 471 l 2
 807.391756434 451.737868451 805.569335938 445 781 445 c 2
 716 445 l 2
 701.693772944 445 696.963513138 447.586509055 700.120114214 466 c 0
 720.591956732 585.418981906 670.773390948 615 560 615 c 2
 472 615 l 2
 436.497505431 615 436.896667829 612.779416893 430.373333333 584 c 2
 406.8 480 l 2
 398.16523257 441.90543781 396.058720646 433.381152092 440 443.525821489 c 0
 479.37048177 452.615236441 503.276551685 473.262739157 518.85291713 508 c 0
 525.884917353 523.682248009 522.253674714 533 547 533 c 2
 593 533 l 2
 626.423228792 533 622.437552266 530.44735259 616.610169492 504 c 2
 562.186440678 257 l 2
 558.814480323 241.696487619 555.685546875 238 536 238 c 2
 485 238 l 2
 461.376287224 238 464.388535275 238.853475928 466.30925424 258.00002434 c 0
 471.080187098 305.558724278 448.977331883 331.724914458 402.006319962 337.000002722 c 0
 378.921787203 339.592515484 374.73835259 338.551555546 370.306666667 319 c 2
EndSplineSet
EndChar

StartChar: F
Encoding: 70 70 17
Width: 819
Flags: HMW
LayerCount: 2
Back
SplineSet
154.122070312 55 m 5
 274.122070312 55 l 5
 261.424804688 0 l 5
 141.424804688 0 l 5
 154.122070312 55 l 5
328.309570312 398 m 21
 415.309570312 398 457.083007812 436 472.55078125 503 c 13
 448.309570312 398 l 5
 328.309570312 398 l 21
411.37109375 238 m 21
 426.838867188 305 403.766601562 348 316.766601562 348 c 13
 436.766601562 348 l 5
 411.37109375 238 l 21
411.37109375 238 m 5
 436.766601562 348 l 5
 481.766601562 348 l 5
 456.37109375 238 l 5
 411.37109375 238 l 5
448.309570312 398 m 5
 472.55078125 503 l 5
 517.55078125 503 l 5
 493.309570312 398 l 5
 448.309570312 398 l 5
640.321289062 515 m 5
 681.877929688 695 l 5
 731.877929688 695 l 5
 690.321289062 515 l 5
 640.321289062 515 l 5
314.575195312 750 m 5
 744.575195312 750 l 5
 731.877929688 695 l 5
 301.877929688 695 l 5
 314.575195312 750 l 5
233.309570312 398 m 5
 493.309570312 398 l 5
 481.766601562 348 l 5
 221.766601562 348 l 5
 233.309570312 398 l 5
-50.8779296875 55 m 5
 59.1220703125 55 l 5
 46.4248046875 0 l 5
 -63.5751953125 0 l 5
 -50.8779296875 55 l 5
109.575195312 750 m 5
 219.575195312 750 l 5
 206.877929688 695 l 5
 96.8779296875 695 l 5
 109.575195312 750 l 5
219.575195312 750 m 5
 314.575195312 750 l 5
 141.424804688 0 l 5
 46.4248046875 0 l 5
 219.575195312 750 l 5
640.321289062 515 m 21
 671.950195312 652 648.877929688 695 531.877929688 695 c 13
 681.877929688 695 l 5
 640.321289062 515 l 21
EndSplineSet
Fore
SplineSet
354.186666667 292 m 2
 328.8 180 l 2
 319.963260112 141.014382847 311.579286287 135 362 135 c 2
 422 135 l 2
 453.051137182 135 457 138.224623978 457 106 c 2
 457 36 l 2
 457 5.345703125 453.778166145 0 424 0 c 2
 -12 0 l 2
 -54.1419179804 0 -50 5.13140703679 -50 46 c 2
 -50 98 l 2
 -50 130.548828125 -45.5145066466 135 -14 135 c 2
 46 135 l 2
 84.7849677162 135 80.6116485152 143.87491992 87.44 174 c 2
 174.48 558 l 2
 183.021074792 595.681212319 201.854686483 615 149 615 c 2
 111 615 l 2
 71.7001529926 615 74 617.678997519 74 656 c 2
 74 714 l 2
 74 754.538142109 79.7678735699 750 119 750 c 2
 835 750 l 2
 880.575400707 750 878.924668925 749.65024858 870.815384615 712 c 2
 818.046153846 467 l 2
 811.870845959 438.328927669 817.410682991 425 780 425 c 2
 726 425 l 2
 686.859375 425 692.98093956 438.88739593 696.078707666 467.000001897 c 0
 707.755170512 572.965260727 658.101916783 615 545 615 c 2
 475 615 l 2
 429.575533783 615 427.379314521 614.908740533 419.013333333 578 c 2
 389.093333333 446 l 2
 382.736181814 417.953743298 377.967937418 410.953428041 412 416.550824882 c 0
 464.64760563 425.209998587 492.796407849 449.736747966 510 490.461648465 c 0
 517.948824968 509.278364363 515.862759105 513 544 513 c 2
 594 513 l 2
 626.593963628 513 615.299308829 502.028442116 609.630769231 479 c 2
 544.153846154 213 l 2
 538.563205087 190.288020666 539.222373622 188 510 188 c 2
 478 188 l 6
 448.338867188 188 438.765777914 187.512965198 441.165551251 213 c 0
 447.558451604 280.896443086 429.166328121 306.851184288 382.896140345 312.000000051 c 0
 359.747071586 314.575963017 358.501883492 311.037721287 354.186666667 292 c 2
EndSplineSet
EndChar

StartChar: G
Encoding: 71 71 18
Width: 957
Flags: HMW
LayerCount: 2
Back
SplineSet
667 650 m 21
 772 750 l 13
 740 570 l 5
 667 650 l 21
713 435 m 5
 772 750 l 5
 907 750 l 5
 848 435 l 5
 713 435 l 5
765 515 m 5
 713 435 l 5
 733 573 646 644 543 644 c 4
 392 644 290 490 290 315 c 5
 35 310 l 5
 35 561 227 770 515 770 c 4
 724 770 775 618 765 515 c 5
830 285 m 5
 797 142 668 -20 395 -20 c 4
 192 -20 35 80 35 310 c 5
 290 315 l 5
 290 173 339 118 423 118 c 4
 539 118 629 178 667 285 c 5
 830 285 l 5
EndSplineSet
Fore
SplineSet
534 390 m 6
 924 390 l 2
 948.672287905 390 947 388.028647855 947 364 c 2
 947 314 l 2
 947 290.030970414 954.573903671 275 928 275 c 2
 864 275 l 2
 842.205998655 275 839.424866847 276.316045286 835.5 258 c 2
 827.357142857 220 l 2
 822.548270361 197.55859502 817.084525992 185.830388493 806 170.216383489 c 0
 738.28297895 74.8281001902 598.395385978 -20 384 -20 c 0
 176 -20 35 107 35 310 c 0
 35 561 227 770 515 770 c 0
 595.690063682 770 652.829383389 747.343588075 692.000000489 713.597674685 c 0
 714.17536883 694.493353261 711.879483352 692.742365097 734 713.80952381 c 2
 752 730.952380952 l 2
 767.235349606 745.46223772 772.08029318 750 804 750 c 2
 876 750 l 2
 916.109181431 750 904.920414629 738.845860285 899.169491525 708 c 2
 857.779661017 486 l 2
 852.584880023 458.13708376 854.108051583 455 820 455 c 2
 742 455 l 2
 710.715372405 455 719.333297108 462.589540494 719.749759753 488.000001428 c 0
 721.605358037 601.219298182 637.335702762 644 543 644 c 0
 392 644 290 490 290 315 c 0
 290 183 326 122 425 122 c 0
 486.213919621 122 526.899293103 133.632842813 568 166.521392018 c 0
 588.950718609 183.286036518 594.723856717 194.906139973 599.901639344 230 c 2
 603.737704918 256 l 2
 607.600991469 282.184497732 592.633975653 275 566 275 c 2
 528 275 l 2
 492.98602536 275 497 280.128354498 497 314 c 2
 497 362 l 2
 497 394.359373119 502.800100118 390 534 390 c 6
EndSplineSet
EndChar

StartChar: H
Encoding: 72 72 19
Width: 983
Flags: HMW
LayerCount: 2
Back
SplineSet
237.234375 415 m 5
 637.234375 415 l 5
 624.537109375 360 l 5
 224.537109375 360 l 5
 237.234375 415 l 5
434.122070312 55 m 1
 554.122070312 55 l 1
 541.424804688 0 l 1
 421.424804688 0 l 1
 434.122070312 55 l 1
649.122070312 55 m 1
 759.122070312 55 l 1
 746.424804688 0 l 1
 636.424804688 0 l 1
 649.122070312 55 l 1
-50.8779296875 55 m 1
 59.1220703125 55 l 1
 46.4248046875 0 l 1
 -63.5751953125 0 l 1
 -50.8779296875 55 l 1
154.122070312 55 m 1
 274.122070312 55 l 1
 261.424804688 0 l 1
 141.424804688 0 l 1
 154.122070312 55 l 1
594.575195312 750 m 1
 714.575195312 750 l 1
 701.877929688 695 l 1
 581.877929688 695 l 1
 594.575195312 750 l 1
809.575195312 750 m 1
 919.575195312 750 l 1
 906.877929688 695 l 1
 796.877929688 695 l 1
 809.575195312 750 l 1
109.575195312 750 m 1
 219.575195312 750 l 1
 206.877929688 695 l 1
 96.8779296875 695 l 1
 109.575195312 750 l 1
314.575195312 750 m 1
 434.575195312 750 l 1
 421.877929688 695 l 1
 301.877929688 695 l 1
 314.575195312 750 l 1
714.575195312 750 m 1
 809.575195312 750 l 1
 636.424804688 0 l 1
 541.424804688 0 l 1
 714.575195312 750 l 1
219.575195312 750 m 1
 314.575195312 750 l 1
 141.424804688 0 l 1
 46.4248046875 0 l 1
 219.575195312 750 l 1
EndSplineSet
Fore
SplineSet
578 326 m 2
 398 326 l 2
 360.635797907 326 360.263272246 324.671588654 353.72 294 c 2
 326.413333333 166 l 2
 321.187623124 141.504483393 313.528080056 135 346 135 c 2
 388 135 l 2
 412.558576064 135 410 131.795646275 410 108 c 2
 410 20 l 2
 410 -2.93923905205 406.142195839 0 384 0 c 2
 -16 0 l 2
 -49.8852436974 0 -50 0.000290384098896 -50 34 c 2
 -50 106 l 2
 -50 134.362263185 -50.5206508407 135 -22 135 c 6
 44 135 l 2
 82.5073323866 135 80.6739558365 139.096667984 87.2666666667 170 c 2
 176.44 588 l 2
 182.615407895 616.947224506 180.622066496 615 146 615 c 2
 112 615 l 2
 70.1398585003 615 78 626.733644729 78 666 c 2
 78 708 l 2
 78 756.740381745 87.0354761764 750 134 750 c 2
 488 750 l 2
 518.209256585 750 528 756.451519796 528 724 c 2
 528 654 l 2
 528 615.669286011 528.522734575 615 490 615 c 2
 448 615 l 2
 417.348076804 615 420.720192665 608.063403116 415.586666667 584 c 2
 395.96 492 l 2
 387.846632641 453.968590504 381.803078693 450 430 450 c 2
 586 450 l 2
 641.957873962 450 642.441158776 452.06793176 652.24 498 c 2
 670.586666667 584 l 2
 676.743133288 612.858437289 680.372621358 615 644 615 c 2
 626 615 l 2
 589.8234893 615 593 618.863552995 593 654 c 2
 593 712 l 2
 593 755.419729712 600.065802308 750 642 750 c 2
 998 750 l 2
 1034.41764921 750 1033 748.351922401 1033 712 c 2
 1033 656 l 2
 1033 618.987907508 1036.34155276 615 998 615 c 2
 948 615 l 2
 911.410988964 615 915.434550514 606.724455534 909.306666667 578 c 2
 823.12 174 l 2
 817.071744404 145.648801896 805.866521449 135 844 135 c 2
 884 135 l 2
 913.800309199 135 915 136.026590829 915 106 c 2
 915 46 l 2
 915 1.79839698902 916.539361447 0 872 0 c 2
 516 0 l 2
 481.183947909 0 470 -7.39238235287 470 30 c 2
 470 102 l 2
 470 126.671875 471.971352145 135 496 135 c 2
 546 135 l 2
 578.381026028 135 575.88055237 140.065089234 581.413333333 166 c 2
 607.013333333 286 l 2
 614.327817622 320.286645102 621.923594248 326 578 326 c 2
EndSplineSet
EndChar

StartChar: I
Encoding: 73 73 20
Width: 573
Flags: HMW
LayerCount: 2
Back
SplineSet
-54.8779296875 55 m 5
 55.1220703125 55 l 5
 42.4248046875 0 l 5
 -67.5751953125 0 l 5
 -54.8779296875 55 l 5
150.122070312 55 m 5
 270.122070312 55 l 5
 257.424804688 0 l 5
 137.424804688 0 l 5
 150.122070312 55 l 5
105.575195312 750 m 5
 215.575195312 750 l 5
 202.877929688 695 l 5
 92.8779296875 695 l 5
 105.575195312 750 l 5
310.575195312 750 m 5
 430.575195312 750 l 5
 417.877929688 695 l 5
 297.877929688 695 l 5
 310.575195312 750 l 5
215.575195312 750 m 5
 310.575195312 750 l 5
 137.424804688 0 l 5
 42.4248046875 0 l 5
 215.575195312 750 l 5
EndSplineSet
Fore
SplineSet
432 0 m 2
 20 0 l 2
 -21.9004959265 0 -20 2.21023707142 -20 44 c 2
 -20 102 l 2
 -20 137.722158282 -16.7509623534 135 18 135 c 6
 74 135 l 2
 128.388374422 135 123.211611266 145.534388252 132.610666667 188 c 2
 220.258666667 584 l 2
 227.351951249 616.047972512 226.892173419 615 188 615 c 2
 136 615 l 2
 98.946789166 615 103 620.126322508 103 656 c 2
 103 712 l 2
 103 751.411915121 104.643501705 750 144 750 c 2
 544 750 l 2
 581.11939387 750 593 757.86276323 593 718 c 2
 593 652 l 2
 593 615.124881859 592.999683994 615 556 615 c 2
 494 615 l 2
 456.354504242 615 456.792372561 612.692602549 450.04 582 c 2
 362.92 186 l 2
 354.484950202 147.658864553 340.411825008 135 392 135 c 2
 446 135 l 2
 483.636516665 135 480 130.508218309 480 94 c 2
 480 38 l 2
 480 -5.00212025945 473.588100892 0 432 0 c 2
EndSplineSet
EndChar

StartChar: J
Encoding: 74 74 21
Width: 726
Flags: HMW
LayerCount: 2
Back
SplineSet
146.74609375 135 m 5
 146.74609375 135 41.12890625 115 48.0546875 145 c 4
 62.3681640625 207 108.987304688 240 148.987304688 240 c 4
 183.987304688 240 207.676757812 217 199.366210938 181 c 5
 182.517578125 160 l 5
 146.74609375 135 l 5
134.356445312 90 m 5
 51.0517578125 119 l 5
 75.134765625 180 l 5
 199.366210938 181 l 5
 184.359375 116 144.053710938 132 134.356445312 90 c 5
48.0546875 145 m 5
 134.356445312 90 l 5
 130.432617188 73 138.967773438 45 220.967773438 45 c 4
 311.967773438 45 378.666015625 100 410.987304688 240 c 5
 512.913085938 270 l 5
 475.974609375 110 369.270507812 -10 208.270507812 -10 c 4
 71.2705078125 -10 31.8935546875 75 48.0546875 145 c 5
388.729492188 750 m 5
 528.729492188 750 l 5
 516.032226562 695 l 5
 376.032226562 695 l 5
 388.729492188 750 l 5
623.729492188 750 m 5
 743.729492188 750 l 5
 731.032226562 695 l 5
 611.032226562 695 l 5
 623.729492188 750 l 5
528.729492188 750 m 5
 623.729492188 750 l 5
 512.913085938 270 l 5
 410.987304688 240 l 5
 528.729492188 750 l 5
EndSplineSet
Fore
SplineSet
400 615 m 2
 324 615 l 2
 296.25004664 615 291 621.03515625 291 650 c 6
 291 720 l 2
 291 755.484044208 298.52427442 750 332 750 c 2
 762 750 l 2
 795.885243697 750 796 749.999709616 796 716 c 2
 796 654 l 2
 796 618.364014468 798.869875909 615 762 615 c 2
 702 615 l 2
 661.753695911 615 666.242237422 604.924121412 658.833333333 574 c 2
 586 270 l 2
 540.779296875 81.2509765625 437 -15 236 -15 c 0
 79 -15 -40 85 -40 215 c 0
 -40 327 34 400 124 400 c 0
 199 400 253 349 253 281 c 0
 253 182 166 183 166 151 c 0
 166 144 174 110 236 110 c 0
 287 110 324.557617188 144.90625 346 240 c 2
 421.764705882 576 l 2
 428.315691012 605.052194924 439.355848015 615 400 615 c 2
EndSplineSet
EndChar

StartChar: K
Encoding: 75 75 22
Width: 930
Flags: HMW
LayerCount: 2
Back
SplineSet
751 84 m 5
 736 29 672 -10 606 -10 c 4
 393.03125 -10 602.256835938 345 346 345 c 5
 366 391 l 5
 699.294921875 391 509.228515625 57 642 57 c 4
 673 57 702 73 721 101 c 5
 751 84 l 5
-72.8779296875 55 m 1
 37.1220703125 55 l 1
 24.4248046875 0 l 1
 -85.5751953125 0 l 1
 -72.8779296875 55 l 1
132.122070312 55 m 1
 252.122070312 55 l 1
 239.424804688 0 l 1
 119.424804688 0 l 1
 132.122070312 55 l 1
87.5751953125 750 m 1
 197.575195312 750 l 1
 184.877929688 695 l 1
 74.8779296875 695 l 1
 87.5751953125 750 l 1
292.575195312 750 m 1
 412.575195312 750 l 1
 399.877929688 695 l 1
 279.877929688 695 l 1
 292.575195312 750 l 1
197.575195312 750 m 1
 292.575195312 750 l 1
 119.424804688 0 l 1
 24.4248046875 0 l 1
 197.575195312 750 l 1
154.522460938 217 m 1
 81.5224609375 217 l 1
 718.114257812 748 l 1
 793.114257812 748 l 1
 154.522460938 217 l 1
432.122070312 55 m 1
 762.122070312 55 l 1
 749.424804688 0 l 1
 419.424804688 0 l 1
 432.122070312 55 l 1
844.877929688 695 m 1
 544.877929688 695 l 1
 557.575195312 750 l 1
 857.575195312 750 l 1
 844.877929688 695 l 1
681.424804688 0 m 1
 561.424804688 0 l 1
 340.388671875 420 l 1
 422.932617188 470 l 1
 681.424804688 0 l 1
EndSplineSet
Fore
SplineSet
554 750 m 2
 882 750 l 2
 922.790993348 750 930 755.527106454 930 713 c 2
 930 651 l 2
 930 613.783999402 931.530550537 612 894 612 c 2
 838 612 l 2
 804.74449105 612 799.139136785 605.217899005 782 591.320490368 c 2
 592 437.257443082 l 2
 552.579395787 405.29292513 551.287923844 410.40709631 600.328223315 390.000001281 c 0
 779.318472759 315.516952257 673.651793954 132 803 132 c 2
 838 132 l 2
 861.805234973 132 872 128.119140625 872 102 c 6
 872 32 l 2
 872 -5.74725285103 868.737994906 -3 832 -3 c 2
 637 -3 l 2
 452.226659684 -3 484.696723209 149.051157471 450.843111695 269.999997132 c 0
 438.459741885 314.242077742 434.154325726 309.266992664 404 284.816112084 c 2
 342 234.54290718 l 2
 322.037865774 218.35644808 303.483923826 210.445400593 296.759036145 180 c 2
 292.78313253 162 l 2
 286.708354475 134.497822989 286.524541834 135 320 135 c 2
 364 135 l 2
 386.446563506 135 386 134.459786247 386 112 c 2
 386 34 l 2
 386 0.11475630256 385.999709616 0 352 0 c 2
 -14 0 l 2
 -54.1078484237 0 -50 5.12785250345 -50 44 c 2
 -50 96 l 2
 -50 129.100964494 -54.5145272264 135 -20 135 c 2
 22 135 l 2
 67.4224926197 135 62.7925975246 144.51180693 70.6 180 c 2
 161.02 591 l 2
 165.753048953 612.513858877 169.475278951 615 142 615 c 2
 102 615 l 2
 69.5909779619 615 65 611.321061305 65 645 c 2
 65 731 l 2
 65 757.98813346 82.0098247071 750.148882321 106 750.280297613 c 0
 217.864902496 750.893080084 326.912991582 750.300360585 438 750.059574126 c 0
 462.520700017 750.006424323 471 755.45752036 471 729 c 2
 471 643 l 2
 471 615.933113182 474.13697831 612 446 612 c 2
 420 612 l 2
 387.927576941 612 390.867749863 606.055813016 385.333333333 581 c 2
 355.955823293 448 l 2
 340.30123535 377.127410949 351.710453429 398.340795986 392 432.77124183 c 2
 580 593.431372549 l 2
 600.63482982 611.065385614 606.072673473 612 566 612 c 2
 550 612 l 2
 524.603691408 612 528 616.509490673 528 641 c 2
 528 715 l 2
 528 744.080494205 523.606037485 750 554 750 c 2
EndSplineSet
EndChar

StartChar: L
Encoding: 76 76 23
Width: 801
Flags: HMW
LayerCount: 2
Back
SplineSet
314.575195312 750 m 5
 424.575195312 750 l 5
 411.877929688 695 l 5
 301.877929688 695 l 5
 314.575195312 750 l 5
379.122070312 55 m 21
 516.122070312 55 563.666992188 118 595.295898438 255 c 13
 549.122070312 55 l 5
 379.122070312 55 l 21
549.122070312 55 m 5
 595.295898438 255 l 5
 645.295898438 255 l 5
 599.122070312 55 l 5
 549.122070312 55 l 5
154.122070312 55 m 5
 599.122070312 55 l 5
 586.424804688 0 l 5
 141.424804688 0 l 5
 154.122070312 55 l 5
-50.8779296875 55 m 5
 59.1220703125 55 l 5
 46.4248046875 0 l 5
 -63.5751953125 0 l 5
 -50.8779296875 55 l 5
109.575195312 750 m 5
 219.575195312 750 l 5
 206.877929688 695 l 5
 96.8779296875 695 l 5
 109.575195312 750 l 5
219.575195312 750 m 5
 314.575195312 750 l 5
 141.424804688 0 l 5
 46.4248046875 0 l 5
 219.575195312 750 l 5
EndSplineSet
Fore
SplineSet
616 0 m 2
 -12 0 l 2
 -44.7606232394 0 -50 -4.1018680721 -50 30 c 2
 -50 106 l 2
 -50 131.710132236 -52.6837172615 135 -26 135 c 2
 42 135 l 2
 89.7667098599 135 84.2575508371 146.519769549 92.2533333333 184 c 2
 175.453333333 574 l 2
 183.39966633 611.248435923 189.174014928 615 142 615 c 2
 108 615 l 2
 65.458624163 615 74 628.196954532 74 668 c 6
 74 730 l 2
 74 757.141363536 87.2836288152 750 112 750 c 2
 522 750 l 2
 556.473057706 750 550 740.336998458 550 708 c 2
 550 662 l 2
 550 613.608518566 548.366780647 615 500 615 c 2
 462 615 l 2
 419.352862537 615 422.738877812 608.150989744 415.453333333 574 c 2
 333.106666667 188 l 2
 325.489841427 152.296131687 308.707594734 135 358 135 c 2
 406 135 l 2
 528.570347982 135 579.901384962 177.423409923 618 298.793085843 c 0
 626.453544973 325.723303981 620.586184293 345 660 345 c 2
 708 345 l 2
 758.842854958 345 749.414351419 337.706016526 740.782608696 298 c 2
 687.304347826 52 l 2
 676.603664169 2.77685517935 676.533610554 0 616 0 c 2
EndSplineSet
EndChar

StartChar: M
Encoding: 77 77 24
Width: 1153
Flags: HMW
LayerCount: 2
Back
SplineSet
446.817382812 79 m 5
 371.270507812 -10 l 5
 288.729492188 750 l 5
 379.729492188 750 l 5
 446.817382812 79 l 5
435.270507812 -10 m 5
 371.270507812 -10 l 5
 796.729492188 750 l 5
 865.729492188 750 l 5
 435.270507812 -10 l 5
585.276367188 55 m 5
 910.276367188 55 l 5
 897.579101562 0 l 5
 572.579101562 0 l 5
 585.276367188 55 l 5
-54.7236328125 55 m 5
 240.276367188 55 l 5
 227.579101562 0 l 5
 -67.4208984375 0 l 5
 -54.7236328125 55 l 5
930.729492188 750 m 5
 1040.72949219 750 l 5
 1028.03222656 695 l 5
 918.032226562 695 l 5
 930.729492188 750 l 5
135.729492188 750 m 5
 250.729492188 750 l 5
 238.032226562 695 l 5
 123.032226562 695 l 5
 135.729492188 750 l 5
840.729492188 750 m 5
 930.729492188 750 l 5
 787.579101562 0 l 5
 692.579101562 0 l 5
 840.729492188 750 l 5
250.729492188 750 m 5
 310.729492188 750 l 5
 107.579101562 0 l 5
 42.5791015625 0 l 5
 250.729492188 750 l 5
EndSplineSet
Fore
SplineSet
775.7890625 484 m 2
 748.073451733 426 l 2
 733.036076056 394.531532767 717.418517528 364.489584286 700.927631579 335 c 2
 530.368421053 30 l 2
 514.014289962 0.75496557913 515.039325269 -10 467 -10 c 2
 412 -10 l 2
 364.591234798 -10 368.057689248 -3.93087990404 361.857894737 36 c 2
 322.886842105 287 l 2
 316.703405176 326.825525984 311.59418373 367.019069327 308.078556892 411 c 2
 301.763671875 490 l 2
 298.952115447 525.172921942 289.76171875 527.556640625 280.08203125 488 c 2
 258.894870486 399 l 2
 250.131570292 362.188379699 241.279721505 325.458330424 232.286666667 289 c 2
 204.413333333 176 l 2
 197.045858215 146.131857626 184.559287149 135 226 135 c 2
 261 135 l 2
 290.940239675 135 300 141.112061949 300 109 c 2
 300 27 l 2
 300 -0.937774848983 298.90653623 0 271 0 c 2
 -25 0 l 2
 -56.0511371816 0 -60 -3.22462397758 -60 29 c 2
 -60 101 l 2
 -60 128.068970828 -64.9356191206 135 -36 135 c 2
 28 135 l 2
 66.0937272713 135 60.8761623112 149.511167018 68.0933333333 178 c 2
 169.426666667 578 l 2
 178.650886755 614.411395086 180.826495285 615 135 615 c 2
 111 615 l 2
 78.2068610455 615 77 613.970578134 77 647 c 2
 77 722 l 2
 77 761.855665894 102.282465911 750 138 750 c 2
 470 750 l 2
 505.722561462 750 502.834197003 744.871584336 507.693160813 715 c 2
 529.327171904 582 l 2
 536.229913978 539.563824297 542.546651247 497.697985494 547.264991886 452 c 2
 556.351037402 364 l 2
 562.547636782 303.98481028 571.694160677 323.84361104 594.898045991 368 c 2
 635.886521207 446 l 2
 660.372269556 492.595740905 685.818047025 537.231172134 711.736842105 582 c 2
 785.842105263 710 l 2
 802.1560944 738.178708509 801.196584466 750 848 750 c 2
 1134 750 l 2
 1167.76001575 750 1173 754.126855563 1173 719 c 2
 1173 649 l 2
 1173 611.363483335 1168.50821831 615 1132 615 c 2
 1083 615 l 2
 1037.79804562 615 1040.59220846 609.951302869 1034.52 572 c 2
 971.16 176 l 2
 964.471226962 134.195168511 964.579958801 135 1013 135 c 2
 1040 135 l 2
 1070.46936135 135 1081 141.782955147 1081 109 c 2
 1081 28 l 2
 1081 -2.65436559229 1077.77816614 0 1048 0 c 2
 683 0 l 2
 654.988860421 0 641 -7.84570447468 641 23 c 2
 641 108 l 2
 641 133.808798038 639.978197609 135 666 135 c 6
 703 135 l 2
 738.585384134 135 736.218063971 139.308383825 741.166666667 169 c 2
 765.666666667 316 l 2
 772.265841907 355.595051442 780.083233826 392.282686797 788.581604004 429 c 2
 799.922851562 478 l 2
 813.865942462 538.241296255 801.265625 533.341796875 775.7890625 484 c 2
EndSplineSet
EndChar

StartChar: N
Encoding: 78 78 25
Width: 958
Flags: HMW
LayerCount: 2
Back
SplineSet
652.270507812 -10 m 5
 617.270507812 -10 l 5
 639.202148438 85 l 5
 674.202148438 85 l 5
 652.270507812 -10 l 5
652.729492188 750 m 5
 762.729492188 750 l 5
 750.032226562 695 l 5
 640.032226562 695 l 5
 652.729492188 750 l 5
669.12890625 115 m 5
 617.270507812 -10 l 5
 207.729492188 750 l 5
 332.729492188 750 l 5
 669.12890625 115 l 5
-42.7236328125 55 m 5
 62.2763671875 55 l 5
 49.5791015625 0 l 5
 -55.4208984375 0 l 5
 -42.7236328125 55 l 5
127.276367188 55 m 5
 242.276367188 55 l 5
 229.579101562 0 l 5
 114.579101562 0 l 5
 127.276367188 55 l 5
827.729492188 750 m 5
 932.729492188 750 l 5
 920.032226562 695 l 5
 815.032226562 695 l 5
 827.729492188 750 l 5
117.729492188 750 m 5
 222.729492188 750 l 5
 210.032226562 695 l 5
 105.032226562 695 l 5
 117.729492188 750 l 5
762.729492188 750 m 5
 827.729492188 750 l 5
 652.270507812 -10 l 5
 601.122070312 50 l 5
 762.729492188 750 l 5
222.729492188 750 m 5
 287.729492188 750 l 5
 114.579101562 0 l 5
 49.5791015625 0 l 5
 222.729492188 750 l 5
EndSplineSet
Fore
SplineSet
128 615 m 2
 88 615 l 2
 53.877985635 615 60 623.942894122 60 656 c 2
 60 728 l 2
 60 753.996287411 65.4718995328 750 90 750 c 2
 398 750 l 2
 440.672847099 750 444.9206166 747.026142039 461.083333333 722 c 2
 570.229166667 553 l 2
 593.381940644 517.15054352 614.629718379 483.1392322 633.549487177 442 c 0
 665.676736528 372.142361409 667.263665108 343.862592621 686.450348256 442 c 0
 694.90230519 485.230668603 703.480971744 528.480817828 712.41 571 c 2
 716.82 592 l 2
 721.89402576 616.162027427 720.958551529 615 692 615 c 2
 666 615 l 2
 637.571469298 615 638 615.53799156 638 644 c 2
 638 732 l 2
 638 758.194771404 656.597412132 750 680 750 c 2
 940 750 l 2
 962.714947819 750 978 757.426137315 978 732 c 2
 978 644 l 2
 978 613.573438683 976.340017574 615 946 615 c 2
 888 615 l 2
 850.611651908 615 851.101663394 612.732901122 844.631578947 582 c 2
 728.842105263 32 l 2
 722.097370158 -0.0374917486282 726.948001369 -10 686 -10 c 2
 622 -10 l 2
 580.017556858 -10 580.191212244 5.53058061407 564.736842105 30 c 6
 352.526315789 366 l 2
 330.509944704 400.859254219 313.803710938 435.041992188 296.344726562 476 c 0
 276.435546875 522.704101562 271.96484375 537.673828125 260.591796875 474 c 0
 254.481445312 439.786132812 249.793308276 406.843632543 242.786666667 374 c 2
 202.68 186 l 2
 195.759115481 153.558353815 178.842363158 135 224 135 c 2
 258 135 l 2
 281.069518373 135 285 138.037226356 285 114 c 2
 285 26 l 2
 285 -0.43465266424 284.461382719 0 258 0 c 2
 -22 0 l 2
 -46.0704406779 0 -50 -3.06360581401 -50 22 c 2
 -50 112 l 2
 -50 134.380247314 -50.5184812062 135 -28 135 c 2
 28 135 l 2
 63.9581977093 135 64.117847711 136.489911145 70.4133333333 166 c 2
 160.44 588 l 2
 166.86405534 618.112759406 162.927221284 615 128 615 c 2
EndSplineSet
EndChar

StartChar: O
Encoding: 79 79 26
Width: 950
Flags: HMW
LayerCount: 2
Back
SplineSet
150 375 m 4
 107.982421875 193 143.659179688 40 317.659179688 40 c 4
 501.659179688 40 597.982421875 193 640 375 c 4
 682.017578125 557 646.340820312 710 472.340820312 710 c 4
 298.340820312 710 192.017578125 557 150 375 c 4
35 375 m 4
 84.1748046875 588 260.883789062 760 483.883789062 760 c 4
 706.883789062 760 804.174804688 588 755 375 c 4
 705.825195312 162 519.116210938 -10 306.116210938 -10 c 4
 83.1162109375 -10 -14.1748046875 162 35 375 c 4
EndSplineSet
Fore
SplineSet
535 640 m 0
 391 640 290 447 290 285 c 0
 290 173 321 110 415 110 c 0
 569 110 660 303 660 465 c 0
 660 577 629 640 535 640 c 0
405 -20 m 0
 192 -20 35 77 35 300 c 0
 35 573 252 770 545 770 c 0
 758 770 915 673 915 450 c 0
 915 177 698 -20 405 -20 c 0
EndSplineSet
EndChar

StartChar: P
Encoding: 80 80 27
Width: 797
Flags: HMW
LayerCount: 2
Back
SplineSet
133.122070312 55 m 5
 243.122070312 55 l 5
 230.424804688 0 l 5
 120.424804688 0 l 5
 133.122070312 55 l 5
359.30859375 385 m 5
 455.30859375 385 524.545898438 451 545.092773438 540 c 4
 565.640625 629 526.877929688 695 430.877929688 695 c 5
 443.575195312 750 l 5
 624.575195312 750 685.106445312 670 655.092773438 540 c 4
 625.080078125 410 527.611328125 330 346.611328125 330 c 5
 359.30859375 385 l 5
198.575195312 750 m 5
 293.575195312 750 l 5
 120.424804688 0 l 5
 25.4248046875 0 l 5
 198.575195312 750 l 5
88.5751953125 750 m 5
 198.575195312 750 l 5
 185.877929688 695 l 5
 75.8779296875 695 l 5
 88.5751953125 750 l 5
-71.8779296875 55 m 5
 38.1220703125 55 l 5
 25.4248046875 0 l 5
 -84.5751953125 0 l 5
 -71.8779296875 55 l 5
209.30859375 385 m 5
 359.30859375 385 l 5
 346.611328125 330 l 5
 196.611328125 330 l 5
 209.30859375 385 l 5
293.575195312 750 m 5
 443.575195312 750 l 5
 430.877929688 695 l 5
 280.877929688 695 l 5
 293.575195312 750 l 5
EndSplineSet
Fore
SplineSet
390 410 m 2
 407 410 l 2
 503 410 557 481 557 550 c 0
 557 589 528 615 482 615 c 2
 444 615 l 2
 405.711768585 615 403.306660502 615.499971103 396.586666667 584 c 2
 367.146666667 446 l 2
 361.06369023 417.486047952 352.216519349 410 390 410 c 2
323.626666667 242 m 2
 307.413333333 166 l 2
 300.748339968 134.757843599 300.110450927 135 338 135 c 2
 392 135 l 2
 424.097553707 135 430 139.485905995 430 106 c 2
 430 38 l 2
 430 2.75899573373 432.40559968 0 396 0 c 2
 -12 0 l 2
 -58.4348986061 0 -50 12.3927787636 -50 56 c 2
 -50 98 l 2
 -50 131.653705107 -52.8354305484 135 -18 135 c 6
 20 135 l 2
 73.7317442481 135 65.4131244375 156.624020801 74.24 198 c 2
 158.293333333 592 l 2
 163.822555596 617.918229358 159.988391367 615 130 615 c 2
 88 615 l 2
 51.1493578517 615 60 630.27650456 60 664 c 2
 60 724 l 2
 60 758.36004132 74.5753285534 750 106 750 c 2
 517 750 l 2
 708 750 807 680 807 550 c 0
 807 340 598 275 417 275 c 2
 370 275 l 2
 331.123071873 275 330.437130276 273.924048167 323.626666667 242 c 2
EndSplineSet
EndChar

StartChar: Q
Encoding: 81 81 28
Width: 965
Flags: HMW
LayerCount: 2
Back
SplineSet
253 -105 m 5
 253 -117 266 -116 266 -162 c 4
 266 -219 216 -250 169 -250 c 4
 122 -250 75 -222 75 -164 c 5
 253 -105 l 5
551 -169.864257812 m 1
 551 -154.864257812 538 -160.864257812 538 -114.864257812 c 0
 538 -57.8642578125 591 -26.8642578125 638 -26.8642578125 c 0
 685 -26.8642578125 729 -53.8642578125 729 -107.864257812 c 1
 551 -169.864257812 l 1
268 -98 m 0
 257 -98 253 -99 253 -105 c 1
 75 -164 l 1
 75 -49 205 -27 284 -27 c 0
 483.536132812 -27 498.615234375 -178.864257812 536 -178.864257812 c 0
 548 -178.864257812 551 -175.864257812 551 -169.864257812 c 1
 729 -107.864257812 l 1
 729 -232.864257812 604 -249.864257812 525 -249.864257812 c 0
 315.463867188 -249.864257812 325.384765625 -98 268 -98 c 0
560 770 m 1
 773 770 910 653 910 450 c 0
 910 197 713 -10 420 -10 c 1
 420 90 l 1
 614 90 705 323 705 445 c 0
 705 597 664 670 560 670 c 1
 560 770 l 1
420 -10 m 1
 207 -10 70 97 70 300 c 0
 70 553 267 770 560 770 c 1
 560 670 l 1
 366 670 275 427 275 305 c 0
 275 153 316 90 420 90 c 1
 420 -10 l 1
EndSplineSet
Fore
SplineSet
550 640 m 0
 406 640 305 447 305 285 c 0
 305 173 336 110 430 110 c 0
 584 110 675 303 675 465 c 0
 675 577 644 640 550 640 c 0
420 -20 m 0
 207 -20 50 77 50 300 c 0
 50 573 267 770 560 770 c 0
 773 770 930 673 930 450 c 0
 930 177 713 -20 420 -20 c 0
769 -117.864257812 m 0
 769 -242.864257812 604 -249.864257812 525 -249.864257812 c 0
 285.463867188 -249.864257812 320.384765625 -108 263 -108 c 0
 252 -108 248 -111 248 -117 c 4
 248 -129 271 -121 271 -167 c 0
 271 -224 216 -250 149 -250 c 0
 82 -250 35 -212 35 -154 c 0
 35 -39 205 -27 284 -27 c 0
 476.035144767 -27 502.565126627 -126.296125709 528 -158.741586714 c 0
 534.687567752 -167.272441793 541.939021149 -174.147695384 552 -168.17986607 c 0
 562.42947266 -161.993458804 555.694647424 -152.33424781 550.261624836 -148 c 0
 544.495610966 -143.400105082 538 -135.447653472 538 -109.864257812 c 0
 538 -52.8642578125 601 -26.8642578125 658 -26.8642578125 c 0
 715 -26.8642578125 769 -63.8642578125 769 -117.864257812 c 0
EndSplineSet
EndChar

StartChar: R
Encoding: 82 82 29
Width: 917
Flags: HMW
LayerCount: 2
Back
SplineSet
195 105 m 5
 370 105 l 5
 370 0 l 5
 195 0 l 5
 195 105 l 5
80 750 m 5
 215 750 l 5
 215 645 l 5
 80 645 l 5
 80 750 l 5
-30 105 m 5
 115 105 l 5
 85 0 l 5
 -30 0 l 5
 -30 105 l 5
469 430 m 5
 545 430 619 501 619 580 c 4
 619 619 595 645 539 645 c 5
 539 750 l 5
 720 750 809 700 809 580 c 4
 809 440 660 364 469 364 c 5
 469 430 l 5
337 750 m 5
 539 750 l 5
 539 645 l 5
 337 645 l 5
 337 750 l 5
257 430 m 5
 489 430 l 5
 489 320 l 5
 257 320 l 5
 257 430 l 5
212 750 m 5
 402 750 l 5
 242 0 l 5
 52 0 l 5
 212 750 l 5
855 103 m 5
 790 18 715 0 639 0 c 4
 565 0 489 22 489 97 c 4
 489 147 512 173 512 223 c 4
 512 278 502 320 419 320 c 5
 479 381 l 5
 631 381 715 347 715 266 c 4
 715 210 684 183 684 156 c 4
 684 134 693 121 716 121 c 4
 742 121 759 136 784 166 c 5
 855 103 l 5
EndSplineSet
Fore
SplineSet
882.000001935 68.4695205624 m 0
 823.587598246 5.92972050573 734.707703843 -15 669 -15 c 0
 575 -15 509 22 509 97 c 0
 509 147 522 183 522 223 c 0
 522 248 502 305 419 305 c 2
 388 305 l 2
 353.360857658 305 355.946531726 299.749367466 350.026666667 272 c 2
 326.986666667 164 l 2
 321.442373716 138.011126796 316.997154796 135 350 135 c 2
 380 135 l 2
 410.953846815 135 420 141.174309422 420 108 c 2
 420 36 l 2
 420 0.121506673298 419.999692534 0 384 0 c 2
 -12 0 l 2
 -37.7875298728 0 -30 16.910253037 -30 40 c 2
 -30 106 l 2
 -30 131.710132236 -32.6837172615 135 -6 135 c 2
 46 135 l 2
 83.929701777 135 81.7763030007 139.576420316 88.2666666667 170 c 2
 174.88 576 l 2
 181.213380434 605.687720786 191.609539257 615 152 615 c 2
 118 615 l 2
 80.6660780381 615 80 614.477421945 80 652 c 2
 80 706 l 2
 80 748.766241787 78.9640001574 750 122 750 c 6
 559 750 l 2
 740 750 859 710 859 580 c 0
 859 503.687370385 815.669921875 448.116210938 742 415.916015625 c 0
 638.189453125 370.54296875 630.853515625 397.786132812 714 348.813476562 c 0
 747.614263957 329.014926976 765.000000004 299.028831252 765 246 c 0
 765 200 743 183 743 161 c 0
 743 150 752 142 763 142 c 0
 776.100994805 142 789.872442989 145.352266892 812 167.428111576 c 0
 830.855893023 186.239938183 830.780520807 182.043496864 849.630952381 162 c 2
 883.488095238 126 l 2
 907.532795126 100.433483663 906.728903548 94.9457561704 882.000001935 68.4695205624 c 0
422 445 m 2
 489 445 l 2
 565 445 619 496 619 556 c 0
 619 591 585 615 539 615 c 2
 466 615 l 2
 423.046928487 615 422.827032666 613.251715623 415.306666667 578 c 2
 393.546666667 476 l 2
 387.105715665 445.808042178 385.111699266 445 422 445 c 2
EndSplineSet
Substitution2: "'ss01' Style Set 1 lookup 2-1" uniFFFD
EndChar

StartChar: S
Encoding: 83 83 30
Width: 749
Flags: HMW
LayerCount: 2
Back
SplineSet
608.525390625 595 m 1
 577.747070312 505 l 1
 605.220703125 624 543.844726562 709 429.844726562 709 c 0
 313.844726562 709 257.146484375 654 241.216796875 585 c 1
 144.291015625 555 l 1
 176.612304688 695 300.618164062 760 431.618164062 760 c 0
 547.618164062 760 629.303710938 685 608.525390625 595 c 1
577.747070312 505 m 5
 634.309570312 750 l 5
 689.309570312 750 l 5
 632.747070312 505 l 5
 577.747070312 505 l 5
569.684570312 652 m 21
 634.309570312 750 l 13
 597.37109375 590 l 5
 569.684570312 652 l 21
144.291015625 555 m 1
 241.216796875 585 l 1
 192.734375 375 668.518554688 530 594.641601562 210 c 1
 498.869140625 185 l 1
 551.96875 415 77.3388671875 265 144.291015625 555 c 1
68.09765625 160 m 1
 100.030273438 255 l 1
 77.173828125 156 130.469726562 36 274.469726562 36 c 0
 410.469726562 36 482.939453125 116 498.869140625 185 c 1
 594.641601562 210 l 1
 562.319335938 70 443.696289062 -15 272.696289062 -15 c 0
 136.696289062 -15 49.6279296875 80 68.09765625 160 c 1
100.030273438 255 m 5
 40.0048828125 -5 l 5
 -14.9951171875 -5 l 5
 45.0302734375 255 l 5
 100.030273438 255 l 5
106.938476562 103 m 21
 40.0048828125 -5 l 13
 79.251953125 165 l 5
 106.938476562 103 l 21
EndSplineSet
Fore
SplineSet
322 570 m 0
 322 449 702 525 702 245 c 0
 702 95 573 -25 372 -25 c 0
 277.099453975 -25 214.435297207 -1.45006293763 174 32.4195176903 c 0
 150.118446938 52.4232827876 153.025302271 56.1664925003 128 35.2051282051 c 6
 102 13.4273504274 l 2
 84.5975797666 -1.14903575105 76.4794155884 -5 42 -5 c 2
 -12 -5 l 2
 -50.451009278 -5 -36.6568437944 8.81837898299 -30.0806451613 36 c 2
 30.4032258065 286 l 2
 36.0635078757 309.395832553 46.0134336026 305 74 305 c 2
 134 305 l 2
 158.344147411 305 147.589145923 284.900793053 147.583724689 266 c 0
 147.544325646 128.637727107 245.675654094 89 332 89 c 0
 427 89 462 131 462 190 c 0
 462 331 85 238 85 508 c 0
 85 658 218 775 392 775 c 0
 466.203152596 775 526.185985317 754.558290181 569.999989167 722.443161039 c 0
 602.315457481 698.756317861 599.355643869 686.390026949 632 714.208695652 c 2
 654 732.956521739 l 2
 667.927021368 744.824766035 672.210109493 750 700 750 c 2
 748 750 l 2
 779.513671875 750 789.052612755 750.250334884 783.53559322 724 c 2
 738.138983051 508 l 2
 730.458546727 471.455988458 737.487178089 455 690 455 c 2
 644 455 l 2
 599.583487161 455 611.356857598 462.201038161 608.057509603 499.999995572 c 0
 599.938650716 593.013646069 526.716689186 659 428 659 c 0
 359 659 322 612 322 570 c 0
EndSplineSet
EndChar

StartChar: T
Encoding: 84 84 31
Width: 814
Flags: HMW
LayerCount: 2
Back
SplineSet
557.032226562 700 m 13
 727.032226562 700 l 5
 679.704101562 495 l 21
 715.950195312 652 694.032226562 700 557.032226562 700 c 13
727.032226562 700 m 5
 777.032226562 700 l 5
 729.704101562 495 l 5
 679.704101562 495 l 5
 727.032226562 700 l 5
322.032226562 700 m 21
 185.032226562 700 140.950195312 652 104.704101562 495 c 13
 152.032226562 700 l 5
 322.032226562 700 l 21
152.032226562 700 m 5
 104.704101562 495 l 5
 54.7041015625 495 l 5
 102.032226562 700 l 5
 152.032226562 700 l 5
403.575195312 750 m 5
 392.032226562 700 l 5
 102.032226562 700 l 5
 113.575195312 750 l 5
 403.575195312 750 l 5
338.122070312 55 m 5
 468.122070312 55 l 5
 455.424804688 0 l 5
 325.424804688 0 l 5
 338.122070312 55 l 5
498.575195312 750 m 5
 788.575195312 750 l 5
 777.032226562 700 l 5
 487.032226562 700 l 5
 498.575195312 750 l 5
113.122070312 55 m 5
 243.122070312 55 l 5
 230.424804688 0 l 5
 100.424804688 0 l 5
 113.122070312 55 l 5
403.575195312 750 m 5
 498.575195312 750 l 5
 325.424804688 0 l 5
 230.424804688 0 l 5
 403.575195312 750 l 5
EndSplineSet
Fore
SplineSet
557.44 588 m 2
 469.546666667 176 l 2
 461.484877879 138.210365058 456.276683025 135 504 135 c 2
 546 135 l 2
 576.953846815 135 586 141.174309422 586 108 c 2
 586 40 l 2
 586 -4.17439493562 580.863338923 0 538 0 c 2
 156 0 l 2
 115.695236184 0 106 -7.03686954586 106 36 c 2
 106 104 l 2
 106 131.698811608 103.275694515 135 132 135 c 2
 204 135 l 2
 241.617090309 135 241.258462135 137.14904126 247.84 168 c 2
 337.44 588 l 2
 343.311242583 615.521449609 348.072174227 621.859239324 314 618.134871555 c 0
 231.687552943 609.137446772 199.066903692 566.219083072 166.019603233 460 c 0
 164.018343481 453.56764477 162.015519111 446.903152955 160 440 c 1
 142 440 l 0
 60 440 l 2
 33.1203090158 440 42.0203581895 448.698764427 46.5032258065 468 c 2
 107.35483871 730 l 2
 112.679057495 752.923719771 118.69876991 750 146 750 c 2
 834 750 l 2
 874.157022494 750 874.198276809 750.830619066 866.361290323 718 c 6
 808.593548387 476 l 2
 802.026987783 448.491435306 805.938808304 440 770 440 c 2
 716 440 l 2
 670.708898587 440 676.73534098 443.482422285 683.25161123 478 c 0
 703.469715843 585.09807458 679.390092605 620 592 620 c 0
 559.608957334 620 562.868815183 613.447571172 557.44 588 c 2
EndSplineSet
EndChar

StartChar: U
Encoding: 85 85 32
Width: 915
Flags: HMW
LayerCount: 2
Back
SplineSet
217.311523438 750 m 5
 312.311523438 750 l 5
 210.729492188 310 l 5
 113.420898438 300 l 5
 217.311523438 750 l 5
727.311523438 750 m 5
 787.311523438 750 l 5
 683.420898438 300 l 5
 623.420898438 300 l 5
 727.311523438 750 l 5
312.311523438 750 m 5
 432.311523438 750 l 5
 419.614257812 695 l 5
 299.614257812 695 l 5
 312.311523438 750 l 5
107.311523438 750 m 5
 217.311523438 750 l 5
 204.614257812 695 l 5
 94.6142578125 695 l 5
 107.311523438 750 l 5
787.311523438 750 m 5
 897.311523438 750 l 5
 884.614257812 695 l 5
 774.614257812 695 l 5
 787.311523438 750 l 5
602.311523438 750 m 5
 727.311523438 750 l 5
 714.614257812 695 l 5
 589.614257812 695 l 5
 602.311523438 750 l 5
623.420898438 300 m 5
 683.420898438 300 l 5
 633.784179688 85 528.698242188 -15 330.698242188 -15 c 4
 117.698242188 -15 71.1728515625 117 113.420898438 300 c 5
 210.729492188 310 l 5
 175.637695312 158 195.549804688 45 359.549804688 45 c 4
 513.549804688 45 581.403320312 118 623.420898438 300 c 5
EndSplineSet
Fore
SplineSet
418 586 m 2
 349 310 l 2
 338.213867188 267.155273438 335 231 335 205 c 0
 335 160 359.13671875 118 434 118 c 0
 518 118 611.571289062 146.8828125 649 300 c 2
 718.911111111 586 l 2
 726.108510577 615.443906905 726.531798853 615 690 615 c 2
 652 615 l 2
 616.396961375 615 620 619.487594766 620 654 c 2
 620 722 l 2
 620 755.016824869 626.839300367 750 658 750 c 2
 952 750 l 2
 979.417763908 750 975 743.838981756 975 718 c 2
 975 662 l 2
 975 627.696315938 982.975950792 615 946 615 c 2
 888 615 l 2
 858.526688073 615 862.85986847 602.154007375 857.444444444 580 c 2
 789 300 l 2
 734.743164062 78.041015625 627 -25 399 -25 c 0
 182.212890625 -25 93 67 93 182 c 0
 93 219 98.8671875 258.262695312 109 300 c 2
 178.422222222 584 l 2
 185.480247896 612.873741392 189.340520474 615 152 615 c 2
 116 615 l 2
 77.2405450055 615 80 618.268841592 80 656 c 2
 80 718 l 2
 80 754.866256334 86.4380238271 750 122 750 c 6
 502 750 l 2
 540.298445715 750 550 756.931514627 550 716 c 2
 550 648 l 2
 550 607.899295165 539.689763709 615 502 615 c 2
 458 615 l 2
 424.03245457 615 424.615304008 612.461216031 418 586 c 2
EndSplineSet
EndChar

StartChar: V
Encoding: 86 86 33
Width: 925
Flags: HMW
LayerCount: 2
Back
SplineSet
452.609375 695 m 5
 122.609375 695 l 5
 135.306640625 750 l 5
 465.306640625 750 l 5
 452.609375 695 l 5
982.609375 695 m 5
 702.609375 695 l 5
 715.306640625 750 l 5
 995.306640625 750 l 5
 982.609375 695 l 5
454.853515625 55 m 5
 368.693359375 -15 l 5
 225.306640625 750 l 5
 335.306640625 750 l 5
 454.853515625 55 l 5
423.693359375 -15 m 5
 368.693359375 -15 l 5
 860.306640625 750 l 5
 915.306640625 750 l 5
 423.693359375 -15 l 5
EndSplineSet
Fore
SplineSet
521.63150504 250 m 0
 544.772592494 291.703197602 568.876402615 330.990804042 594.117647059 370 c 2
 730 580 l 2
 746.330430996 605.237938812 764.973593099 615 716 615 c 2
 694 615 l 2
 663.450190878 615 670 625.500278826 670 654 c 2
 670 714 l 2
 670 749.878493327 670.000307466 750 706 750 c 2
 962 750 l 2
 995.418762818 750 1010 758.681693195 1010 722 c 2
 1010 652 l 2
 1010 619.590977962 1013.6789387 615 980 615 c 2
 948 615 l 2
 909.364734643 615 909.036356041 606.054534061 894.333333333 584 c 2
 538.333333333 50 l 2
 514.472384328 14.2085764921 512.769903888 -15 450 -15 c 2
 334 -15 l 2
 289.80336906 -15 293.520567152 -7.69828304277 286.287581699 28 c 6
 172.418300654 590 l 2
 166.887110659 617.299099007 162.290249606 615 130 615 c 2
 96 615 l 2
 58.5841849536 615 60 616.646469577 60 654 c 2
 60 714 l 2
 60 755.777470067 67.7446938655 750 108 750 c 2
 500 750 l 2
 540.192592148 750 555 759.318072154 555 716 c 2
 555 660 l 2
 555 614.109790579 553.920034036 615 508 615 c 2
 460 615 l 2
 420.482909225 615 426.069657995 610.579023422 431.460431655 578 c 2
 466.539568345 366 l 2
 472.330827153 331.00065329 476.882309996 296.058177273 479.383448452 256 c 0
 485.266426507 161.778355749 491.526376848 195.746710809 521.63150504 250 c 0
EndSplineSet
EndChar

StartChar: W
Encoding: 87 87 34
Width: 1309
Flags: HMW
LayerCount: 2
Back
SplineSet
1235.03222656 695 m 5
 955.032226562 695 l 5
 967.729492188 750 l 5
 1247.72949219 750 l 5
 1235.03222656 695 l 5
753.276367188 55 m 5
 668.270507812 -10 l 5
 607.729492188 750 l 5
 707.729492188 750 l 5
 753.276367188 55 l 5
727.270507812 -10 m 5
 668.270507812 -10 l 5
 1097.72949219 750 l 5
 1155.72949219 750 l 5
 727.270507812 -10 l 5
385.032226562 695 m 5
 55.0322265625 695 l 5
 67.7294921875 750 l 5
 397.729492188 750 l 5
 385.032226562 695 l 5
805.032226562 695 m 5
 525.032226562 695 l 5
 537.729492188 750 l 5
 817.729492188 750 l 5
 805.032226562 695 l 5
332.276367188 55 m 5
 247.270507812 -10 l 5
 157.729492188 750 l 5
 257.729492188 750 l 5
 332.276367188 55 l 5
307.270507812 -10 m 5
 247.270507812 -10 l 5
 643.104492188 652 l 5
 701.104492188 652 l 5
 307.270507812 -10 l 5
EndSplineSet
Fore
SplineSet
492.430093219 309 m 0
 518.780691184 350.588955195 545.664577503 390.872211101 574.035369775 430 c 2
 666.845659164 558 l 2
 677.237743751 572.332320649 679.490664086 577.756922033 676.860526316 601 c 0
 674.811024176 619.111879371 666.762900539 615 648 615 c 2
 606 615 l 2
 576.117196318 615 581 621.848321287 581 650 c 2
 581 720 l 2
 581 753.567545588 585.485568801 750 618 750 c 2
 938 750 l 2
 970.512675623 750 981 756.921970236 981 722 c 2
 981 648 l 2
 981 620.25004664 984.964518526 615 956 615 c 2
 924 615 l 2
 900.148107062 615 899.846465985 615.51354526 902.381395349 594 c 2
 917.581395349 465 l 2
 922.706676233 421.50255039 926.029251308 376.025226471 927.642531301 327 c 0
 930.511467204 239.817221471 940.136170613 283.261031524 964.02818071 327 c 0
 987.934266627 370.764736999 1012.51786016 412.867586051 1038.44210526 454 c 6
 1117.85526316 580 l 2
 1131.24715741 601.248099447 1153.66739419 615 1110 615 c 2
 1078 615 l 2
 1040.59122967 615 1050 631.845255278 1050 666 c 2
 1050 732 l 2
 1050 759.749333053 1077.39753579 750 1102 750 c 2
 1366 750 l 2
 1397.09806213 750 1394 746.152484289 1394 716 c 2
 1394 650 l 2
 1394 614.593451589 1393.46362576 615 1358 615 c 2
 1326 615 l 2
 1291.99531369 615 1289.27027061 612.101715158 1276.46575342 592 c 2
 909.561643836 16 l 2
 894.5203128 -7.61327237802 890.219230459 -10 850 -10 c 2
 786 -10 l 2
 741.907665843 -10 745.381795312 -4.53679578326 741.021052632 34 c 2
 722.010526316 202 l 2
 716.650021441 249.371903549 712.924081411 298.75952412 710.648979409 351 c 0
 706.372539849 449.194822648 693.705623046 399.546399694 663.413666844 352 c 0
 630.199496365 299.866878766 595.870999214 250.584114417 559.725085911 202 c 2
 430.271477663 28 l 2
 413.942708207 6.05232373261 412.372025076 -10 372 -10 c 2
 300 -10 l 2
 257.801406445 -10 255.165787131 -11.1999830406 250.026315789 26 c 2
 174.315789474 574 l 2
 169.854717899 606.289660924 174.889042476 615 136 615 c 2
 88 615 l 2
 53.1838589392 615 60 625.391913587 60 658 c 2
 60 726 l 2
 60 753.025428073 63.8452490466 750 90 750 c 2
 464 750 l 2
 496.045717006 750 500 753.245145394 500 720 c 2
 500 642 l 2
 500 613.283104189 497.997051439 615 470 615 c 2
 436 615 l 2
 402.629446845 615 401.992304411 615.904103748 405.781679389 586 c 2
 420.354198473 471 l 2
 426.875679218 419.535302557 431.891726422 366.802850053 435.009914627 310 c 0
 441.43193999 193.012403442 455.765496307 251.132536033 492.430093219 309 c 0
EndSplineSet
EndChar

StartChar: X
Encoding: 88 88 35
Width: 850
Flags: HMW
LayerCount: 2
Back
SplineSet
435.461914062 377 m 5
 367.461914062 377 l 5
 742.114257812 748 l 5
 807.114257812 748 l 5
 435.461914062 377 l 5
37.4248046875 0 m 5
 -30.5751953125 0 l 5
 396.696289062 417 l 5
 461.696289062 417 l 5
 37.4248046875 0 l 5
426.122070312 55 m 5
 756.122070312 55 l 5
 743.424804688 0 l 5
 413.424804688 0 l 5
 426.122070312 55 l 5
-93.8779296875 55 m 5
 206.122070312 55 l 5
 193.424804688 0 l 5
 -106.575195312 0 l 5
 -93.8779296875 55 l 5
418.877929688 695 m 5
 88.8779296875 695 l 5
 101.575195312 750 l 5
 431.575195312 750 l 5
 418.877929688 695 l 5
868.877929688 695 m 5
 568.877929688 695 l 5
 581.575195312 750 l 5
 881.575195312 750 l 5
 868.877929688 695 l 5
679.424804688 0 m 5
 559.424804688 0 l 5
 161.575195312 750 l 5
 277.575195312 750 l 5
 679.424804688 0 l 5
EndSplineSet
Fore
SplineSet
108 615 m 2
 78 615 l 2
 35.6821968379 615 35 614.476716748 35 657 c 2
 35 717 l 2
 35 750.412898882 35.5367645032 750 69 750 c 2
 462 750 l 2
 502.634473221 750 505 752.024379817 505 711 c 2
 505 666 l 2
 505 622.204337153 510.607964761 615 465 615 c 2
 429 615 l 2
 392.630715786 615 407.486471046 608.056931263 420.837931034 591 c 2
 460.75862069 540 l 2
 502.820439924 486.26463622 504.084549538 494.002875808 555 536.218487395 c 2
 621 590.941176471 l 2
 635.228067265 602.738117396 665.516414179 615 625 615 c 2
 595 615 l 2
 565.44423264 615 575 637.653997069 575 664 c 2
 575 716 l 2
 575 756.788391265 584.593725932 750 623 750 c 2
 887 750 l 2
 929.727622674 750 935 754.326860525 935 710 c 2
 935 656 l 2
 935 619.607873165 938.765516287 615 901 615 c 2
 877 615 l 2
 829.215032422 615 821.586446738 604.277404553 797 584.005571031 c 2
 627 443.838440111 l 2
 579.657635382 404.804067056 566.919279031 404.376251458 606.351724138 354 c 2
 750.379310345 170 l 2
 769.155146156 146.013249404 770.864871936 135 816 135 c 2
 842 135 l 2
 879.293310592 135 889 141.87700863 889 102 c 2
 889 38 l 2
 889 -3.69856398396 884.494631648 0 844 0 c 6
 442 0 l 2
 402.402272352 0 399 -2.93600279053 399 38 c 2
 399 106 l 2
 399 139.787201443 405.463565021 135 438 135 c 2
 482 135 l 2
 528.885772974 135 498.542097264 152.595954537 483.520689655 172 c 2
 428.556896552 243 l 2
 392.55184799 289.509862284 392.779334851 290.223827891 348 252.116161616 c 2
 250 168.717171717 l 2
 228.475350264 150.399477371 189.562621162 135 248 135 c 0
 270.545578443 135 280 140.72588076 280 116 c 2
 280 46 l 2
 280 -0.887272473468 278.920475452 0 232 0 c 2
 -34 0 l 2
 -77.4819663819 0 -90 -8.5864748027 -90 38 c 2
 -90 96 l 2
 -90 131.635985532 -92.8698759092 135 -56 135 c 2
 -14 135 l 2
 21.7004000065 135 28.1073453523 140.522893161 46 155.891089109 c 2
 288 363.747524752 l 2
 322.430175452 393.31997743 308.599527245 397.956067256 282.244827586 432 c 2
 166.124137931 582 l 2
 149.540659363 603.421865411 148.28204959 615 108 615 c 2
EndSplineSet
EndChar

StartChar: Y
Encoding: 89 89 36
Width: 835
Flags: HMW
LayerCount: 2
Back
SplineSet
161.122070312 55 m 5
 271.122070312 55 l 5
 258.424804688 0 l 5
 148.424804688 0 l 5
 161.122070312 55 l 5
366.122070312 55 m 5
 486.122070312 55 l 5
 473.424804688 0 l 5
 353.424804688 0 l 5
 366.122070312 55 l 5
339.228515625 350 m 5
 434.228515625 350 l 5
 353.424804688 0 l 5
 258.424804688 0 l 5
 339.228515625 350 l 5
416.609375 317 m 5
 347.609375 317 l 5
 727.114257812 748 l 5
 797.114257812 748 l 5
 416.609375 317 l 5
393.877929688 695 m 5
 63.8779296875 695 l 5
 76.5751953125 750 l 5
 406.575195312 750 l 5
 393.877929688 695 l 5
848.877929688 695 m 5
 548.877929688 695 l 5
 561.575195312 750 l 5
 861.575195312 750 l 5
 848.877929688 695 l 5
429.534179688 334 m 5
 333.684570312 300 l 5
 136.575195312 750 l 5
 246.575195312 750 l 5
 429.534179688 334 l 5
EndSplineSet
Fore
SplineSet
112 750 m 2
 434 750 l 2
 478.760494628 750 480 751.036962412 480 706 c 2
 480 646 l 2
 480 626.156671939 485.923842303 615 464 615 c 2
 434 615 l 0
 391.334134615 615 l 1
 404.509615385 586 l 0
 426.317307692 538 l 2
 440.967895129 505.753204373 452.901222792 475.074313289 462.761000349 436 c 0
 478.141591345 375.046694752 478.675974252 386.551303304 507.58108966 429 c 0
 530.702537762 462.955074172 554.976135039 492.279490513 581.85106383 522 c 2
 637.914893617 584 l 2
 663.562394971 612.363119145 673.365746149 615 616 615 c 2
 600 615 l 2
 562.37371145 615 575 646.55140114 575 680 c 2
 575 716 l 2
 575 760.019963433 591.620624469 750 632 750 c 2
 884 750 l 2
 923.339231443 750 915 736.719098912 915 700 c 2
 915 642 l 2
 915 612.814653477 912.396973401 615 884 615 c 2
 864 615 l 2
 828.655772526 615 825.800083863 607.383935349 809.83887468 590 c 2
 591.31713555 352 l 2
 566.519941455 324.992471055 555.531466749 308.575167026 545.342857143 264 c 2
 522.942857143 166 l 2
 515.050901868 131.472695673 519.485449765 135 560 135 c 2
 592 135 l 2
 640.889597926 135 639 132.803110331 639 84 c 2
 639 48 l 2
 639 1.8030251889 640.541393027 0 594 0 c 2
 210 0 l 2
 165.083163575 0 154 -7.98259868686 154 40 c 2
 154 106 l 2
 154 134.362263185 153.479349159 135 182 135 c 6
 234 135 l 2
 280.266593735 135 277.315032553 141.378267421 285.685714286 178 c 2
 301.685714286 248 l 2
 310.86195575 288.146056404 306.22566297 301.379122895 290.866666667 334 c 2
 172.216666667 586 l 2
 160.832215018 610.179366333 161.003047667 615 124 615 c 2
 94 615 l 2
 60.6533463774 615 60 614.478146134 60 648 c 2
 60 722 l 2
 60 759.679660183 77.6382847305 750 112 750 c 2
EndSplineSet
EndChar

StartChar: Z
Encoding: 90 90 37
Width: 785
Flags: HMW
LayerCount: 2
Back
SplineSet
328.877929688 695 m 17
 191.877929688 695 148.950195312 652 117.321289062 515 c 9
 158.877929688 695 l 1
 328.877929688 695 l 17
361.122070312 55 m 17
 498.122070312 55 541.049804688 98 577.295898438 255 c 9
 531.122070312 55 l 1
 361.122070312 55 l 17
573.877929688 695 m 1
 688.877929688 695 l 1
 36.1220703125 55 l 1
 -78.8779296875 55 l 1
 573.877929688 695 l 1
531.122070312 55 m 1
 577.295898438 255 l 1
 627.295898438 255 l 1
 581.122070312 55 l 1
 531.122070312 55 l 1
117.321289062 515 m 1
 67.3212890625 515 l 1
 108.877929688 695 l 1
 158.877929688 695 l 1
 117.321289062 515 l 1
-78.8779296875 55 m 1
 581.122070312 55 l 1
 568.424804688 0 l 1
 -91.5751953125 0 l 1
 -78.8779296875 55 l 1
701.575195312 750 m 1
 688.877929688 695 l 1
 108.877929688 695 l 1
 121.575195312 750 l 1
 701.575195312 750 l 1
EndSplineSet
Fore
SplineSet
132 750 m 2
 712 750 l 2
 753.596439714 750 775 761.842055847 775 716 c 2
 775 622 l 2
 775 567.247957042 769.922235184 561.16940549 740 538.596491228 c 2
 406 286.631578947 l 2
 355.548237947 248.57147775 303.381471549 213.802749181 248 179.808652065 c 0
 178.666359064 137.250474077 161.702972575 135 280 135 c 2
 415 135 l 2
 539.893476681 135 586.666234696 170.736073432 624.262667748 296 c 0
 633.453172635 326.620956187 629.72496007 335 672 335 c 2
 718 335 l 2
 756.936918983 335 754.82388441 333.820025549 749.776119403 300 c 2
 710.671641791 38 l 2
 705.786321855 5.26835643026 708.895907627 0 670 0 c 2
 -16 0 l 2
 -54.3307139894 0 -55 -0.522734575101 -55 38 c 6
 -55 136 l 2
 -55 186.388063036 -48.281303707 190.068490186 -21 210.649122807 c 2
 342 484.49122807 l 2
 386.232644036 517.859713922 433.105274025 547.583855785 482 577.042741081 c 0
 537.270677194 610.343112587 561.170766164 615 462 615 c 2
 365 615 l 2
 250.187711309 615 201.393590535 584.800199782 168 494.383163049 c 0
 158.935848311 469.840916374 163.424531867 435 124 435 c 2
 62 435 l 2
 19.5399694701 435 32.2482489501 449.163968385 37.4603174603 482 c 2
 73.3333333333 708 l 2
 80.0929658333 750.58568475 82.4265478026 750 132 750 c 2
EndSplineSet
EndChar

StartChar: a
Encoding: 97 97 38
Width: 794
VWidth: 1155
Flags: HMW
LayerCount: 2
Back
SplineSet
641 520 m 5
 552 134 l 6
 550.599609375 128.094726562 549 119 549 114 c 4
 549 103 553 100 563 100 c 4
 589 100 615 130 651 191 c 5
 724 168 l 5
 668 38 572 -20 481 -20 c 4
 414 -20 375 5 375 65 c 4
 375 84 379.448242188 104.684570312 383 120 c 6
 394.484375 171 l 5
 424.9765625 262 l 5
 437.045898438 360 l 5
 473.076171875 520 l 5
 641 520 l 5
467 330 m 4
 467 172 378 -20 207 -20 c 4
 98 -20 15 40 15 180 c 4
 15 410 178 539 317 539 c 4
 438 539 467 452 467 330 c 4
423 320 m 4
 423 404 393 445 342 445 c 4
 268 445 195 334 195 190 c 4
 195 116 215 74 262 74 c 4
 343 74 423 206 423 320 c 4
EndSplineSet
Fore
SplineSet
423 320 m 4
 423 375 412 425 384 425 c 4
 321 425 255 304 255 180 c 4
 255 116 269 94 299 94 c 4
 340 94 423 186 423 320 c 4
681.073170732 483 m 6
 592 151 l 6
 590.599609375 145.094726562 589 136 589 131 c 4
 589 120 593 117 603 117 c 4
 623.220558043 117 646.532768014 139.414476482 672.257119835 189 c 4
 684.05743901 211.74595714 684.487926985 210.296913622 708 199.186813187 c 6
 742 183.120879121 l 6
 769.259819376 170.23986557 776.456795302 170.786607739 762.000006783 142.093172343 c 4
 709.340481669 37.5759982878 623.028322674 -25 511 -25 c 4
 454.60147257 -25 410.69140625 -2.9248046875 392 32.943359375 c 4
 377.01953125 61.689453125 376.98046875 60.28515625 354 37.0595703125 c 4
 316.577532483 -0.762057468954 266.458315861 -20 202 -20 c 4
 103 -20 10 20 10 170 c 4
 10 390 163 539 302 539 c 4
 366.825077593 539 416.891601562 519.559570312 438 479.083984375 c 4
 453.569932252 449.228468203 459.855087603 438.435103086 464.744084285 483 c 4
 467.593901809 508.977073097 465.869294066 520 500 520 c 6
 648 520 l 6
 693.590768263 520 690.721856469 518.963283203 681.073170732 483 c 6
EndSplineSet
EndChar

StartChar: b
Encoding: 98 98 39
Width: 684
VWidth: 1155
Flags: HMW
LayerCount: 2
Back
SplineSet
182 158 m 4
 182 316 248 538 449 538 c 4
 548 538 631 478 631 328 c 4
 631 108 458 -21 339 -21 c 4
 238 -21 182 36 182 158 c 4
228 198 m 4
 228 143 239 93 267 93 c 4
 330 93 396 214 396 338 c 4
 396 402 382 424 352 424 c 4
 311 424 228 332 228 198 c 4
594 330 m 1
 414 350 l 1
 414 414 408 453 364 453 c 0
 303 453 238 374 211 260 c 1
 172 260 l 1
 209 432 296 539 407 539 c 0
 526 539 594 470 594 330 c 1
41 780 m 1
 161 780 l 1
 161 695 l 1
 41 695 l 1
 41 780 l 1
161 780 m 1
 331 780 l 1
 184 140 l 1
 10 120 l 1
 161 780 l 1
10 120 m 1
 184 140 l 1
 194 86 209 65 244 65 c 0
 328 65 414 196 414 350 c 1
 594 330 l 1
 594 140 451 -20 242 -20 c 0
 91 -20 40 48 10 120 c 1
EndSplineSet
Fore
SplineSet
21.6681818182 171 m 2
 128.96969697 640 l 2
 135.154132625 667.031308162 144.492631878 675 108 675 c 2
 68 675 l 2
 31.9761935357 675 41 691.102620965 41 724 c 2
 41 746 l 2
 41 779.346653623 40.4781461336 780 74 780 c 2
 330 780 l 2
 371.820978687 780 371.066213757 780.28798449 363.182677165 746 c 6
 309.840944882 514 l 2
 294.913167602 449.074393337 321.345024215 495.242420047 353.999996184 513.564960431 c 0
 383.631314861 530.190944174 415.151002182 539 447 539 c 0
 566 539 644 470 644 330 c 0
 644 140 491 -25 262 -25 c 0
 152.649194936 -25 85.2530359601 13.2836145552 45 61.7469280931 c 0
 13.8438428152 99.2579028127 9.64887809896 118.465295002 21.6681818182 171 c 2
236.391920327 113.999998002 m 0
 245.028489172 101.173549449 257.470857224 95 273 95 c 0
 327 95 404 196 404 350 c 0
 404 394 393 423 369 423 c 0
 330.176038193 423 283.282058485 379.063235867 255.488581573 277.604447251 c 1
 233.507086614 182 l 2
 227.577472662 156.210240688 222.645997833 134.414513399 236.391920327 113.999998002 c 0
EndSplineSet
EndChar

StartChar: c
Encoding: 99 99 40
Width: 691
VWidth: 1155
Flags: HMW
LayerCount: 2
Back
SplineSet
235 170 m 4
 235 106 250 90 279 90 c 4
 348 90 423 216 423 350 c 4
 423 414 408 430 379 430 c 4
 310 430 235 304 235 170 c 4
10 200 m 4
 10 390 168 540 399 540 c 4
 550 540 648 470 648 320 c 4
 648 130 490 -20 259 -20 c 4
 108 -20 10 50 10 200 c 4
EndSplineSet
Fore
SplineSet
651 367 m 0
 651 279 591 240 527 240 c 0
 469 240 425 276 425 343 c 0
 425 391 467 405 467 422 c 0
 467 434 458 443 434 443 c 0
 363 443 235 344 235 190 c 0
 235 116 263 94 302 94 c 0
 337.909559931 94 385.674955667 107.250640018 421.999998624 146.564823777 c 0
 437.552169791 163.396762994 436.59544066 173 472 173 c 2
 538 173 l 6
 573.983450012 173 575.605174741 162.531395421 554 133.901331715 c 4
 493.710640876 54.0089812357 402.108688401 -20 255 -20 c 0
 126 -20 10 39 10 190 c 0
 10 390 189 540 390 540 c 0
 532 540 651 469 651 367 c 0
EndSplineSet
EndChar

StartChar: d
Encoding: 100 100 41
Width: 784
VWidth: 1155
Flags: HMW
LayerCount: 2
Back
SplineSet
388.076171875 780 m 5
 528.076171875 780 l 5
 528.076171875 685 l 5
 388.076171875 685 l 5
 388.076171875 780 l 5
696 780 m 5
 542 134 l 6
 540.599609375 128.094726562 539 119 539 114 c 4
 539 103 543 100 553 100 c 4
 579 100 605 130 641 191 c 5
 714 168 l 5
 658 38 562 -20 471 -20 c 4
 404 -20 365 5 365 65 c 4
 365 84 369.448242188 104.684570312 373 120 c 6
 384.484375 171 l 5
 414.9765625 262 l 5
 427.045898438 360 l 5
 528.076171875 780 l 5
 696 780 l 5
457 330 m 4
 457 172 368 -20 197 -20 c 4
 88 -20 5 40 5 180 c 4
 5 410 168 539 307 539 c 4
 428 539 457 452 457 330 c 4
413 320 m 4
 413 404 383 445 332 445 c 4
 258 445 185 334 185 190 c 4
 185 116 205 74 252 74 c 4
 333 74 413 206 413 320 c 4
EndSplineSet
Fore
SplineSet
413 320 m 0
 413 375 402 425 374 425 c 0
 311 425 245 304 245 180 c 0
 245 116 259 94 289 94 c 0
 330 94 413 186 413 320 c 0
731.920508744 726 m 2
 582 151 l 2
 580.599609375 145.094726562 579 136 579 131 c 0
 579 120 583 117 593 117 c 0
 612.243233113 117 634.286481504 137.300110771 658.544078362 182 c 0
 669.577790713 202.332010741 667.935990902 213.39288342 692 202.021978022 c 2
 734 182.175824176 l 2
 765.303689887 167.383970713 764.110319595 164.724051667 748.000007008 134.356792105 c 0
 695.022072539 34.4956206708 610.236163805 -25 501 -25 c 0
 450.909814023 -25 410.869633393 -6.66655031545 388.000002076 21.8542319655 c 0
 362.279824597 53.9299384748 371.989813324 57.184043243 328 23.9390572934 c 0
 291.81792857 -3.40528371219 246.954655048 -20 192 -20 c 0
 93 -20 10 20 10 170 c 0
 10 390 163 539 292 539 c 0
 349.441843877 539 395.154296875 523.735351562 418 492.09765625 c 0
 440.621186151 460.770881533 442.708769785 425.332259744 457.311302772 486 c 2
 495.341402494 644 l 2
 501.60547431 670.024737094 508.294265017 675 474 675 c 2
 414 675 l 2
 387.602217768 675 388.076171875 675.580393967 388.076171875 702 c 2
 388.076171875 746 l 2
 388.076171875 783.156623069 391.897148253 780 428 780 c 2
 687 780 l 2
 749.357421875 780 744.249173985 773.284941687 731.920508744 726 c 2
EndSplineSet
EndChar

StartChar: e
Encoding: 101 101 42
Width: 660
VWidth: 1155
Flags: HMW
LayerCount: 2
Back
SplineSet
10 200 m 5
 235 190 l 5
 235 116 263 94 302 94 c 4
 345 94 405 113 442 173 c 5
 581 173 l 5
 522 80 426 -20 255 -20 c 4
 126 -20 10 19 10 200 c 5
651 367 m 5
 467 422 l 5
 467 434 458 443 434 443 c 4
 363 443 235 344 235 190 c 5
 10 200 l 5
 10 390 199 540 400 540 c 4
 542 540 651 469 651 367 c 5
467 422 m 5
 651 367 l 5
 651 279 591 240 527 240 c 4
 469 240 425 276 425 343 c 4
 425 391 467 405 467 422 c 5
EndSplineSet
Fore
SplineSet
439 404 m 4
 439 423 431 442 402 442 c 4
 351.700872372 442 285.991103079 405.864702304 254.067599995 315 c 4
 243.851342861 285.92119995 241.886494254 281.025999201 276.999996714 287.047512166 c 4
 366.205661208 302.345133527 439 336.144651257 439 404 c 4
235.543811264 173 m 4
 239.61566055 112.575101292 266.164054952 94 302 94 c 4
 339.923615245 94 391.070275425 108.778697281 427.999998681 153.428081865 c 4
 438.800997821 166.486884422 438.202026248 173 464 173 c 6
 543 173 l 6
 580.3203125 173 576.585393414 165.27680674 563 146.185411337 c 4
 502.927114421 61.7656837206 409.625688606 -20 255 -20 c 4
 126 -20 10 39 10 190 c 4
 10 370 186 540 417 540 c 4
 559 540 640 485 640 403 c 4
 640 260.09281979 414.843769032 212.792179865 256.000003485 198.123821736 c 4
 235.181226167 196.20132084 234.042940839 195.272421448 235.543811264 173 c 4
EndSplineSet
EndChar

StartChar: f
Encoding: 102 102 43
Width: 490
VWidth: 1155
Flags: HMW
LayerCount: 2
Back
SplineSet
476 710 m 5
 660 664 l 5
 660 586 601 547 547 547 c 4
 499 547 452 578 452 635 c 4
 452 671 476 698 476 710 c 5
145 572 m 5
 315 550 l 5
 170 -150 l 5
 0 -150 l 5
 145 572 l 5
660 664 m 5
 476 710 l 5
 476 716 461 720 444 720 c 4
 384 720 345 677 315 550 c 5
 145 572 l 5
 175 703 282 800 442 800 c 4
 583 800 660 731 660 664 c 5
45 520 m 5
 435 520 l 5
 435 435 l 5
 45 435 l 5
 45 520 l 5
EndSplineSet
Fore
SplineSet
139.979224377 547 m 2
 145 572 l 2
 181.56944657 754.090623611 332 800 482 800 c 0
 613 800 715 741 715 654 c 0
 715 581 651 537 587 537 c 0
 529 537 472 568 472 630 c 0
 472 676 500 688 500 700 c 0
 500 706 491 710 479 710 c 0
 439 710 380 677 350 550 c 0
 344.724534172 523.622670859 339.767394231 520 373 520 c 2
 454 520 l 2
 476.648351711 520 475 518.042796943 475 496 c 2
 475 441 l 2
 475 415.628610702 475.519695901 415 450 415 c 2
 359 415 l 6
 333.91796875 415 322.972119684 414.860598419 318.8 394 c 2
 215.2 -124 l 2
 210.453717566 -147.731412171 211.371548041 -150 182 -150 c 2
 24 -150 l 2
 -6.18684247343 -150 1.38807160836 -143.088360681 6.02493074792 -120 c 2
 109.452908587 395 l 2
 113.74767723 416.384985931 112.346541364 415 87 415 c 2
 47 415 l 2
 26.1833087289 415 25 413.986730112 25 435 c 2
 25 508 l 2
 25 522.417510393 38.427734375 520 52 520 c 2
 111 520 l 2
 138.348472416 520 135.619214646 525.290158442 139.979224377 547 c 2
EndSplineSet
EndChar

StartChar: g
Encoding: 103 103 44
Width: 659
VWidth: 1155
Flags: HMW
LayerCount: 2
Back
SplineSet
531.995117188 623 m 4
 507.995117188 623 463.995117188 563 463.995117188 492 c 5
 398.995117188 514 l 5
 408.995117188 595 474.995117188 697 564.995117188 697 c 4
 645.995117188 697 688.995117188 653 688.995117188 601 c 4
 688.995117188 547 655.995117188 516 605.995117188 516 c 4
 557.995117188 516 524.995117188 540 524.995117188 585 c 4
 524.995117188 603 539.06640625 623 531.995117188 623 c 4
259.995117188 290 m 0
 259.995117188 246 269.995117188 225 298.995117188 225 c 0
 367.995117188 225 407.995117188 321 407.995117188 415 c 0
 407.995117188 459 397.995117188 475 368.995117188 475 c 0
 299.995117188 475 259.995117188 384 259.995117188 290 c 0
84.9951171875 295 m 0
 84.9951171875 425 217.995117188 540 398.995117188 540 c 0
 529.995117188 540 582.995117188 485 582.995117188 395 c 0
 582.995117188 255 439.995117188 160 298.995117188 160 c 0
 187.995117188 160 84.9951171875 185 84.9951171875 295 c 0
264.995117188 178 m 1
 221.995117188 178 179.995117188 170 179.995117188 146 c 1
 51.9951171875 74 l 1
 51.9951171875 158 151.995117188 197 266.995117188 197 c 1
 264.995117188 178 l 1
51.9951171875 74 m 1
 179.995117188 146 l 1
 179.995117188 129 191.995117188 119 236.995117188 119 c 0
 261.995117188 119 349.995117188 120 377.995117188 120 c 0
 482.995117188 120 554.995117188 74 554.995117188 -32 c 1
 413.995117188 -67 l 1
 413.995117188 -33 369.995117188 -19 324.995117188 -19 c 0
 303.995117188 -19 242.995117188 -19 220.995117188 -19 c 0
 130.995117188 -19 51.9951171875 2 51.9951171875 74 c 1
208.995117188 22 m 1
 120.995117188 -4 104.995117188 -50 104.995117188 -92 c 0
 104.995117188 -158 139.995117188 -175 205.995117188 -175 c 0
 289.995117188 -175 413.995117188 -142 413.995117188 -67 c 1
 554.995117188 -32 l 1
 554.995117188 -183 354.995117188 -260 184.995117188 -260 c 0
 61.9951171875 -260 -40.0048828125 -240 -40.0048828125 -145 c 0
 -40.0048828125 -54 89.9951171875 27 134.995117188 27 c 1
 208.995117188 22 l 1
EndSplineSet
Fore
SplineSet
293 302 m 0
 293 277 301 260 322 260 c 0
 365 260 396 345 396 408 c 0
 396 433 387 450 366 450 c 0
 323 450 293 365 293 302 c 0
218.776166716 168 m 0
 210.642972999 160.791239926 206 151.468183308 206 140 c 0
 206 129 214 119 243 119 c 0
 268 119 386 120 414 120 c 0
 510 120 565 74 565 -9 c 0
 565 -25 563 -43 559 -62 c 0
 526 -203 372 -265 192 -265 c 0
 24 -265 -75 -227 -75 -155 c 0
 -75 -95.5718091844 -22.5446063597 -54.7753155634 43.9999974108 -29.6946891903 c 0
 78.6284318958 -16.6432503358 68.5690759299 -20.6702033581 49.417366625 1.99999302757 c 0
 35.4287295322 18.5585750848 27 38.3020875213 27 61 c 0
 27 68 28 76 30 84 c 0
 41.4705653649 133.531986803 81.7568956014 170.559019039 132.999997387 194.655882582 c 0
 156.92875286 205.908284081 147.244623815 210.303730766 138.141181607 217.999987942 c 0
 109.012328633 242.626183024 91 275.378098052 91 317 c 0
 91 466 251 540 387 540 c 0
 409.100064547 540 404.804644777 548.766805681 410 565.630719383 c 0
 430.655985881 632.679217199 477.648923826 697 565 697 c 0
 656 697 704 639 704 587 c 0
 704 543 670 496 611 496 c 0
 563 496 515 526 515 575 c 0
 515 592.153816738 523.639286297 607.325520052 531.965820312 612 c 0
 547.219726562 620.563476562 536.80913583 628.609081055 524.008088257 621.000000384 c 0
 509.166780908 612.178167308 490.911591163 585.882431793 481.29496987 549.000002088 c 0
 474.680076856 523.630039069 484.474222679 526.714993725 503.919470292 518.000007931 c 0
 555.57429817 494.849308074 588 453.719601017 588 396 c 0
 588 246 438 170 301 170 c 0
 283.769258941 170 267.023934472 171.125283911 251.000003983 173.356186951 c 0
 235.294313235 175.542783632 228.649580141 176.751183234 218.776166716 168 c 0
376 -101 m 0
 377 -96 378 -92 378 -88 c 0
 378 -65 356 -59 300 -59 c 0
 279 -59 228 -59 206 -59 c 0
 197.128301733 -59 185.1015625 -58.283203125 176 -57.5009765625 c 4
 161.540039062 -56.2587890625 153.40865445 -54.2746320554 141.512274516 -66 c 0
 127.037810578 -80.2663916594 118 -96.4525809343 118 -115 c 0
 118 -152 163 -163 232 -163 c 0
 316 -163 366 -143 376 -101 c 0
EndSplineSet
EndChar

StartChar: h
Encoding: 104 104 45
Width: 784
VWidth: 1155
Flags: HMW
LayerCount: 2
Back
SplineSet
587 341 m 5
 417.076171875 330 l 5
 436.076171875 394 438 433 402 433 c 4
 331 433 221 287 190 153 c 5
 141 153 l 5
 194 365 305 539 476 539 c 4
 565 539 625 481 587 341 c 5
587 341 m 5
 526 130 l 6
 524.599609375 124.094726562 524 120 524 115 c 4
 524 104 527 100 538 100 c 4
 564 100 593 130 627 191 c 5
 701 168 l 5
 645 48 554 -20 453 -20 c 4
 386 -20 350 13 350 63 c 4
 350 82 352.729492188 99.865234375 357 115 c 6
 417.076171875 330 l 5
 587 341 l 5
59 780 m 5
 164 780 l 5
 164 695 l 5
 59 695 l 5
 59 780 l 5
164 780 m 5
 334 780 l 5
 155 0 l 5
 -15 0 l 5
 164 780 l 5
EndSplineSet
Fore
SplineSet
134 675 m 2
 86 675 l 2
 60.3200465186 675 65 681.886446215 65 706 c 2
 65 752 l 2
 65 782.654365592 68.2218338554 780 98 780 c 2
 346 780 l 2
 378.696289062 780 389.228763853 780.996848075 383.033333333 754 c 2
 320.612820513 482 l 2
 304.501896832 411.795975021 319.748954734 440.225590659 349.999994273 474.637325208 c 0
 388.008911313 517.873947272 452.800741727 539 511 539 c 0
 590 539 698 506 642 341 c 1
 582 155 l 2
 579.340820312 146.755859375 578 140 578 136 c 0
 578 126 583 122 592 122 c 0
 611.424758534 122 633.967874458 139.930554989 661.694347975 193 c 0
 670.600455358 210.046602616 669.319176208 217.739290363 689 208.43956044 c 6
 741 183.868131868 l 2
 761.538592758 174.163082543 765.377346493 174.43669208 755.000004151 152.609385673 c 0
 705.682555417 48.8769434692 616.703806024 -20 503 -20 c 0
 413 -20 366 22 366 73 c 0
 366 92 370.729492188 109.865234375 375 125 c 2
 427.076171875 310 l 2
 446.076171875 374 448 413 412 413 c 0
 352.583870766 413 277 294 247.502731053 163.419721907 c 2
 217.802564103 34 l 2
 211.077264492 4.69422516244 213.234888861 0 176 0 c 2
 40 0 l 2
 -7.20980317169 0 1.5070375479 6.53049604088 9.92307692308 43 c 2
 148.153846154 642 l 2
 153.09756723 663.42279133 164.252710804 675 134 675 c 2
EndSplineSet
EndChar

StartChar: i
Encoding: 105 105 46
Width: 466
VWidth: 1155
Flags: HMW
LayerCount: 2
Back
SplineSet
156 700 m 0
 156 757 221 795 276 795 c 0
 331 795 396 757 396 700 c 0
 396 643 331 605 276 605 c 0
 221 605 156 643 156 700 c 0
20 520 m 1
 160 520 l 1
 160 415 l 1
 20 415 l 1
 20 520 l 1
353 520 m 1
 264 134 l 2
 262.599609375 128.094726562 261 119 261 114 c 0
 261 103 265 100 275 100 c 0
 301 100 317 130 353 191 c 1
 446 168 l 1
 390 38 264 -20 173 -20 c 0
 106 -20 47 5 47 65 c 0
 47 84 51.4482421875 104.684570312 55 120 c 2
 145.076171875 520 l 1
 353 520 l 1
EndSplineSet
Fore
SplineSet
347.300813008 478 m 2
 264 151 l 2
 262.599609375 145.094726562 261 136 261 131 c 0
 261 120 265 117 275 117 c 0
 295.220558043 117 318.532768014 139.414476482 344.257119835 189 c 0
 354.459346351 208.665519519 353.38117773 211.764937996 375 201.549450549 c 6
 419 180.758241758 l 2
 447.865928738 167.11829741 445.641896845 164.205957459 431.000006953 136.253754187 c 0
 378.092094028 35.2495294817 292.926087319 -25 183 -25 c 0
 101 -25 50 17 50 77 c 0
 50 96 56.4482421875 124.684570312 60 140 c 2
 112.836780428 376 l 2
 118.824326419 402.743886408 131.211179544 415 94 415 c 2
 42 415 l 2
 15.6291754619 415 20 421.166453623 20 446 c 2
 20 492 l 2
 20 522.197802281 22.6096040753 520 52 520 c 2
 314 520 l 2
 363.495956185 520 356.979523298 515.994086138 347.300813008 478 c 2
156 690 m 0
 156 758 210 795 276 795 c 0
 342 795 396 758 396 690 c 0
 396 622 342 585 276 585 c 0
 210 585 156 622 156 690 c 0
EndSplineSet
EndChar

StartChar: j
Encoding: 106 106 47
Width: 429
VWidth: 1155
Flags: HMW
LayerCount: 2
Back
SplineSet
209 700 m 4
 209 757 254 795 309 795 c 4
 364 795 409 757 409 700 c 4
 409 643 364 605 309 605 c 4
 254 605 209 643 209 700 c 4
73 520 m 5
 213 520 l 5
 213 435 l 5
 73 435 l 5
 73 520 l 5
-53 -170 m 5
 -237 -124 l 5
 -237 -46 -178 -7 -124 -7 c 4
 -76 -7 -29 -38 -29 -95 c 4
 -29 -131 -53 -158 -53 -170 c 5
-237 -124 m 5
 -53 -170 l 5
 -53 -176 -38 -180 -21 -180 c 4
 69 -180 75 -24 105 103 c 5
 248 0 l 5
 213 -141 141 -260 -19 -260 c 4
 -160 -260 -237 -191 -237 -124 c 5
198 520 m 5
 368 520 l 5
 248 0 l 5
 105 103 l 5
 198 520 l 5
EndSplineSet
Fore
SplineSet
189 690 m 0
 189 758 243 795 309 795 c 0
 375 795 429 758 429 690 c 0
 429 622 375 585 309 585 c 0
 243 585 189 622 189 690 c 0
268 0 m 1
 229 -161 161 -260 -39 -260 c 0
 -180 -260 -257 -191 -257 -124 c 0
 -257 -46 -188 -7 -124 -7 c 0
 -56 -7 -9 -38 -9 -95 c 0
 -9 -141 -38 -145 -38 -159 c 0
 -38 -165 -28 -170 -11 -170 c 0
 59 -170 46 -64 85 103 c 1
 146.330935252 378 l 2
 153.854202332 411.733358845 159.044898707 415 116 415 c 2
 84 415 l 2
 50.7664106082 415 53 417.630946614 53 450 c 2
 53 490 l 2
 53 522.682479669 56.2316815603 520 88 520 c 2
 356 520 l 2
 397.663434606 520 385.390440954 508.691910801 378.307692308 478 c 6
 268 0 l 1
EndSplineSet
EndChar

StartChar: k
Encoding: 107 107 48
Width: 762
VWidth: 1155
Flags: HMW
LayerCount: 2
Back
SplineSet
601 520 m 5
 507 151 l 6
 505.599609375 145.094726562 504 136 504 131 c 4
 504 120 508 117 518 117 c 4
 541 117 568 146 598 211 c 5
 689 168 l 5
 638 48 547 -25 426 -25 c 4
 344 -25 293 17 293 77 c 4
 293 96 299.448242188 124.684570312 303 140 c 6
 388.076171875 520 l 5
 601 520 l 5
471 408 m 0
 471 440 494 455 494 466 c 1
 652 424 l 1
 652 370 609 329 559 329 c 0
 511 329 471 363 471 408 c 0
65 780 m 1
 210 780 l 1
 210 695 l 1
 65 695 l 1
 65 780 l 1
170 780 m 1
 340 780 l 1
 160 0 l 1
 -10 0 l 1
 170 780 l 1
168 378 m 1
 210 379 l 1
 210 369 217 294 259 294 c 0
 296 294 317.526367188 318.568359375 347 397 c 0
 379.244140625 482.8046875 418 540 508 540 c 0
 569 540 652 506 652 424 c 1
 494 466 l 1
 494 474 488 475 483 475 c 0
 463 475 437.544921875 457.71484375 408 375 c 0
 374.963867188 282.51171875 332 232 262 232 c 0
 191 232 168 326 168 378 c 1
EndSplineSet
Fore
SplineSet
717.000002356 141.769438982 m 0
 660.633759949 29.5165156649 564.884209215 -25 470 -25 c 0
 392.6953125 -25 333.005859375 3.5537109375 333.005859375 63.38671875 c 0
 333.005859375 68.5849609375 334.287109375 90.056640625 335 96 c 2
 342 160 l 2
 343.853781122 175.448005412 345.132722632 191.637057955 346.607123644 206.999998531 c 0
 347.619463916 217.548365853 344.229833619 219.375997311 332 215.949961642 c 0
 322.7794931 213.366951397 312.827829338 212 302 212 c 0
 289.141896041 212 277.858059131 215.738884243 267.999999765 222.17128661 c 0
 252.785482911 232.098787611 253.440429688 227.91015625 248.154296875 205 c 2
 205.63757622 24 l 2
 201.320571452 5.62186897385 198.938476562 0 175 0 c 6
 16 0 l 2
 -0.8173828125 0 -9.92630563223 0.319342260329 -6.76923076923 14 c 2
 136.307692308 634 l 2
 143.431211626 664.868583714 154.941999168 675 113 675 c 2
 75 675 l 2
 50.7290877506 675 55 681.183858397 55 704 c 2
 55 738 l 2
 55 774.754027246 50.8020068652 780 89 780 c 2
 326 780 l 2
 376.112304688 780 378.867403021 775.092079759 369.846153846 736 c 2
 291.846153846 398 l 2
 287.00675655 377.029278382 278.513298147 365.68035646 306 373.839000473 c 0
 317.883452375 377.366264606 331.08070348 379 346 379 c 0
 369.683411815 379 368.425528605 379.58407365 377 397 c 0
 419.244140625 482.8046875 478 540 568 540 c 0
 679 540 732 486 732 414 c 0
 732 350 679 299 619 299 c 0
 561 299 511 333 511 378 c 0
 511 410 524 425 524 436 c 0
 524 444 518 445 513 445 c 0
 497 445 482.544921875 427.71484375 457 375 c 0
 446.064995343 352.434335292 446.209081917 353.432161579 465.485241427 340.00000205 c 0
 521.08669453 301.255376195 558.61225745 237.690812793 549 168 c 2
 545 139 l 2
 544.49609375 136.731445312 544.225585938 132.548828125 544.225585938 130.536132812 c 0
 544.225585938 120.141601562 548.619140625 117 560 117 c 0
 573.032715577 117 595.124187172 130.588134026 624.306744939 184 c 0
 635.081249898 203.720218474 633.626745816 213.066482746 657 202.021978022 c 2
 702 180.758241758 l 2
 727.726415322 168.601803749 730.147959662 167.953491355 717.000002356 141.769438982 c 0
EndSplineSet
EndChar

StartChar: l
Encoding: 108 108 49
Width: 425
VWidth: 1155
Flags: HMW
LayerCount: 2
Back
SplineSet
35 780 m 5
 175 780 l 5
 175 685 l 5
 35 685 l 5
 35 780 l 5
328 780 m 5
 184 134 l 6
 182.599609375 128.094726562 181 119 181 114 c 4
 181 103 185 100 195 100 c 4
 221 100 247 130 283 191 c 5
 356 168 l 5
 300 38 204 -20 113 -20 c 4
 46 -20 7 5 7 65 c 4
 7 84 11.4482421875 104.684570312 15 120 c 6
 160.076171875 780 l 5
 328 780 l 5
EndSplineSet
Fore
SplineSet
361.553259141 732 m 2
 223 151 l 2
 221.599609375 145.094726562 220 136 220 131 c 0
 220 120 224 117 234 117 c 0
 253.243233113 117 275.286481504 137.300110771 299.544078362 182 c 0
 311.866184105 204.706155313 309.977024759 212.900966323 336 200.604395604 c 6
 374 182.648351648 l 2
 402.090426948 169.3748532 406.943210326 169.394216822 392.00000684 140.121367043 c 0
 339.251135125 36.7894543625 253.322030787 -25 142 -25 c 0
 60 -25 10 14 10 74 c 0
 10 93 14.728515625 120.623046875 19 140 c 2
 129.215759277 640 l 2
 135.335914186 667.764427467 144.020567536 675 107 675 c 2
 65 675 l 2
 33.5746280551 675 35 676.657677804 35 708 c 2
 35 756 l 2
 35 786.224447203 44.7515912633 780 73 780 c 2
 325 780 l 2
 373.829101562 780 370.106788523 767.867799875 361.553259141 732 c 2
EndSplineSet
EndChar

StartChar: m
Encoding: 109 109 50
Width: 1115
VWidth: 1155
Flags: HMW
LayerCount: 2
Back
SplineSet
135 520 m 5
 295 520 l 5
 256 360 l 5
 135 380 l 5
 135 520 l 5
135 520 m 5
 268 360 l 5
 185 0 l 5
 15 0 l 5
 135 520 l 5
937 341 m 5
 876 130 l 6
 874.599609375 124.094726562 874 120 874 115 c 4
 874 104 877 100 888 100 c 4
 914 100 943 130 977 191 c 5
 1051 168 l 5
 995 48 904 -20 803 -20 c 4
 736 -20 700 13 700 63 c 4
 700 82 702.729492188 99.865234375 707 115 c 6
 767.076171875 330 l 5
 937 341 l 5
588 330 m 5
 438 330 l 5
 456 404 465 441 423 441 c 4
 362 441 251 287 220 153 c 5
 171 153 l 5
 224 365 325 534 476 534 c 4
 575 534 623 470 588 330 c 5
30 520 m 5
 135 520 l 5
 135 435 l 5
 30 435 l 5
 30 520 l 5
937 341 m 5
 767.076171875 330 l 5
 792.076171875 414 789 441 753 441 c 4
 682 441 600 287 569 153 c 5
 510 153 l 5
 563 365 665 534 796 534 c 4
 905 534 972 481 937 341 c 5
438 330 m 5
 608 330 l 5
 535 0 l 5
 355 0 l 5
 438 330 l 5
EndSplineSet
Fore
SplineSet
83 415 m 2
 51 415 l 2
 29.8466796875 415 20 411.431066272 20 434 c 2
 20 485 l 2
 20 524.518249049 25.769189516 520 64 520 c 2
 286 520 l 2
 329.414136102 520 330.367432047 521.507413528 321.7125 486 c 2
 309.474609375 444 l 2
 295.369052163 395.590235519 320.711914062 426.224609375 341 452.530273438 c 0
 384.809570312 509.334960938 443.847139256 539 501 539 c 0
 559.94616477 539 618.094018325 521.507056274 645.999999399 466.80950936 c 0
 663.350187149 432.802007317 661.035621539 435.736223214 679.999995991 457.109862355 c 0
 729.113394958 512.462706668 785.719048237 539 842 539 c 0
 921 539 1029 506 973 341 c 1
 913 155 l 2
 910.340820312 146.755859375 909 140 909 136 c 0
 909 126 914 122 923 122 c 0
 942.302238954 122 964.683621946 139.70507822 992.170320817 192 c 0
 1003.38942343 213.344945663 1002.27007021 216.817439351 1026 205.604395604 c 2
 1067 186.230769231 l 2
 1087.4728264 176.556796315 1097.61763544 177.411774804 1087.0000041 154.729135334 c 4
 1037.89083186 49.8163150221 948.476549398 -20 834 -20 c 0
 744 -20 697 22 697 73 c 0
 697 92 701.729492188 109.865234375 706 125 c 2
 758.076171875 310 l 2
 777.076171875 374 780 413 753 413 c 0
 704.236776649 413 633.5325895 297.809940062 600.327000676 170.574942692 c 1
 568.838888889 34 l 2
 562.432374517 6.21270875026 565.397898105 0 530 0 c 2
 392 0 l 2
 330.588993953 0 344.843575865 11.0347720125 356.430769231 56 c 2
 441.748077636 387.082092317 l 1
 441.149663375 403.82850316 435.093373932 413 422 413 c 0
 373.127656089 413 297.624526333 297.29382702 264.130026625 169.72059741 c 1
 237.45 54 l 2
 228.15420262 13.6808788326 234.377426547 0 182 0 c 2
 55 0 l 2
 13.6196700871 0 15.0480367167 0.208159105761 22.8461538462 34 c 2
 105.461538462 392 l 2
 110.792977804 415.102903818 111.430209647 415 83 415 c 2
EndSplineSet
EndChar

StartChar: n
Encoding: 110 110 51
Width: 799
VWidth: 1155
Flags: HMW
LayerCount: 2
Back
SplineSet
691 525 m 1
 597 156 l 2
 595.599609375 150.094726562 594 141 594 136 c 0
 594 125 598 122 608 122 c 0
 631 122 658 151 688 216 c 1
 779 173 l 1
 728 53 637 -20 516 -20 c 0
 434 -20 383 22 383 82 c 0
 383 101 389.448242188 129.684570312 393 145 c 2
 478.076171875 525 l 1
 691 525 l 1
EndSplineSet
Fore
SplineSet
88 415 m 2
 46 415 l 2
 20.0877548196 415 20 415.000222058 20 441 c 2
 20 493 l 2
 20 526.067337875 28.9567578022 520 60 520 c 2
 280 520 l 2
 331.022214826 520 330.09638994 520.395445907 320.00625 479 c 2
 312.20625 447 l 2
 298.717450609 391.661335831 314.693359375 411.986328125 342 447.142578125 c 4
 389.998046875 508.9375 456.574682013 539 526 539 c 0
 605 539 713 506 657 341 c 1
 597 155 l 2
 594.340574561 146.75578114 593 140 593 136 c 0
 593 126 598 122 607 122 c 0
 625.544481397 122 646.931093292 138.342250365 672.956625554 186 c 0
 687.593011843 212.80203526 686.193586278 216.85358011 716 202.769230769 c 2
 753 185.285714286 l 2
 778.385580536 173.290330076 779.903702222 172.384579874 767.00000429 146.440648552 c 0
 717.121157943 46.1551822543 629.434586043 -20 518 -20 c 0
 428 -20 381 22 381 73 c 0
 381 92 385.729492188 109.865234375 390 125 c 2
 442.076171875 310 l 2
 461.076171875 374 463 413 427 413 c 0
 368.671139925 413 294 299 264.320632634 170.547322267 c 2
 233.991666667 39 l 2
 225.542269774 2.35201347864 225.589726643 0 180 0 c 2
 67 0 l 2
 5.57399512206 0 16.9754316354 8.56020375349 27.9230769231 56 c 2
 102.461538462 379 l 2
 107.689292721 401.653601789 120.140370025 415 88 415 c 2
EndSplineSet
EndChar

StartChar: o
Encoding: 111 111 52
Width: 688
VWidth: 1155
Flags: HMW
LayerCount: 2
Back
SplineSet
215 170 m 4
 215 106 230 70 279 70 c 4
 368 70 443 196 443 350 c 4
 443 414 428 450 379 450 c 4
 290 450 215 324 215 170 c 4
30 180 m 4
 30 390 188 540 399 540 c 4
 550 540 628 460 628 340 c 4
 628 130 470 -20 259 -20 c 4
 108 -20 30 60 30 180 c 4
EndSplineSet
Fore
SplineSet
10 200 m 0
 10 390 168 540 399 540 c 0
 550 540 648 470 648 320 c 0
 648 130 490 -20 259 -20 c 0
 108 -20 10 50 10 200 c 0
235 170 m 0
 235 106 250 90 279 90 c 0
 348 90 423 216 423 350 c 0
 423 414 408 430 379 430 c 0
 310 430 235 304 235 170 c 0
EndSplineSet
EndChar

StartChar: p
Encoding: 112 112 53
Width: 711
VWidth: 1155
Flags: HMW
LayerCount: 2
Back
SplineSet
24 520 m 5
 129 520 l 5
 129 435 l 5
 24 435 l 5
 24 520 l 5
129 520 m 5
 289 520 l 5
 254.806640625 371 l 4
 230.250976562 264 l 4
 216.384765625 160 l 4
 123 -250 l 5
 -47 -250 l 5
 129 520 l 5
184 189 m 0
 184 347 273 539 444 539 c 0
 553 539 636 479 636 339 c 0
 636 109 473 -20 334 -20 c 0
 213 -20 184 67 184 189 c 0
228 199 m 0
 228 115 258 74 309 74 c 0
 383 74 456 185 456 329 c 0
 456 403 436 445 389 445 c 0
 308 445 228 313 228 199 c 0
EndSplineSet
Fore
SplineSet
268 199 m 0
 268 144 279 99 307 99 c 0
 370 99 436 215 436 339 c 0
 436 403 422 425 392 425 c 0
 351 425 268 333 268 199 c 0
225.180587843 23 m 2
 170.288567073 -218 l 2
 162.423086658 -252.532902115 156.814285901 -250 115 -250 c 2
 -16 -250 l 2
 -58.9046705418 -250 -43.2619880777 -233.64619784 -36.2571428571 -203 c 6
 94.0285714286 367 l 2
 101.380064939 399.162784106 117.108671574 415 72 415 c 2
 46 415 l 2
 11.7549322482 415 14 417.638517512 14 451 c 2
 14 489 l 2
 14 526.275766389 22.9125561461 520 58 520 c 2
 272 520 l 2
 305.038085938 520 320.369195157 524.616306187 312.178206271 497 c 2
 306.246211724 477 l 2
 296.833108154 445.263276389 301.221679688 442.91015625 326 469.880859375 c 0
 363.547851562 510.750976562 419.88410113 539 489 539 c 0
 588 539 671 479 671 329 c 0
 671 109 498 -20 379 -20 c 0
 327.55309181 -20 285.187396509 -5.21059615215 256.000003234 25.4255248692 c 0
 234.06243059 48.4519775598 229.008895857 39.8079480131 225.180587843 23 c 2
EndSplineSet
EndChar

StartChar: q
Encoding: 113 113 54
Width: 661
VWidth: 1155
Flags: HMW
LayerCount: 2
Back
SplineSet
452 -165 m 5
 557 -165 l 5
 557 -250 l 5
 452 -250 l 5
 452 -165 l 5
471 520 m 5
 631 520 l 5
 452 -250 l 5
 282 -250 l 5
 369.408203125 126 l 5
 409.861328125 257 l 5
 438.221679688 379 l 5
 471 520 l 5
457 330 m 4
 457 172 368 -20 197 -20 c 4
 88 -20 5 40 5 180 c 4
 5 410 168 539 307 539 c 4
 428 539 457 452 457 330 c 4
413 320 m 4
 413 404 383 445 332 445 c 4
 258 445 185 334 185 190 c 4
 185 116 205 74 252 74 c 4
 333 74 413 206 413 320 c 4
EndSplineSet
Fore
SplineSet
505 520 m 2
 621 520 l 2
 676.306703615 520 666.812235868 501.985595634 655.657142857 454 c 2
 526.87012987 -100 l 2
 519.05938763 -133.599282263 506.206075491 -145 552 -145 c 6
 586 -145 l 2
 609.540322509 -145 607 -148.203887491 607 -171 c 2
 607 -213 l 2
 607 -246.03980995 610.265206228 -250 576 -250 c 2
 364 -250 l 2
 278.577323241 -250 282.207825666 -249.135180271 298.82176777 -180 c 2
 343.279296875 5 l 2
 354.75390625 54.3603515625 337.40284598 31.7595600195 316 15.4817138387 c 0
 283.670681927 -9.10621559923 241.033284518 -20 192 -20 c 0
 93 -20 10 40 10 190 c 0
 10 410 183 539 302 539 c 0
 359.707877632 539 402.725585938 521.391601562 426 479.68359375 c 0
 440.127929688 454.366210938 446.141117282 413.066440566 457.981660018 464 c 2
 464.490830009 492 l 2
 470.763161004 518.98120776 471.406564948 520 505 520 c 2
413 320 m 0
 413 375 407 425 369 425 c 0
 316 425 245 304 245 180 c 0
 245 116 259 94 289 94 c 0
 330 94 413 186 413 320 c 0
EndSplineSet
EndChar

StartChar: r
Encoding: 114 114 55
Width: 652
VWidth: 1155
Flags: HMW
LayerCount: 2
Back
SplineSet
359.404296875 466 m 5
 361.712890625 476 358.021484375 486 334.021484375 486 c 4
 266.021484375 486 192.934570312 386 169.155273438 283 c 5
 145.155273438 283 l 5
 166.395507812 375 225.1796875 530 366.1796875 530 c 4
 422.1796875 530 465.869140625 494 452.478515625 436 c 5
 359.404296875 466 l 5
-63.482421875 55 m 5
 26.517578125 55 l 5
 13.8203125 0 l 5
 -76.1796875 0 l 5
 -63.482421875 55 l 5
43.87109375 520 m 5
 133.87109375 520 l 5
 121.173828125 465 l 5
 31.173828125 465 l 5
 43.87109375 520 l 5
133.87109375 520 m 5
 223.87109375 520 l 5
 103.8203125 0 l 5
 13.8203125 0 l 5
 133.87109375 520 l 5
116.517578125 55 m 5
 206.517578125 55 l 5
 193.8203125 0 l 5
 103.8203125 0 l 5
 116.517578125 55 l 5
323.70703125 411 m 4
 332.017578125 447 356.633789062 454 359.404296875 466 c 5
 452.478515625 436 l 5
 442.782226562 394 407.932617188 360 372.932617188 360 c 4
 338.932617188 360 316.549804688 380 323.70703125 411 c 4
EndSplineSet
Fore
SplineSet
662 414 m 0
 662 322 601 265 521 265 c 0
 457 265 407 314 407 365 c 0
 407 409 425 411 425 422 c 0
 425 426 421 430 415 430 c 0
 377.920777422 430 302 332 269.6136148 193.325472271 c 2
 234.923086771 43 l 2
 225.659890973 2.85952471171 225.953864061 0 176 0 c 2
 58 0 l 2
 6.8395298542 0 16.7468290921 7.56959273232 25.8461538462 47 c 6
 102.923076923 381 l 2
 108.073212952 403.317256127 119.463909995 415 88 415 c 2
 57 415 l 2
 27.6262718443 415 20 409.592700471 20 441 c 2
 20 483 l 2
 20 524.557481725 25.7671615658 520 66 520 c 2
 284 520 l 2
 320.89609654 520 325.867401499 523.758739828 318.538461538 492 c 2
 311.153846154 460 l 2
 301.163453662 416.7082992 311.266601562 425.4921875 335 457.395507812 c 0
 371.704101562 506.733398438 432.27248162 543 507 543 c 0
 596 543 662 492 662 414 c 0
EndSplineSet
EndChar

StartChar: s
Encoding: 115 115 56
Width: 626
VWidth: 1155
Flags: HMW
LayerCount: 2
Back
SplineSet
201 162 m 4
 201 109 155 105 155 90 c 5
 10 116 l 5
 10 189 59 231 114 231 c 4
 167 231 201 209 201 162 c 4
384 390 m 4
 384 439 418 440 418 450 c 5
 566 411 l 5
 566 351 529 312 467 312 c 4
 420 312 384 345 384 390 c 4
103 380 m 5
 269 416 l 5
 269 316 524 302 524 139 c 5
 341 130 l 5
 341 207 103 234 103 380 c 5
10 116 m 5
 155 90 l 5
 155 71 182 58 229 58 c 4
 299 58 341 89 341 130 c 5
 524 139 l 5
 524 35 404 -22 237 -22 c 4
 98 -22 10 46 10 116 c 5
566 411 m 5
 418 450 l 5
 418 458 388 472 346 472 c 4
 303 472 269 452 269 416 c 5
 103 380 l 5
 103 479 213 542 366 542 c 4
 504 542 566 467 566 411 c 5
EndSplineSet
Fore
SplineSet
341 130 m 0
 341 207 103 234 103 380 c 0
 103 499 218 542 351 542 c 0
 519 542 616 457 616 391 c 0
 616 331 579 292 517 292 c 0
 470 292 424 325 424 370 c 0
 424 419 445 419 445 431 c 0
 445 441 408 452 386 452 c 0
 343 452 309 433 309 406 c 0
 309 316 564 302 564 139 c 0
 564 5 414 -22 277 -22 c 0
 118 -22 -10 36 -10 136 c 0
 -10 209 39 261 104 261 c 0
 157 261 201 229 201 182 c 0
 201 129 155 125 155 110 c 0
 155 91 202 78 249 78 c 0
 299 78 341 89 341 130 c 0
EndSplineSet
EndChar

StartChar: t
Encoding: 116 116 57
Width: 475
VWidth: 1155
Flags: HMW
LayerCount: 2
Back
SplineSet
25 58 m 1
 159 101 l 1
 159 90 164 82 177 82 c 0
 213 82 239 115 265 176 c 1
 318 163 l 1
 282 43 191 -15 110 -15 c 0
 63 -15 25 8 25 58 c 1
30.001953125 520 m 1
 375.001953125 520 l 1
 375.001953125 455 l 1
 30.001953125 455 l 1
 30.001953125 520 l 1
159 101 m 1
 25 58 l 1
 25 66 25.880859375 77.0283203125 28 86 c 2
 152 611 l 1
 208 611 260 638 260 638 c 1
 288 638 l 1
 163 129 l 2
 160.051757812 116.994140625 159 110 159 101 c 1
EndSplineSet
Fore
SplineSet
73 415 m 6
 37 415 l 2
 15.5458706449 415 10 411.062424647 10 434 c 2
 10 502 l 2
 10 521.144597208 11.3352990404 520 30 520 c 2
 106 520 l 2
 129.539225979 520 129.67595753 521.076405804 134.162995329 540 c 2
 146.492892236 592 l 2
 150.861745417 610.425163417 151.472764668 610.31003311 173.000004312 611.697085339 c 0
 227.353512927 615.199213643 263.661767893 631.18751252 284.000001718 643.405993982 c 0
 305.878935774 656.550072887 296.665952841 658 315 658 c 2
 355 658 l 2
 374.40911714 658 368.36632011 644.036151354 363.935546875 627 c 2
 344.169417843 551 l 2
 335.982142716 519.520244474 335.471809249 520 375 520 c 2
 431 520 l 2
 453.81400783 520 455 521.017124497 455 498 c 2
 455 446 l 2
 455 415.104630746 454.999735238 415 424 415 c 2
 341 415 l 2
 306.156993017 415 307.730408774 410.893422497 300.735950101 384 c 2
 242.998046875 162 l 2
 240.049804688 149.994140625 238.998046875 146 238.998046875 137 c 0
 238.998046875 126 243.998046875 118 256.998046875 118 c 0
 278.33584789 118 299.000125602 139.552745664 323.41288192 180.999986276 c 0
 336.776585989 203.688479571 335.415466631 213.374107837 362 199.601397779 c 2
 396 181.986939947 l 2
 424.737642535 167.098763694 423.17831474 162.057785433 409.296620942 131.000012176 c 0
 365.994850191 34.1201503109 277.945005575 -20 169.998046875 -20 c 0
 82.998046875 -20 29.998046875 13 29.998046875 83 c 0
 29.998046875 91 31.6845703125 107.541015625 35.998046875 126 c 2
 98.5959850193 390 l 2
 104.023070093 412.888141398 102.528320312 415 73 415 c 6
EndSplineSet
Substitution2: "'ss01' Style Set 1 lookup 2-1" uniFFF0
EndChar

StartChar: u
Encoding: 117 117 58
Width: 884
VWidth: 1155
Flags: HMW
LayerCount: 2
Back
SplineSet
731 520 m 5
 642 134 l 6
 640.599609375 128.094726562 639 119 639 114 c 4
 639 103 643 100 653 100 c 4
 679 100 705 130 741 191 c 5
 814 168 l 5
 758 38 662 -20 571 -20 c 4
 504 -20 475 5 475 65 c 4
 475 84 479.448242188 104.684570312 483 120 c 6
 499.6640625 194 l 5
 506.328125 268 l 5
 563.076171875 520 l 5
 731 520 l 5
132 179 m 5
 301.923828125 190 l 5
 282.923828125 126 281 87 317 87 c 4
 388 87 498 233 529 367 c 5
 578 367 l 5
 525 155 414 -19 243 -19 c 4
 154 -19 94 39 132 179 c 5
132 179 m 5
 193 390 l 6
 194.400390625 395.905273438 195 400 195 405 c 4
 195 416 192 420 181 420 c 4
 155 420 126 390 92 329 c 5
 18 352 l 5
 74 472 165 540 266 540 c 4
 333 540 369 507 369 457 c 4
 369 438 366.270507812 420.134765625 362 405 c 6
 301.923828125 190 l 5
 132 179 l 5
EndSplineSet
Fore
SplineSet
770.536585366 481 m 2
 682 151 l 2
 680.599609375 145.094726562 679 136 679 131 c 0
 679 120 683 117 693 117 c 0
 713.623935059 117 737.464102234 140.31768284 763.799508457 192 c 0
 772.442590619 208.961747609 771.540245046 211.689774319 790 202.967032967 c 2
 844 177.450549451 l 2
 864.4817374 167.772365844 864.08740063 166.66166374 853.943152387 146.000008668 c 0
 801.476792193 39.1373007352 714.417293508 -25 601 -25 c 0
 519 -25 479 25 479 85 c 0
 479 109.463867188 462.295898438 88.533203125 453 77.5166015625 c 0
 398.204101562 12.572265625 334.147995328 -18.999999876 263 -19 c 0
 184 -19 76 14 132 179 c 1
 192 365 l 2
 194.659179688 373.244140625 196 380 196 384 c 0
 196 394 191 398 182 398 c 0
 162.945936196 398 140.891398446 380.747274811 113.887367818 330 c 0
 101.155631823 306.073908586 102.098664927 303.480850639 76 315.813186813 c 2
 34 335.659340659 l 2
 4.79612695685 349.458972976 12.8559376231 356.910251711 27.3957240158 383.999994405 c 0
 78.0685912902 478.410936832 163.47984841 540 271 540 c 0
 361 540 408 498 408 447 c 0
 408 428 403.270507812 410.134765625 399 395 c 2
 346.923828125 210 l 2
 327.923828125 146 326 107 362 107 c 0
 407.879528799 107 479.655942338 208.968983665 517.631187138 326.999995989 c 0
 523.477687856 345.171528571 527.955109169 363.257724004 532.287643795 383 c 4
 539.488137388 415.810847244 546.940905548 448.369419921 554.321666305 481 c 0
 562.527548259 517.278467354 562.018346164 520 607 520 c 2
 723 520 l 2
 773.185546875 520 781.310093095 521.155801535 770.536585366 481 c 2
EndSplineSet
EndChar

StartChar: v
Encoding: 118 118 59
Width: 656
VWidth: 1155
Flags: HMW
LayerCount: 2
Back
SplineSet
205 540 m 5
 245 483 l 5
 223 471 195 448 195 400 c 4
 195 307 244 291 244 147 c 4
 244 128 239 89 238 68 c 5
 48 22 l 5
 50 44 67 80 67 120 c 4
 67 217 10 289 10 383 c 4
 10 463 85 486 205 540 c 5
415 362 m 4
 360 362 331 390 331 448 c 4
 331 508 390 539 454 539 c 5
 488 408 l 5
 477 408 467 362 415 362 c 4
48 22 m 5
 329.78125 169.950195312 507 245 507 373 c 4
 507 395 498 408 488 408 c 5
 454 539 l 5
 514 539 596 490 596 379 c 4
 596 199 436.08203125 133.373046875 111 -22 c 5
 48 22 l 5
185 535 m 1
 220 488 l 1
 198 476 150 453 150 405 c 0
 150 312 204 291 204 147 c 0
 204 128 199 89 198 68 c 1
 48 22 l 1
 50 44 67 100 67 120 c 0
 67 217 10 279 10 373 c 0
 10 453 85 481 185 535 c 1
395 387 m 0
 350 387 321 420 321 458 c 0
 321 508 360 534 414 534 c 1
 458 428 l 1
 437 428 437 387 395 387 c 0
48 22 m 1
 299.78125 149.950195312 477 245 477 383 c 0
 477 425 468 428 458 428 c 1
 414 534 l 1
 474 534 546 500 546 389 c 0
 546 219 336.08203125 93.373046875 101 -12 c 1
 48 22 l 1
EndSplineSet
Fore
SplineSet
435 342 m 0
 370 342 341 380 341 438 c 0
 341 498 390 549 494 549 c 0
 574 549 646 490 646 379 c 0
 646 206.89679292 472.380311332 139.351426896 173.000029073 -2.05181353624 c 0
 142.339555493 -16.5333628375 133.491940304 -23.3210285951 103 -7.15662650602 c 2
 67 11.9277108434 l 2
 42.5735455974 24.8766746231 49.1859954081 30.8082684972 57.9126385823 62.9999981004 c 4
 62.5351945826 80.0521531919 67 99.5008053704 67 120 c 0
 67 217 10 269 10 363 c 0
 10 450.086950871 97.2175756375 478.776046749 198.999996503 520.39905931 c 0
 231.754341311 533.793656273 241.409127623 547.81014742 257.413793103 513 c 2
 273.045977011 479 l 2
 287.313273772 447.968629546 279.502960463 454.233107569 256.778899112 433.000006111 c 0
 243.578600585 420.665799052 233 404.595999624 233 385 c 0
 233 321.244571058 287.156048995 316.984519884 300.872472094 221 c 0
 309.314771243 161.922642543 310.363739303 175.79485528 350.99999545 199.918370722 c 0
 457.438719157 263.105200376 537.000000005 320.499231769 537 373 c 0
 537 387 534 393 527 393 c 0
 506 393 497 342 435 342 c 0
EndSplineSet
EndChar

StartChar: w
Encoding: 119 119 60
Width: 1080
VWidth: 1155
Flags: HMW
LayerCount: 2
Back
SplineSet
175 179 m 1
 344.923828125 190 l 1
 325.923828125 126 324 87 360 87 c 0
 431 87 510 233 539 367 c 1
 591 367 l 1
 538 155 457 -19 286 -19 c 0
 197 -19 137 39 175 179 c 1
175 179 m 1
 236 390 l 2
 237.400390625 395.905273438 238 400 238 405 c 0
 238 416 235 420 224 420 c 0
 198 420 169 390 135 329 c 1
 61 352 l 1
 117 472 208 540 309 540 c 0
 376 540 412 507 412 457 c 0
 412 438 409.270507812 420.134765625 405 405 c 2
 344.923828125 190 l 1
 175 179 l 1
891 367 m 4
 846 367 813 395 813 443 c 4
 813 503 872 534 926 534 c 5
 943 387 l 5
 932 387 933 367 891 367 c 4
572 520 m 5
 757 520 l 5
 681 189 l 5
 498 178 l 5
 572 520 l 5
733 68 m 5
 865 68 947 280 947 378 c 4
 947 384 946 387 943 387 c 5
 926 534 l 5
 984 534 1040 480 1040 399 c 4
 1040 259 944 -20 719 -20 c 5
 733 68 l 5
508 188 m 5
 681 189 l 5
 661 105 669 68 733 68 c 5
 719 -20 l 5
 630 -20 496 8 508 188 c 5
EndSplineSet
Fore
SplineSet
596 520 m 2
 716 520 l 2
 777.549299078 520 777.256427816 521.049329614 765.025723473 471 c 2
 701 209 l 2
 681 125 669 88 733 88 c 0
 865 88 942 262 942 350 c 0
 942 356 941 359 938 359 c 0
 927 359 933 347 891 347 c 0
 846 347 813 380 813 438 c 0
 813 488 852 534 926 534 c 0
 984 534 1060 500 1060 399 c 0
 1060 249 954 -20 719 -20 c 0
 655.897725167 -20 560.009258714 -7.22790350278 516 66.4228515625 c 0
 486.06640625 116.517578125 483.396484375 112.026367188 456 77.00390625 c 0
 402.418346737 8.50747682922 334.208849751 -20 273 -20 c 0
 194 -20 88.5032987747 12.1602262017 142 178 c 2
 202 364 l 2
 204.659179688 372.244140625 206 379 206 383 c 0
 206 393 201 397 192 397 c 0
 173.455518603 397 152.068906708 380.657749635 126.043374446 333 c 0
 114.15786938 311.235356763 115.914615227 300.677709288 90 312.923076923 c 2
 44 334.659340659 l 2
 14.0994960701 348.788150209 23.5238224689 357.543639693 38.4770486613 384.999994435 c 0
 89.2789149879 478.279802118 174.240960438 539 281 539 c 0
 371 539 418 497 418 446 c 0
 418 427 413.270507812 409.134765625 409 394 c 2
 360.923828125 219 l 2
 343.242186619 154.63781926 339 116 366 116 c 0
 415.384055415 116 488 224 515.934712007 353.319885223 c 2
 545.292397661 489 l 2
 552.393171554 521.817090154 556.636666012 520 596 520 c 2
EndSplineSet
EndChar

StartChar: x
Encoding: 120 120 61
Width: 792
VWidth: 1155
Flags: HMW
LayerCount: 2
Back
SplineSet
342 242 m 1
 291.626953125 143.91796875 227 -20 90 -20 c 0
 -11 -20 -59 44 -59 116 c 1
 88 64 l 1
 88 54 95 52 107 52 c 0
 164 52 239.049804688 183.21875 287 278 c 1
 342 242 l 1
122 137 m 0
 122 85 88 80 88 64 c 1
 -59 116 l 1
 -59 170 -16 221 34 221 c 0
 92 221 122 182 122 137 c 0
341 278 m 5
 391.373046875 376.08203125 456 540 593 540 c 4
 694 540 742 476 742 404 c 5
 595 456 l 5
 595 466 588 468 576 468 c 4
 519 468 443.950195312 336.78125 396 242 c 5
 341 278 l 5
561 383 m 4
 561 435 595 440 595 456 c 5
 742 404 l 5
 742 350 699 299 649 299 c 4
 591 299 561 338 561 383 c 4
628 154 m 1
 595 64 517 -20 425 -20 c 0
 327.6953125 -20 301.8203125 25.2294921875 289.005859375 73.38671875 c 0
 266.07421875 159.565429688 237.092773438 320.100585938 210.774414062 392.463867188 c 0
 206.879882812 403.171875 198.380859375 420 182 420 c 0
 161 420 140 398 113 342 c 1
 45 372 l 1
 78 462 145 542 247 542 c 0
 344.3046875 542 366.1796875 496.770507812 378.994140625 448.61328125 c 0
 403.046875 358.224609375 423.801757812 220.942382812 459.225585938 123.536132812 c 0
 463.120117188 112.828125 473.619140625 98 489 98 c 0
 513 98 540 131 569 187 c 1
 628 154 l 1
EndSplineSet
Fore
SplineSet
455 -20 m 0
 367.202118664 -20 325.049969311 16.4963642215 304 55.0983296048 c 0
 279.521918244 99.9868541731 288.216213423 88.3417798982 256 54.6861547569 c 0
 213.489137582 10.2759184822 161.735767288 -22.0000002052 99 -22 c 0
 -2 -22 -70 42 -70 134 c 0
 -70 208 -12 269 48 269 c 0
 116 269 151 235 151 180 c 0
 151 118 102 113 102 92 c 0
 102 82 109 80 121 80 c 0
 151.599170497 80 200.445479835 122.902693704 244.041677317 178.999997701 c 0
 261.281071484 201.182747372 261.6992224 209.298401105 254.106410462 241.999996652 c 0
 243.832707592 286.247961543 233.109388801 328.548407889 220.774414062 362.463867188 c 0
 216.879882812 373.171875 208.380859375 390 192 390 c 0
 175.262825024 390 158.525650048 376.025109805 138.750810364 342 c 0
 122.563844699 314.148280696 123.935561357 311.468431047 94 328.477272727 c 2
 58 348.931818182 l 2
 27.2594247248 366.398054134 40.8036937623 381.425410677 58 411.663536514 c 0
 98.2156724895 482.379104644 167.702612406 542 267 542 c 0
 346.503064424 542 396.161132812 497.676757812 416 454.25390625 c 0
 433.181640625 416.647460938 439.268554688 421.354492188 464 450.461914062 c 0
 507.21875 501.327148438 565.25863932 539.999999976 633 540 c 0
 734 540 802 476 802 384 c 0
 802 310 749 259 689 259 c 0
 631 259 581 288 581 343 c 0
 581 405 630 410 630 431 c 0
 630 441 623 443 611 443 c 0
 579.235133796 443 527.806373325 394.482375254 483.000001703 333.768520712 c 0
 465.76415302 310.413476062 457.665817788 302.112966599 465.750748796 268 c 0
 474.538143898 230.92310778 484.850744133 193.063183068 499.225585938 153.536132812 c 0
 503.120117188 142.828125 513.619140625 128 529 128 c 0
 548.670896301 128 570.357126775 150.168675906 593.508088234 188.999995839 c 0
 605.904885855 209.793258158 604.528373204 219.999952154 627 204.924050633 c 6
 658 184.126582278 l 2
 681.477484926 168.375864544 691.232516437 167.604432853 677.000002328 138.050329926 c 0
 637.878942344 56.8146589461 556.245597846 -20 455 -20 c 0
EndSplineSet
EndChar

StartChar: y
Encoding: 121 121 62
Width: 773
VWidth: 1155
Flags: HMW
LayerCount: 2
Back
SplineSet
594 373 m 4
 549 373 516 401 516 449 c 4
 516 509 575 540 629 540 c 5
 646 393 l 5
 635 393 636 373 594 373 c 4
119 -183 m 5
 331 -183 650 206 650 384 c 4
 650 390 649 393 646 393 c 5
 629 540 l 5
 687 540 743 486 743 405 c 4
 743 185 405 -265 120 -265 c 5
 119 -183 l 5
315.005859375 -121.61328125 m 5
 222.07421875 14.5654296875 222.092773438 325.100585938 194.774414062 397.463867188 c 4
 190.75 408.124023438 187.380859375 420 170 420 c 4
 146 420 118 385 83 329 c 5
 11 354 l 5
 64 464 134 542 236 542 c 4
 323.3046875 542 359.706054688 495.353515625 373.994140625 447.61328125 c 4
 401.046875 357.224609375 389.801757812 119.942382812 485.225585938 -27.4638671875 c 5
 315.005859375 -121.61328125 l 5
113 -47 m 4
 113 -118 46 -120 46 -140 c 5
 -90 -86 l 5
 -90 -30 -51 37 28 37 c 4
 83 37 113 4 113 -47 c 4
-90 -86 m 5
 46 -140 l 5
 46 -163 76 -183 119 -183 c 5
 120 -265 l 5
 -27 -265 -90 -173 -90 -86 c 5
EndSplineSet
Fore
SplineSet
584 348 m 0
 529 348 496 396 496 444 c 0
 496 514 555 545 619 545 c 0
 697 545 753 481 753 400 c 0
 753 160 445 -265 140 -265 c 0
 -27 -265 -70 -153 -70 -66 c 0
 -70 10 -21 77 58 77 c 0
 113 77 163 44 163 -17 c 0
 163 -108 91 -110 91 -135 c 0
 91 -158 106 -168 139 -168 c 0
 181.860852442 -168 227.869022785 -154.143626383 273.999994826 -130.480094832 c 0
 312.770016931 -110.59246618 303.928515698 -108.386926261 287.145598334 -71.0000034359 c 4
 221.736448162 74.7104708785 219.037552378 303.193525116 194.774414062 367.463867188 c 0
 190.75 378.124023438 187.380859375 390 170 390 c 0
 151.495984564 390 130.61420116 369.194530288 105.979704316 334.000003075 c 0
 87.5370080799 307.651505736 88.3531781234 296.062280298 56 313.817073171 c 2
 28 329.182926829 l 2
 -2.47158379293 345.905137447 2.8809661365 350.179979322 19.8227656184 379.999996064 c 0
 72.4255200386 472.588449798 147.648640085 542 256 542 c 0
 363.3046875 542 394.706054688 505.353515625 413.994140625 447.61328125 c 0
 435.653857461 382.773403894 431.224609375 251.873046875 465.091796875 122 c 0
 485.66015625 43.123046875 499.626860963 56.8256934518 536.211701061 107.999995393 c 0
 598.848651694 195.615581949 640 288.058402729 640 359 c 0
 640 365 636 368 633 368 c 0
 622 368 626 348 584 348 c 0
EndSplineSet
EndChar

StartChar: z
Encoding: 122 122 63
Width: 675
VWidth: 1155
Flags: HMW
LayerCount: 2
Back
SplineSet
100 50 m 5
 -40 40 l 5
 500 470 l 5
 645 485 l 5
 100 50 l 5
625 166 m 5
 581 97 498 -20 368 -20 c 4
 294.186523438 -20 207.7578125 39 162 39 c 4
 114 39 36 7 4 -15 c 5
 -40 40 l 5
 104 92 262 172 332 172 c 4
 405.813476562 172 425.2421875 140 461 140 c 4
 503 140 526 168 559 215 c 5
 625 166 l 5
11 375 m 5
 65 434 152 540 242 540 c 4
 345.813476562 540 402.2421875 471 458 471 c 4
 506 471 574 513 606 535 c 5
 645 485 l 5
 511 465 368 355 308 355 c 4
 244.186523438 355 238.7578125 393 183 393 c 4
 145 393 111 365 79 329 c 5
 11 375 l 5
EndSplineSet
Fore
SplineSet
-2.00000193329 364.61529362 m 0
 60.2044022163 432.399101045 164.736561592 540 242 540 c 0
 345.813476562 540 402.2421875 471 458 471 c 0
 494.64936485 471 542.958243103 495.484978145 577.99999872 516.857587392 c 0
 607.136504816 534.628476683 605.383276877 535.7317054 626.228571429 511 c 2
 648.985714286 484 l 2
 667.067901111 462.546558004 661.980557188 462.782179174 640 446.637168142 c 2
 326 216 l 2
 304.213938604 199.997848709 306.573242188 193.106445312 328 201.940429688 c 4
 345.6328125 209.209960938 360.811929243 212 372 212 c 0
 435.813476562 212 445.2421875 190 471 190 c 0
 504.056875981 190 525.343693038 207.345349994 549 237.647914139 c 0
 563.791886837 256.595592675 564.22601652 268.706118754 586 251.802631579 c 2
 617 227.736842105 l 2
 640.266137362 209.674972311 648.107618578 209.851560087 630.000002449 183.225413237 c 0
 578.521410252 107.529278208 475.165156494 -20 358 -20 c 0
 284.186523438 -20 207.7578125 39 162 39 c 0
 125.860478415 39 72.7149018775 20.8602080503 35.0000012503 2.50618594372 c 0
 5.0550586497 -12.0665725504 6.58698349599 -18.0316212844 -13.92 6 c 2
 -42.9333333333 40 l 2
 -62.3927209228 62.8039698314 -56.4802681762 62.5769465139 -33 79.7678571429 c 2
 282 310.392857143 l 2
 300.26797863 323.767627211 297.233398438 332.513671875 281 324.671875 c 0
 271.244140625 319.959960938 261.809570312 317 255 317 c 0
 201.186523438 317 198.7578125 343 153 343 c 0
 123.578197504 343 96.5542965659 326.214689101 71 301.927039146 c 0
 51.9230101424 283.795636051 52.1880002448 276.711179311 29 293.358974359 c 2
 -12 322.794871795 l 2
 -35.5269343378 339.68600414 -21.1932434855 343.700520671 -2.00000193329 364.61529362 c 0
EndSplineSet
EndChar

StartChar: comma
Encoding: 44 44 65
Width: 295
Flags: HMW
LayerCount: 2
Back
SplineSet
125 24 m 5
 125 -66 27 -156 -63 -156 c 5
 -63 -116 l 5
 -8 -116 82 -49 76 11 c 5
 92.365234375 16.9150390625 96.7646484375 78.1123046875 125 24 c 5
-11 49 m 4
 -11 82 18 108 56 108 c 4
 95 108 125 77 125 24 c 4
 125 9.2919921875 99.0439453125 28.44140625 91 19.107421875 c 4
 67.5068359375 -8.15625 60.2919921875 -10 42 -10 c 4
 9 -10 -11 16 -11 49 c 4
EndSplineSet
Fore
SplineSet
-16 91 m 0
 -16 158 43 203 111 203 c 0
 180 203 250 162 250 49 c 0
 250 -78.7361838688 99.6051919762 -146.488311358 -17.9999972437 -155.066933029 c 0
 -42.2369877189 -156.834881987 -43 -156.562565082 -43 -132 c 6
 -43 -97 l 2
 -43 -72.6671038998 -40.044550541 -77.0835209969 -18.0000016754 -74.3014546445 c 0
 34.6900618222 -67.6518627815 101.962977502 -42.2057383979 137.999998952 -10.9003418513 c 0
 152.783080443 1.94173581303 147.80859375 10.4697265625 132 -0.287109375 c 0
 118.66015625 -9.3642578125 100.065544253 -15.0000000456 78 -15 c 0
 20 -15 -16 38 -16 91 c 0
EndSplineSet
EndChar

StartChar: exclam
Encoding: 33 33 67
Width: 378
Flags: HMW
LayerCount: 2
Back
SplineSet
234 659 m 4
 182 483 125 358 90 208 c 5
 52 208 l 5
 87 358 86 483 116 659 c 4
 118 666 119 672 120 678 c 4
 131 724 151 758 198 758 c 4
 245 758 250 724 239 678 c 4
 238 672 236 666 234 659 c 4
-25 49 m 4
 -17 82 15 108 48 108 c 4
 81 108 101 82 93 49 c 4
 85 16 53 -10 20 -10 c 4
 -13 -10 -33 16 -25 49 c 4
EndSplineSet
Fore
SplineSet
380 598 m 0
 323.768202753 448.048540675 252.399523316 416.802104837 210.692598019 308 c 0
 201.484445217 283.978416071 207.094119743 265 170 265 c 2
 150 265 l 2
 114.434137155 265 117.172807054 265.482674886 122.09679379 294 c 4
 143.758557042 419.45434794 91.302985216 480.51492608 125 649 c 0
 139 719 193 759 263 759 c 0
 345 759 391 708 391 657 c 0
 391 639 385.885742188 613.6953125 380 598 c 0
EndSplineSet
Refer: 1 46 N 1 0 0 1 40 0 2
EndChar

StartChar: quotesingle
Encoding: 39 39 70
Width: 307
Flags: HMW
LayerCount: 2
Fore
SplineSet
162 468 m 2
 140 468 l 2
 112.900568721 468 115.920324621 472.701113532 113.596912495 496 c 4
 104.88243871 583.387654194 90 611.959556093 90 672 c 0
 90 741 149 778 215 778 c 0
 261 778 317 749 317 687 c 0
 317 615.026571807 215.737177916 570.443906966 189.405574186 492 c 0
 183.000769816 472.919586845 188.010494155 468 162 468 c 2
EndSplineSet
EndChar

StartChar: question
Encoding: 63 63 75
Width: 610
Flags: HMW
LayerCount: 2
Back
SplineSet
139 662 m 5
 139 632 170 631 170 580 c 4
 170 538 137 520 102 520 c 4
 67 520 35 543 35 591 c 5
 139 662 l 5
35 591 m 5
 35 683 129 760 281 760 c 4
 412 760 480 700 480 590 c 5
 389 600 l 5
 389 674 340 713 261 713 c 4
 197 713 139 684 139 662 c 5
 35 591 l 5
245 226.01171875 m 5
 215.454101562 199.176757812 181.159179688 196.23046875 161.236328125 196.23046875 c 4
 100.798828125 196.23046875 65 233.051757812 65 285.01171875 c 4
 65 412.845703125 389 432.737304688 389 600 c 5
 480 590 l 5
 480 362.944335938 135.484375 364.557617188 135.484375 283.689453125 c 4
 135.484375 267.388671875 146.681640625 253.1015625 170.245117188 253.1015625 c 4
 184.125976562 253.1015625 212.297851562 255.977539062 235 283.01171875 c 5
 245 226.01171875 l 5
EndSplineSet
Fore
SplineSet
331.000002198 248.766390077 m 4
 291.506242024 238.285057699 257.873377152 236.23046875 241.236328125 236.23046875 c 0
 180.798828125 236.23046875 105 268.051757812 105 340.01171875 c 0
 105 497.845703125 389 432.737304688 389 600 c 0
 389 654 360 683 311 683 c 0
 277 683 249 675 249 663 c 0
 249 643 290 641 290 570 c 0
 290 508 217 470 162 470 c 0
 107 470 35 513 35 581 c 0
 35 683 159 770 341 770 c 0
 512 770 600 700 600 590 c 0
 600 362.944335938 225.484375 391.557617188 225.484375 350.689453125 c 0
 225.484375 339.388671875 236.681640625 333.1015625 260.245117188 333.1015625 c 0
 270.253586414 333.1015625 292.890454221 334.596723464 316.999998979 341.816152923 c 0
 336.052430794 347.52126635 344.16955611 361.067024487 347.063063789 333 c 2
 352.011517397 285 l 2
 354.854834154 257.419827452 354.752397468 255.070088396 331.000002198 248.766390077 c 4
EndSplineSet
Refer: 1 46 N 1 0 0 1 129 0 2
EndChar

StartChar: parenleft
Encoding: 40 40 76
Width: 480
Flags: HMW
LayerCount: 2
Fore
SplineSet
388 -114 m 6
 372 -146 l 2
 359.242771489 -171.514457022 356.027004461 -169.531426609 328.000048014 -159.29228013 c 0
 145.771606292 -92.7183832818 50 42.9463635163 50 235 c 0
 50 520.035647078 226.9720656 718.951198063 497.137025071 793.999993162 c 0
 517.743124457 799.724136418 519.654961467 800.690077067 528.5 783 c 2
 549 742 l 2
 562.157713709 715.684572581 555.007155458 720.530362955 528.000015849 710.310737586 c 0
 373.678624636 651.914816083 285 443.018404949 285 235 c 0
 285 106.055650848 300.112515094 -5.61725248135 362.082851671 -63.9999969715 c 0
 384.915892687 -85.5111856014 404.415329527 -81.1693409466 388 -114 c 6
EndSplineSet
EndChar

StartChar: asterisk
Encoding: 42 42 78
Width: 659
VWidth: 1155
Flags: HMW
LayerCount: 2
Fore
SplineSet
312.524322564 623 m 0
 302.088437077 652.963675815 290.289062633 681.262013418 290.2890625 714 c 0
 290.2890625 783 349.2890625 810 405.2890625 810 c 0
 461.2890625 810 497.2890625 781 497.2890625 729 c 0
 497.2890625 677.991879281 430.617551835 639.552977785 391.404218555 585 c 0
 360.586197605 542.126449815 378.191542439 549.872562883 405 580.168874784 c 0
 427.876188399 606.021318449 447.139931153 633.074677482 477.797851562 650.775390625 c 0
 537.553710938 685.275390625 590.436523438 647.6796875 618.436523438 599.181640625 c 0
 646.436523438 550.684570312 639.321289062 505.0078125 594.288085938 479.0078125 c 0
 550.193378417 453.549766622 483.729312677 491.884831675 417.00000333 498.670472917 c 0
 364.442071921 504.015039951 379.16735017 493.046804161 414.999995557 485.402641243 c 0
 450.306885371 477.870637537 484.856461403 475.216585208 516.797851562 456.775390625 c 0
 576.553710938 422.275390625 570.436523438 357.6796875 542.436523438 309.181640625 c 0
 514.436523438 260.684570312 471.321289062 244.0078125 426.288085938 270.0078125 c 0
 382.283506662 295.413822904 382.160781236 371.879667718 354.840544841 432.99999828 c 0
 339.58767026 467.123448857 326.20166794 478.434339194 341.690767186 430 c 4
 352.866259648 395.054288569 368.289062348 363.428646846 368.2890625 326 c 0
 368.2890625 257 309.2890625 230 253.2890625 230 c 0
 197.2890625 230 161.2890625 259 161.2890625 311 c 0
 161.2890625 360.75242998 224.718409958 398.546868226 264.229391307 451 c 0
 300.507811118 499.161717829 278.434687681 488.627361417 249 454.59386769 c 0
 228.055090238 430.376574721 209.373125807 405.733031047 180.780273438 389.224609375 c 0
 121.024414062 354.724609375 68.1416015625 392.3203125 40.1416015625 440.818359375 c 0
 12.1416015625 489.315429688 19.2568359375 534.9921875 64.2900390625 560.9921875 c 0
 109.578972531 587.139718821 178.465339913 545.991903329 246.99999667 540.8495149 c 0
 297.930045714 537.028060073 274.585737588 547.949465833 244.000004444 554.507134592 c 0
 208.546474905 562.108472835 173.848873204 564.709970991 141.780273438 583.224609375 c 0
 82.0244140625 617.724609375 88.1416015625 682.3203125 116.141601562 730.818359375 c 0
 144.141601562 779.315429688 187.256835938 795.9921875 232.290039062 769.9921875 c 0
 276.294618338 744.586177096 276.417343764 668.120332282 303.737580159 607.00000172 c 0
 325.85421741 557.521067493 328.170790425 578.075619483 312.524322564 623 c 0
EndSplineSet
EndChar

StartChar: at
Encoding: 64 64 79
Width: 1150
VWidth: 1155
Flags: HMW
LayerCount: 2
Back
SplineSet
865 -74 m 5
 781 -172 652 -224 489 -224 c 4
 306 -224 45 -112 45 221 c 5
 230 231 l 5
 230 -71 411 -129 525 -129 c 4
 619 -129 716 -113 806 -15 c 5
 865 -74 l 5
862 520 m 5
 790 210 l 5
 620 210 l 5
 692 520 l 5
 862 520 l 5
673 359 m 4
 673 192.828125 604 65 484 65 c 4
 375 65 324 125.583984375 324 210 c 4
 324 380 409 534 568 534 c 4
 679 534 673 461 673 359 c 4
644 346 m 4
 644 387.927734375 640 458 594 458 c 4
 550 458 495 324 495 220 c 4
 495 173.072265625 500 142 534 142 c 4
 595 142 644 268 644 346 c 4
620 210 m 5
 790 210 l 5
 788 197 775 160 808 160 c 4
 859 160 957 241 957 405 c 5
 1050 401 l 5
 1050 231 942 65 761 65 c 4
 662 65 607 148 620 210 c 5
957 405 m 5
 957 612 806 712 622 712 c 4
 408 712 230 503 230 231 c 5
 45 221 l 5
 45 554 292 800 605 800 c 4
 898 800 1050 624 1050 401 c 5
 957 405 l 5
EndSplineSet
Fore
SplineSet
674 346 m 0
 674 387.927734375 672 418 644 418 c 0
 600 418 565 304 565 240 c 0
 565 193.072265625 570 182 584 182 c 0
 625 182 674 268 674 346 c 0
865.000012194 -105.279874243 m 0
 781.585149707 -183.02781494 663.687327661 -224 519 -224 c 0
 336 -224 45 -112 45 221 c 0
 45 554 322 800 635 800 c 0
 928 800 1090 624 1090 401 c 0
 1090 231 972 63 791 63 c 0
 740.477716176 63 700.251121948 84.2240293736 677.000003397 115.056538787 c 0
 659.06331728 138.84176195 658.357770905 140.198459669 633 115.511274555 c 0
 600.143108745 83.5232831922 557.225657065 65 504 65 c 0
 425 65 354 105.583984375 354 210 c 0
 354 320 439 534 598 534 c 0
 654.608769288 534 682.4090471 514.550138991 698 482.876840036 c 4
 705.16599132 468.319000829 705.73220829 449.958119025 713.406451613 483 c 2
 717.819354839 502 l 2
 721.630466116 518.408951331 721.131428981 520 742 520 c 2
 868 520 l 2
 893.130249231 520 889.58330994 509.930458084 884.08 487 c 2
 820 220 l 2
 818 207 805 170 838 170 c 0
 889 170 977 241 977 405 c 0
 977 612 806 682 672 682 c 0
 478 682 270 523 270 241 c 0
 270 29 381 -109 555 -109 c 0
 634.665406773 -109 709.302968452 -104.690418491 785 -43.7203467802 c 0
 813.033139805 -21.1410922281 817.994219381 3.00578061879 848 -27 c 2
 862 -41 l 2
 892.416386531 -71.4163865306 898.049418862 -74.4757317541 865.000012194 -105.279874243 c 0
EndSplineSet
EndChar

StartChar: dollar
Encoding: 36 36 80
Width: 753
Flags: HMW
LayerCount: 2
Back
SplineSet
459 835 m 5
 529 835 l 5
 269 -85 l 5
 199 -85 l 5
 459 835 l 5
124 130 m 5
 35 176 l 5
 35 224 70 252 99 252 c 4
 126 252 156 231 156 194 c 4
 156 158 124 153 124 130 c 5
574 635 m 5
 663 579 l 5
 663 531 628 513 599 513 c 4
 572 513 542 534 542 571 c 4
 542 607 574 612 574 635 c 5
35 176 m 5
 124 130 l 5
 124 101 155 42 299 42 c 4
 435 42 509 121 509 190 c 5
 599 205 l 5
 599 65 480 -10 299 -10 c 4
 103 -10 35 86 35 176 c 5
169 565 m 5
 259 575 l 5
 259 405 599 455 599 205 c 5
 509 190 l 5
 509 390 169 325 169 565 c 5
663 579 m 5
 574 635 l 5
 574 664 543 709 449 709 c 4
 343 709 259 664 259 575 c 5
 169 565 l 5
 169 685 298 760 439 760 c 4
 565 760 663 699 663 579 c 5
EndSplineSet
Fore
SplineSet
463 835 m 2
 519 835 l 2
 545.422767474 835 549.870450509 838.080055647 543.630434783 816 c 2
 534.304347826 783 l 2
 527.705057198 759.64866393 530.578714899 762.108472495 553.999996958 756.475006581 c 0
 650.113587134 733.357030685 738 678.785135993 738 579 c 0
 738 501 688 458 629 458 c 0
 572 458 517 484 517 551 c 0
 517 597 559 602 559 625 c 0
 559 642.476108612 553.189500648 653.052249242 528 658.698043142 c 0
 502.358003984 664.445256106 499.594928236 660.182053759 493.043478261 637 c 2
 456.586956522 508 l 2
 450.048049175 484.862327849 450.867764741 485.448133242 473.999997327 478.744127532 c 0
 579.804475901 448.080687421 702 403.779299736 702 245 c 0
 702 105.628730223 510.346405052 -3.52688269307 338.000004491 -18.2962564412 c 0
 314.449602258 -20.3144285142 308.262697459 -16.8396859153 302.565217391 -37 c 2
 292.956521739 -71 l 2
 288.556125472 -86.5706329446 284.771683663 -85 265 -85 c 2
 199 -85 l 2
 175.675063783 -85 179.755765285 -82.3257536073 184.652173913 -65 c 6
 192.847826087 -36 l 2
 198.491711509 -16.0293285063 203.110483875 -13.0844817849 181 -7.99689179906 c 0
 35.139721065 25.56534495 -1.13686837722e-13 122.716917365 0 196 c 0
 0 264 40 317 109 317 c 0
 176 317 211 281 211 224 c 0
 211 158 169 170 169 140 c 0
 169 123.673668944 177.240518703 108.932053024 203 99.1653528908 c 0
 229.940281104 88.9509528411 230.517417848 97.2924016161 237.782608696 123 c 2
 277.630434783 264 l 2
 286.070718994 293.865621055 289.287884452 295.448801412 259.292661313 305 c 0
 170.008809958 333.430120059 85 379.789067967 85 508 c 0
 85 659.582462304 254.347845435 749.150220647 390.999996726 766.778329223 c 0
 419.223340795 770.419136696 420.550346659 769.716611255 427.413043478 794 c 2
 433.347826087 815 l 2
 438.614769863 833.636877975 438.77640083 835 463 835 c 2
367.329730927 648.00000215 m 0
 336.820148085 632.268902301 322 605.472055468 322 570 c 0
 322 556.457345359 326.760148077 545.382451694 335.214906357 536 c 0
 351.885826124 517.499873296 352.466117467 528.803184883 358.739130435 551 c 2
 381.913043478 633 l 2
 388.252669239 655.432521924 388.854527946 659.098440726 367.329730927 648.00000215 c 0
369.999985241 93.5632889865 m 0
 430.223338991 106.47437185 462 138.48119351 462 190 c 0
 462 218.666666455 446.416768892 237.660982568 421.586750485 252 c 0
 399.632937956 264.678045396 390.161840988 272.957283495 381.97826087 244 c 2
 343.543478261 108 l 2
 336.62600743 83.5227955226 346.558175211 88.5376779416 369.999985241 93.5632889865 c 0
EndSplineSet
EndChar

StartChar: numbersign
Encoding: 35 35 81
Width: 660
Flags: HMW
LayerCount: 2
Fore
SplineSet
317 805 m 2
 361 805 l 2
 394.624193542 805 391.604199869 803.581716196 384.465116279 778 c 2
 333.953488372 597 l 2
 324.024226816 561.420146092 314.642681584 555 363 555 c 2
 389 555 l 2
 425.724662344 555 424.372309777 559.084110036 432.162790698 587 c 2
 483.790697674 772 l 2
 491.64264325 800.136138311 489.782589842 805 527 805 c 2
 574 805 l 2
 611.605716228 805 595.312663533 788.203710995 588.279069767 763 c 2
 540.279069767 591 l 2
 531.32456344 558.913018992 524.893186985 555 568 555 c 2
 670 555 l 2
 689.388712665 555 690 555.516887786 690 536 c 2
 690 474 l 2
 690 451.18599217 691.017124497 450 668 450 c 2
 529 450 l 2
 496.75903783 450 499.27090419 444.054073349 492.558139535 420 c 2
 472.465116279 348 l 2
 463.796402704 316.937109691 459.789141373 315 501 315 c 2
 590 315 l 2
 614.460659164 315 620 319.092857487 620 293 c 6
 620 247 l 2
 620 219.094215483 625.981021631 210 596 210 c 2
 463 210 l 2
 435.178003878 210 433.841731219 209.599536869 427.813953488 188 c 2
 367.255813953 -29 l 2
 359.820827232 -55.6420357524 356.803834873 -55 323 -55 c 2
 286 -55 l 2
 252.518517948 -55 252.857602333 -55.5102583084 260.255813953 -29 c 2
 319.697674419 184 l 2
 326.267082594 207.540379296 330.51171443 210 299 210 c 2
 260 210 l 2
 225.985581334 210 225.504262126 208.390272619 218.139534884 182 c 2
 157.023255814 -37 l 2
 152.400953448 -53.5632501464 152.469970063 -55 131 -55 c 2
 77 -55 l 2
 39.7393244601 -55 46.1805565342 -50.7696724189 53.9302325581 -23 c 2
 109.465116279 176 l 2
 115.915719302 199.114660834 127.955169885 210 94 210 c 2
 -6 210 l 2
 -26.0582856598 210 -30 207.049522344 -30 228 c 2
 -30 286 l 2
 -30 305.440411251 -35.3991310395 315 -14 315 c 2
 105 315 l 2
 145.242710817 315 148.183810423 314.741987348 156.906976744 346 c 2
 177.837209302 421 l 2
 186.444961586 451.844445683 184.82449745 450 146 450 c 2
 76 450 l 2
 45.9125715103 450 40 445.574283516 40 477 c 2
 40 517 l 2
 40 549.760623239 35.8981319279 555 70 555 c 2
 177 555 l 2
 219.691112819 555 217.067709163 561.575957833 226.11627907 594 c 2
 275.790697674 772 l 2
 283.380333652 799.196195586 281.004405667 805 317 805 c 2
359 450 m 2
 320 450 l 2
 293.747610354 450 292.756401894 449.377106788 287.069767442 429 c 2
 263.348837209 344 l 2
 256.240043167 318.526821349 250.664111424 315 285 315 c 2
 331 315 l 2
 361.735354886 315 358.515886943 323.098594877 364.906976744 346 c 2
 387.790697674 428 l 2
 394.921141671 453.550757653 389.729380632 450 359 450 c 2
EndSplineSet
EndChar

StartChar: slash
Encoding: 47 47 82
Width: 520
Flags: HMW
LayerCount: 2
Fore
SplineSet
483 780 m 2
 509 780 l 2
 565.366471891 780 542.246426891 765.162915656 525.961290323 734 c 2
 80.7225806452 -118 l 2
 67.1609384395 -143.95129064 67.1697795516 -150 26 -150 c 2
 -6 -150 l 2
 -51.6717023651 -150 -50.2783768359 -150.527271807 -34.1612903226 -120 c 6
 420.937634409 742 l 2
 436.454661278 771.390702624 435.579047239 780 483 780 c 2
EndSplineSet
EndChar

StartChar: percent
Encoding: 37 37 83
Width: 1130
Flags: HMW
LayerCount: 2
Back
SplineSet
625 140 m 4
 625 78 639 40 683 40 c 4
 777 40 835 158 835 280 c 4
 835 342 821 380 777 380 c 4
 683 380 625 262 625 140 c 4
520 160 m 4
 520 323 647 430 780 430 c 4
 863 430 940 383 940 260 c 4
 940 97 793 -10 680 -10 c 4
 597 -10 520 37 520 160 c 4
776 750 m 5
 850 750 l 5
 239 0 l 5
 160 0 l 5
 776 750 l 5
175 470 m 4
 175 408 189 370 233 370 c 4
 327 370 385 488 385 610 c 4
 385 672 371 710 327 710 c 4
 233 710 175 592 175 470 c 4
70 490 m 4
 70 653 197 760 330 760 c 4
 413 760 490 713 490 590 c 4
 490 427 343 320 230 320 c 4
 147 320 70 367 70 490 c 4
EndSplineSet
Fore
SplineSet
760 140 m 0
 760 78 764 65 783 65 c 0
 817 65 860 158 860 280 c 0
 860 342 856 355 837 355 c 0
 803 355 760 242 760 140 c 0
565 160 m 0
 565 343 717 440 860 440 c 0
 943 440 1055 383 1055 260 c 0
 1055 97 893 -20 760 -20 c 0
 667 -20 565 37 565 160 c 0
848 750 m 2
 888 750 l 2
 943.950481953 750 921.999894799 740.491158636 900.553333333 715 c 2
 320.033333333 25 l 2
 307.572649913 10.1893620205 305.825517814 0 277 0 c 2
 219 0 l 2
 166.52046304 0 187.951778722 9.37709754933 207.984 33 c 6
 789.712 719 l 2
 806.692807632 739.024537302 808.744282435 750 848 750 c 2
250 470 m 0
 250 408 254 395 273 395 c 0
 307 395 350 488 350 610 c 0
 350 672 346 685 327 685 c 0
 293 685 250 572 250 470 c 0
55 490 m 0
 55 673 207 770 350 770 c 0
 433 770 545 713 545 590 c 0
 545 427 383 310 250 310 c 0
 157 310 55 367 55 490 c 0
EndSplineSet
EndChar

StartChar: hyphen
Encoding: 45 45 85
Width: 460
Flags: HMW
LayerCount: 2
Fore
SplineSet
102 445 m 2
 382 445 l 2
 408.806816381 445 410 446.023131983 410 419 c 6
 410 360 l 2
 410 336.241319119 414.409066152 330 389 330 c 2
 101 330 l 2
 68.5759502008 330 70 331.655517348 70 364 c 2
 70 420 l 2
 70 448.467311383 74.4930102433 445 102 445 c 2
EndSplineSet
EndChar

StartChar: plus
Encoding: 43 43 87
Width: 530
Flags: HMW
LayerCount: 2
Fore
SplineSet
374 373 m 2
 438 373 l 2
 467.301395868 373 470 375.309380861 470 345 c 2
 470 291 l 2
 470 264.937027543 474.880317839 258 447 258 c 2
 343 258 l 2
 309.333142774 258 309.584050375 255.894606536 303.024390244 229 c 2
 281.317073171 140 l 2
 274.352642747 111.445835262 273.912951793 110 238 110 c 2
 184 110 l 2
 147.657567508 110 158.321814856 119.51944091 164.780487805 146 c 6
 182.341463415 218 l 2
 190.931799068 253.220376179 198.073696276 258 152 258 c 2
 94 258 l 2
 60.6533463774 258 60 257.478146134 60 291 c 2
 60 345 l 2
 60 376.94988649 65.1371495389 373 96 373 c 2
 188 373 l 2
 224.904358563 373 221.778827657 379.693193395 228.682926829 408 c 2
 249.658536585 494 l 2
 255.573659493 518.252003922 255.481307454 520 286 520 c 2
 341 520 l 2
 380.799756174 520 372.449226227 513.64182753 365.219512195 484 c 2
 346.43902439 407 l 2
 338.899426083 376.08764694 333.835134429 373 374 373 c 2
EndSplineSet
EndChar

StartChar: less
Encoding: 60 60 89
Width: 560
Flags: HMW
LayerCount: 2
Back
SplineSet
55 365 m 5
 70 430 l 5
 549 600 l 5
 534 535 l 5
 55 365 l 5
50 345 m 5
 65 410 l 5
 466 240 l 5
 451 175 l 5
 50 345 l 5
EndSplineSet
Fore
SplineSet
60 353 m 1
 60 475 l 1
 550 600 l 1
 550 473 l 5
 60 353 l 1
60 295 m 1
 60 428 l 1
 450 312 l 1
 450 175 l 1
 60 295 l 1
EndSplineSet
EndChar

StartChar: backslash
Encoding: 92 92 91
Width: 520
Flags: HMW
LayerCount: 2
Fore
SplineSet
259.711827957 748 m 2
 414.109677419 -117 l 2
 420.325045121 -151.821035917 418.665300439 -150 378 -150 c 6
 318 -150 l 2
 281.365142422 -150 280.857476531 -149.176727785 275.460215054 -118 c 2
 127.270967742 738 l 2
 120.028671375 779.834382743 118.786728577 780 168 780 c 2
 206 780 l 2
 246.8680283 780 253.364748031 783.558941753 259.711827957 748 c 2
EndSplineSet
EndChar

StartChar: bracketleft
Encoding: 91 91 92
Width: 405
Flags: HMW
LayerCount: 2
Fore
SplineSet
465 741 m 2
 465 717 l 2
 465 667.472199766 473.927298903 655 421 655 c 2
 367 655 l 2
 322.727686219 655 326.480395648 647.383839761 318.870967742 612 c 6
 198.870967742 54 l 2
 187.568084673 1.44159373047 182.185393898 -25 235 -25 c 6
 262 -25 l 2
 299.75082314 -25 305 -20.779410862 305 -60 c 2
 305 -117 l 2
 305 -150.412898882 304.463235497 -150 271 -150 c 2
 -8 -150 l 2
 -66.708393128 -150 -52.2930002115 -137.412450983 -42.7419354839 -93 c 2
 136.612903226 741 l 2
 144.203716977 776.297283945 142.744162189 780 187 780 c 2
 421 780 l 2
 461.58767621 780 465 782.952053906 465 741 c 2
EndSplineSet
EndChar

StartChar: braceleft
Encoding: 123 123 93
Width: 352
VWidth: 1155
Flags: HMW
LayerCount: 2
Back
SplineSet
322 780 m 5
 322 733 l 5
 260 733 198 700 198 647 c 4
 198 581 222 571 222 471 c 4
 222 358 159 310 45 290 c 5
 45 340 l 5
 75 350 131 365 131 406 c 4
 131 469 105 494 105 601 c 4
 105 690 157 780 322 780 c 5
152 -150 m 5
 7 -150 -35 -109 -35 -10 c 4
 -35 107 85 172 85 235 c 4
 85 276 75 280 45 290 c 5
 45 340 l 5
 119 320 152 303 152 220 c 4
 152 120 58 50 58 -16 c 4
 58 -79 90 -103 152 -103 c 5
 152 -150 l 5
EndSplineSet
Fore
SplineSet
230.000003811 -149.353582356 m 4
 97.4367101408 -145.074736551 -35 -117.59538554 -35 -10 c 0
 -35 107 85 152 85 215 c 0
 85 240.608823822 81.0986802049 251.782764403 70.859254973 259 c 0
 56.4830482864 269.133036602 45 263.596663102 45 293 c 2
 45 337 l 2
 45 364.365297667 49.5399433347 360.991056453 69.9999992606 368.369001752 c 0
 98.6850265269 378.712891466 131 394.854755463 131 426 c 0
 131 489 105 494 105 601 c 0
 105 701.813911609 226.47202743 769.265787516 398.999991644 778.828674797 c 0
 422.421706445 780.126894594 442 788.664935968 442 761 c 2
 442 713 l 2
 442 680.193285394 447.361368647 674.118833064 414.000001593 672.317590553 c 0
 360.21284692 669.413521623 308 655.649167621 308 602 c 0
 308 536 322 551 322 451 c 0
 322 389.063074504 274.380492777 346.14726163 210.000002513 323.399662914 c 0
 181.01662735 313.15894892 184.636298783 307.148673128 206.521064275 292 c 0
 233.167383376 273.555371098 252 250.932406917 252 220 c 0
 252 120 178 110 178 44 c 0
 178 -7.06210105506 199.021622891 -32.5040992121 239.999979553 -40.3126628669 c 0
 263.530825132 -44.7965446163 272 -36.9002312706 272 -67 c 2
 272 -115 l 2
 272 -153.647021907 267.327594312 -150.558433259 230.000003811 -149.353582356 c 4
EndSplineSet
EndChar

StartChar: bar
Encoding: 124 124 96
Width: 300
VWidth: 1155
Flags: HMW
LayerCount: 2
Fore
SplineSet
206 780 m 2
 260 780 l 2
 309.206270823 780 292.523912484 747.915124412 282.990291262 707 c 2
 73.9805825243 -190 l 2
 64.7423752666 -229.647306148 72.451469727 -250 20 -250 c 6
 -26 -250 l 2
 -86.044803198 -250 -65.0814036346 -228.891023932 -55.0873786408 -186 c 2
 160.446601942 739 l 2
 168.002529044 771.427520482 163.852345531 780 206 780 c 2
EndSplineSet
EndChar

StartChar: cent
Encoding: 162 162 98
Width: 691
VWidth: 1155
Flags: HMW
LayerCount: 2
Fore
SplineSet
409 615 m 2
 440 615 l 2
 455.745477236 615 461.020696695 617.981962842 457.425334821 604 c 2
 447.139620536 564 l 2
 440.340387365 537.558537671 439.099743263 538.166552457 466.999995443 532.739728573 c 0
 572.532423037 512.212820969 651 449.826977232 651 367 c 0
 651 279 591 240 527 240 c 0
 469 240 425 276 425 343 c 0
 425 391 467 405 467 422 c 0
 467 434 458 443 434 443 c 0
 418.81174384 443 415.534185014 441.08997297 412.168191964 428 c 2
 335.282477679 129 l 2
 328.294006882 101.822613571 321.460178699 91.7545307877 353.999998389 102.685793825 c 0
 377.522437533 110.587803487 401.570520602 124.454348759 422 146.564453125 c 0
 437.551757812 163.396484375 436.595703125 173 472 173 c 2
 538 173 l 2
 593.983398438 173 575.60546875 162.53125 554 133.901367188 c 0
 503.28790356 66.699789344 430.420521371 3.66118036495 321 -14.6705508388 c 0
 301.339152984 -17.964424403 297.872542762 -16.4830802296 293.111049107 -35 c 2
 283.596763393 -72 l 2
 280.15242909 -85.3946334011 278.672724782 -85 262 -85 c 2
 233 -85 l 2
 208.842972795 -85 217.341841178 -76.8802530564 221.682477679 -60 c 6
 227.596763393 -37 l 2
 232.651801794 -17.341517328 230.279705576 -19.8804705041 209.000003998 -17.3588030639 c 0
 99.6665577069 -4.40267251706 10 57.2412356853 10 190 c 0
 10 377.294656985 166.979816194 520.740203301 351.999993557 538.20959753 c 0
 375.636996519 540.441376404 376.131302219 540.634317658 381.368191964 561 c 2
 392.425334821 604 l 2
 395.153555387 614.609746646 395.50956985 615 409 615 c 2
272.339620536 137 m 2
 335.85390625 384 l 2
 339.281633493 397.330050388 333.398654884 399.355816431 319.00000167 385.552774535 c 0
 272.958695818 341.416002563 235 273.863189836 235 190 c 0
 235 161.547807169 239.139292139 140.782871167 246.451600863 125.999999841 c 0
 261.386917224 95.8061351784 265.318288436 109.694819613 272.339620536 137 c 2
EndSplineSet
EndChar

StartChar: sterling
Encoding: 163 163 99
Width: 650
VWidth: 1155
Flags: HMW
LayerCount: 2
Fore
SplineSet
472.88433254 367 m 2
 459.493996263 309 l 2
 453.750072016 284.120295753 455.651116142 280 424 280 c 2
 333 280 l 2
 305.27651476 280 306.664263522 274.922845477 296.123535178 259 c 0
 283.738797562 240.291590402 269.347267289 223.185735191 251.000002144 210.61455668 c 0
 234.644993603 199.408432481 230.263671875 185.896484375 258 198.107421875 c 0
 271.5 204.05078125 287.082784119 207 297.9453125 207 c 0
 357.9453125 207 357.787109375 163 403.787109375 163 c 0
 431.977474798 163 464.60405874 179.054478842 480.999999472 216.150561874 c 0
 487.653807418 231.204910757 483.841706717 237 507 237 c 2
 549 237 l 2
 571.707034636 237 575.836013599 239.569341785 570.665105658 220.00000457 c 0
 534.159731859 81.8451625015 444.859585295 -40 320.920898438 -40 c 0
 203.920898438 -40 183.927734375 25 110.927734375 25 c 0
 77.7903695587 25 43.0441629093 15.2015025553 22.0000008494 -4.39549233416 c 0
 10.9955475609 -14.6431902107 12.6662598888 -20 -10 -20 c 2
 -50 -20 l 2
 -72.1155518556 -20 -70.0650898 -16.5878521441 -66.0656452931 2 c 4
 -39.0869586669 127.38637233 108.434895545 200.457324152 122.412109375 261 c 0
 127.67120282 283.779322936 120.002518563 280 96 280 c 2
 -27 280 l 2
 -67.0731060515 280 -54.4118363378 292.081956555 -47.7355893342 321 c 2
 -37.1156674592 367 l 2
 -31.4765415492 391.42577214 -33.0597276347 395 -2 395 c 2
 62 395 l 2
 96.6678718603 395 97.4084347318 399.038659863 84.823510141 428 c 0
 69.0040069806 464.404986658 57.1706891842 502.51353067 68.1337890625 550 c 0
 100.455078125 690 255.079101562 775 456.079101562 775 c 0
 638.079101562 775 698.530273438 673 677.290039062 581 c 0
 659.282226562 503 593.201171875 455 534.201171875 455 c 0
 477.201171875 455 427.666992188 496 443.134765625 563 c 0
 453.754882812 609 494.217773438 624 499.52734375 647 c 0
 505.760742188 674 478.838867188 683 434.838867188 683 c 0
 355.838867188 683 318.526367188 634 301.442382812 560 c 0
 289.011692655 506.157930126 301.314116842 462.076696913 312.33849594 421 c 0
 318.54269227 397.883243044 317.001871762 395 347 395 c 2
 437 395 l 2
 474.356431678 395 480.337710157 399.284170675 472.88433254 367 c 2
EndSplineSet
EndChar

StartChar: section
Encoding: 167 167 101
Width: 594
VWidth: 1155
Flags: HMW
LayerCount: 2
Fore
SplineSet
442.3359375 658 m 0
 448.337890625 684 418.646484375 694 366.646484375 694 c 0
 323.646484375 694 293.336914062 671 284.794921875 634 c 0
 258.013671875 518 605.631835938 538 568 375 c 0
 560.048802089 340.558823201 533.301988711 308.311053686 498.040675387 280.000003642 c 0
 472.611178792 259.582847194 462.963804574 263.511720015 487.265067201 240 c 0
 511.721480818 216.338169816 524.235407238 185.433885935 514.208007812 142 c 0
 485.580078125 18 296.806640625 -20 201.806640625 -20 c 0
 93.806640625 -20 -77.1142578125 2 -48.0244140625 128 c 0
 -30.0166015625 206 42.6015625 239 81.6015625 239 c 0
 128.6015625 239 167.982421875 193 157.130859375 146 c 0
 148.8203125 110 115.666015625 105 110.35546875 82 c 0
 104.353515625 56 156.353515625 56 208.353515625 56 c 0
 271.353515625 56 299.354492188 69 310.205078125 116 c 0
 336.986328125 232 -10.6318359375 212 27 375 c 0
 36.4442627082 415.908677572 69.6520328494 442.290272673 107.999998398 464.049514183 c 0
 150.538854755 488.18673335 135.078108617 481.131452538 106.298183521 510 c 4
 82.7089918162 533.661830184 70.7645927614 564.566114065 80.7919921875 608 c 0
 104.802734375 712 278.193359375 770 373.193359375 770 c 0
 501.193359375 770 637.49609375 728 610.715820312 612 c 0
 595.016601562 544 523.552734375 516 484.552734375 516 c 0
 447.552734375 516 394.708984375 547 405.560546875 594 c 0
 413.87109375 630 437.025390625 635 442.3359375 658 c 0
352.303710938 333 m 0
 363.262737387 380.469651716 325.110710936 405.74833764 274.000001804 427.345095912 c 0
 251.603537686 436.808690331 239.378312931 445.944130463 232.696289062 417 c 0
 222.015043764 370.733573273 259.234097257 345.547409871 309.999998159 324.30455734 c 0
 331.920287218 315.132072274 345.698574709 304.388919213 352.303710938 333 c 0
EndSplineSet
EndChar

StartChar: brokenbar
Encoding: 166 166 102
Width: 300
VWidth: 1155
Flags: HMW
LayerCount: 2
Fore
SplineSet
68 166 m 6
 108 166 l 2
 153.031257905 166 145.817655766 160.929327823 137.673076923 126 c 2
 56.9951923077 -220 l 2
 51.2089895337 -244.815055195 53.6641142139 -250 22 -250 c 2
 -32 -250 l 2
 -67.2791727523 -250 -58.1798223676 -242.19387737 -52.0721153846 -216 c 2
 30.4711538462 138 l 2
 36.4085037055 163.463273623 35.5899449427 166 68 166 c 6
214 780 m 2
 254 780 l 2
 297.603586709 780 288.28822064 772.700362405 280.619921401 740 c 2
 209.331324049 436 l 2
 202.802515697 408.158833072 199.97108817 409.000976562 166 409.000976562 c 2
 120 409.000976562 l 2
 81.8403100577 409.000976562 96.7703236114 425.078980905 103.083355488 452 c 2
 172.026933191 746 l 2
 178.879929333 775.223619266 176.714201205 780 214 780 c 2
EndSplineSet
EndChar

StartChar: asciitilde
Encoding: 126 126 104
Width: 688
VWidth: 1155
Flags: HMW
LayerCount: 2
Back
SplineSet
243 437 m 4
 180 437 137 385 137 343 c 5
 80 343 l 5
 90 438 170 510 269 510 c 4
 369 510 369 416 445 416 c 4
 508 416 551 468 551 510 c 5
 608 510 l 5
 598 415 518 343 419 343 c 4
 302 343 306 437 243 437 c 4
EndSplineSet
Fore
SplineSet
243 407 m 0
 211.693813376 407 185.688207178 395.33872306 170.000001131 372.7879876 c 0
 154.608871364 350.664279208 161.933992177 343 122 343 c 6
 86 343 l 2
 50.225777447 343 60.5361770502 358.995895558 68.9999982039 384.880130034 c 0
 94.6495560031 463.322142953 167.691971345 530 269 530 c 0
 389 530 369 446 445 446 c 0
 478.394295914 446 505.757337097 459.268760406 520.999998976 484.869492821 c 0
 530.471496582 500.777296703 524.797152384 510 552 510 c 2
 601 510 l 2
 634.657533263 510 628.352720944 500.673478705 621.678138858 474.000002746 c 0
 601.419143812 393.039455653 540.280859931 323 419 323 c 0
 302 323 326 407 243 407 c 0
EndSplineSet
EndChar

StartChar: copyright
Encoding: 169 169 105
Width: 870
Flags: HMW
LayerCount: 2
Back
SplineSet
27 375 m 4
 76.1748046875 588 293.883789062 760 510.883789062 760 c 4
 727.883789062 760 866.174804688 588 817 375 c 4
 767.825195312 162 550.116210938 -10 333.116210938 -10 c 4
 116.116210938 -10 -22.1748046875 162 27 375 c 4
87 375 m 4
 44.2890625 190 159.428710938 39 344.428710938 39 c 4
 529.428710938 39 714.2890625 190 757 375 c 4
 799.7109375 560 684.571289062 711 499.571289062 711 c 4
 314.571289062 711 129.7109375 560 87 375 c 4
EndSplineSet
Fore
SplineSet
20 285 m 0
 20 538 248 760 515 760 c 0
 692 760 830 638 830 465 c 0
 830 202 602 -10 335 -10 c 0
 158 -10 20 112 20 285 c 0
75 285 m 0
 75 140 200 39 335 39 c 0
 570 39 775 220 775 465 c 0
 775 610 660 711 515 711 c 0
 280 711 75 520 75 285 c 0
EndSplineSet
Refer: 14 67 S 0.6 0 0 0.6 162 150 2
EndChar

StartChar: registered
Encoding: 174 174 106
Width: 870
Flags: HMW
LayerCount: 2
Fore
SplineSet
20 285 m 0
 20 538 248 760 515 760 c 0
 692 760 830 638 830 465 c 0
 830 202 602 -10 335 -10 c 0
 158 -10 20 112 20 285 c 0
75 285 m 0
 75 140 200 39 335 39 c 0
 570 39 775 220 775 465 c 0
 775 610 660 711 515 711 c 0
 280 711 75 520 75 285 c 0
EndSplineSet
Refer: 29 82 S 0.6 0 0 0.6 168 148 2
EndChar

StartChar: guillemotleft
Encoding: 171 171 108
Width: 695
Flags: HMW
LayerCount: 2
Fore
SplineSet
505.017613886 368 m 2
 608.543917803 225 l 2
 619.002566779 210.553557435 619.357744683 209.950944179 607.325585937 197 c 6
 573.879552284 161 l 2
 556.425434066 142.213071112 554.767133065 148.528086521 536 164.116510196 c 2
 295 364.296798403 l 2
 283.74251125 373.647534263 282.047315134 374.710028331 286.038867188 392 c 0
 288.134326239 401.076776938 291.230117035 402.007849123 298 406.072257031 c 2
 647 615.600009177 l 2
 668.421290308 628.460624668 669.716671145 632.081834441 683.173452524 610 c 2
 698.408578726 585 l 2
 712.295538287 562.212266941 706.719629576 561.867601188 687 545.935451106 c 2
 512 404.547082042 l 2
 492.666129122 388.92659935 489.872674821 388.919575069 505.017613886 368 c 2
226.465534221 366 m 2
 326.372037301 228 l 2
 340.340644177 208.705282546 337.42944512 207.875398092 321.751246995 191 c 2
 293.879552284 161 l 2
 275.792360439 141.531655467 273.368745905 149.689619902 254 165.777757401 c 2
 24 356.82118598 l 2
 10.0417141657 368.415267645 0.99262966508 370.141509209 6.0388671875 392 c 0
 9.29191402158 406.091031972 27.1763462177 411.581423782 38 418.079578072 c 2
 361 611.997812865 l 2
 382.569357989 624.947323165 387.85716779 635.133176664 401.954642428 612 c 2
 413.533338341 593 l 2
 432.85783469 561.289569623 425.455975875 560.846652983 398 538.664049269 c 2
 233 405.35501558 l 2
 211.937758808 388.338124546 210.36101501 388.245034933 226.465534221 366 c 2
EndSplineSet
EndChar

StartChar: mu
Encoding: 181 181 111
Width: 884
VWidth: 1155
Flags: HMW
LayerCount: 2
Fore
SplineSet
214 -83 m 0
 257 -83 285 -107 285 -161 c 0
 285 -236 202 -260 154 -260 c 1
 130 -122 l 1
 150 -122 169 -83 214 -83 c 0
38 -102 m 1
 178 321 l 5
 238 321 l 5
 103 -79 l 1
 38 -102 l 1
38 -102 m 1
 103 -79 l 1
 93 -116 117 -122 130 -122 c 1
 154 -260 l 1
 52 -260 18 -191 38 -102 c 1
EndSplineSet
Refer: 58 117 N 1 0 0 1 0 0 2
EndChar

StartChar: asciicircum
Encoding: 94 94 113
Width: 545
Flags: HMW
LayerCount: 2
Back
SplineSet
329 770 m 5
 323 743 l 5
 258 743 l 5
 264 770 l 5
 329 770 l 5
250 750 m 5
 329 770 l 5
 475 580 l 5
 436 560 l 5
 250 750 l 5
264 770 m 5
 335 750 l 5
 61 560 l 5
 30 580 l 5
 264 770 l 5
EndSplineSet
Fore
SplineSet
331 636.114285714 m 2
 212 577.889285714 l 2
 183.562433255 563.975190557 162.737509192 544.372720588 137 563.090909091 c 2
 120 575.454545455 l 2
 93.6193326345 594.640485357 108.543674004 596.990278731 131 615.363636364 c 2
 287 743 l 2
 306.190306354 758.701159744 312.265756546 770 349 770 c 2
 387 770 l 2
 432.638517858 770 434.178052439 758.199646864 453 734 c 2
 554.111111111 604 l 2
 566.411827854 588.184792759 562.722193902 588.343413747 547 576.909090909 c 6
 531 565.272727273 l 2
 508.877534144 549.183661196 506.903990058 552.213647109 485 567.875 c 2
 401 627.935 l 2
 370.793321772 649.532774933 366.523780155 653.495563862 331 636.114285714 c 2
EndSplineSet
EndChar

StartChar: degree
Encoding: 176 176 115
Width: 320
Flags: HMW
LayerCount: 2
Fore
SplineSet
105 680 m 0
 105 650 130 625 160 625 c 0
 190 625 215 650 215 680 c 0
 215 710 190 735 160 735 c 0
 130 735 105 710 105 680 c 0
40 680 m 0
 40 746 94 800 160 800 c 0
 226 800 280 746 280 680 c 0
 280 614 226 560 160 560 c 0
 94 560 40 614 40 680 c 0
EndSplineSet
EndChar

StartChar: onequarter
Encoding: 188 188 119
Width: 1000
Flags: HMW
LayerCount: 2
Fore
SplineSet
680 750 m 6
 732 750 l 6
 780.883648324 750 754.950099724 732.09637718 740.862666667 707 c 6
 373.189333333 52 l 6
 355.868792407 21.1439294663 347.149090056 -5.03931014255e-15 306 0 c 6
 282 0 l 6
 224.119140625 0 250.675070802 27.5969556371 266.808 56 c 6
 642.256 717 l 6
 651.781924002 733.770992961 652.287542938 750 680 750 c 6
EndSplineSet
Refer: 6 52 N 0.6 0 0 0.6 535 32 2
Refer: 3 49 N 0.6 0 0 0.6 107 456 2
EndChar

StartChar: onehalf
Encoding: 189 189 120
Width: 1000
Flags: HMW
LayerCount: 2
Fore
SplineSet
680 750 m 6
 732 750 l 6
 780.883648324 750 754.950099724 732.09637718 740.862666667 707 c 6
 373.189333333 52 l 6
 355.868792407 21.1439294663 347.149090056 -5.03931014255e-15 306 0 c 6
 282 0 l 6
 224.119140625 0 250.675070802 27.5969556371 266.808 56 c 6
 642.256 717 l 6
 651.781924002 733.770992961 652.287542938 750 680 750 c 6
EndSplineSet
Refer: 4 50 N 0.6 0 0 0.6 576 17 2
Refer: 3 49 N 0.6 0 0 0.6 107 456 2
EndChar

StartChar: threequarters
Encoding: 190 190 121
Width: 1000
Flags: HMW
LayerCount: 2
Fore
SplineSet
680 750 m 6
 732 750 l 6
 780.883648324 750 754.950099724 732.09637718 740.862666667 707 c 6
 373.189333333 52 l 6
 355.868792407 21.1439294663 347.149090056 -5.03931014255e-15 306 0 c 6
 282 0 l 6
 224.119140625 0 250.675070802 27.5969556371 266.808 56 c 6
 642.256 717 l 6
 651.781924002 733.770992961 652.287542938 750 680 750 c 6
EndSplineSet
Refer: 6 52 N 0.6 0 0 0.6 535 32 2
Refer: 5 51 N 0.6 0 0 0.6 65 457 2
EndChar

StartChar: grave
Encoding: 96 96 123
Width: 395
Flags: HMW
LayerCount: 2
Fore
SplineSet
220 670 m 2
 171.252370331 666.433100268 125 706 125 755 c 0
 125 804 179.624136119 861.781499192 230 838 c 2
 404 755.85786802 l 2
 421.704007 747.500138828 427.117793559 748.533806773 426.233333333 722 c 2
 425.7 706 l 2
 424.994970665 684.849119963 424.385733537 684.955053673 404 683.463414634 c 6
 220 670 l 2
EndSplineSet
EndChar

StartChar: acute
Encoding: 180 180 124
Width: 395
Flags: HMW
LayerCount: 2
Fore
SplineSet
255 685 m 2
 82 697.658536585 l 2
 60.0203502244 699.266803642 50.1907083134 694.278750599 49.3666666667 719 c 2
 48.8666666667 734 l 2
 47.8696687541 763.909937378 53.9563696025 762.811890218 74 772.274111675 c 6
 245 853 l 2
 295.375976562 876.78125 350 819 350 770 c 0
 350 721 303.748046875 681.432617188 255 685 c 2
EndSplineSet
EndChar

StartChar: multiply
Encoding: 215 215 127
Width: 530
Flags: HMW
LayerCount: 2
Fore
SplineSet
326 428.713086021 m 6
 386 479.887472856 l 2
 408.98656134 499.492859223 411.399687896 508.513356761 434 485.913292944 c 2
 468 451.913666468 l 2
 498.752048402 421.161955907 508.817870407 419.932769599 474 390.236468766 c 2
 410 335.650612966 l 2
 387.08927442 316.109963548 371.859194 313.453373614 392.922754062 288 c 2
 427.679228232 246 l 2
 448.289126319 221.094835127 458.129554032 218.215446342 434 194.086159522 c 2
 390 150.086646782 l 2
 360.452410724 120.539384718 359.286099638 133.900302922 334.377645217 164 c 2
 301.276375983 204 l 2
 281.61997895 227.753043298 281.381921473 225.95173972 258 206.009205441 c 2
 196 153.129157635 l 2
 163.048956497 125.02508093 162.506366765 127.579570735 132 158.0859375 c 2
 96 194.0859375 l 2
 75.0132018562 215.072735644 75.2954941903 214.885596662 98 234.250416049 c 2
 170 295.659680251 l 2
 204.519134586 325.101272692 200.43006805 325.863977144 172.181425971 360 c 2
 139.080156738 400 l 2
 122.439293681 420.109033208 132.686164587 422.600227087 150 439.9140625 c 2
 184 473.9140625 l 2
 198.704288315 488.618350815 208.743642249 510.563504518 224.105593804 492 c 2
 267.137418968 440 l 2
 293.394491653 408.270744398 293.46314434 400.962192055 326 428.713086021 c 6
EndSplineSet
EndChar

StartChar: cedilla
Encoding: 184 184 128
Width: 550
Flags: HMW
LayerCount: 2
Fore
SplineSet
146.000000874 -199.69896921 m 0
 220.964661011 -197.885496316 249 -170.348473929 249 -150 c 0
 249 -121.955296913 215.540269848 -104.936842999 130 -100.303187746 c 0
 62.1061159714 -96.625424594 85.7327497019 -87.8973100385 113.937779018 -52 c 2
 187 40.98828125 l 1
 297 40.98828125 l 1
 239.652064732 -32 l 2
 216.373546028 -61.627205624 209.646622622 -61.1361130989 254.999995338 -70.0086723663 c 0
 319.919987525 -82.7090834676 360 -106.998018639 360 -140 c 0
 360 -185.85471883 302.807777501 -240.120058615 146 -241.089353899 c 0
 122.044728171 -241.237431579 101 -248.839309234 101 -220 c 4
 101 -188.366564797 121.602234772 -200.289176481 146.000000874 -199.69896921 c 0
EndSplineSet
EndChar

StartChar: AE
Encoding: 198 198 526
Width: 1197
Flags: HMW
LayerCount: 2
Fore
SplineSet
300 335 m 1
 640 335 l 1
 640 200 l 1
 250 200 l 1
 300 335 l 1
-70 145 m 1
 300 145 l 1
 300 0 l 1
 -70 0 l 1
 -70 145 l 1
696 690 m 5
 855 690 l 5
 119 40 l 1
 -45 40 l 1
 696 690 l 5
EndSplineSet
Refer: 16 69 N 1 0 0 1 460 0 2
EndChar

StartChar: ae
Encoding: 230 230 529
Width: 1020
VWidth: 1155
Flags: HMW
LayerCount: 2
Back
SplineSet
361 250 m 5
 462 270 l 5
 462 146 497 39 606 39 c 4
 689 39 743 93 768 173 c 5
 819 173 l 5
 793 66 725 -10 594 -10 c 4
 443 -10 361 110 361 250 c 5
438 304 m 5
 762 304 l 5
 762 261 l 5
 438 261 l 5
 438 304 l 5
807 261 m 5
 762 261 l 5
 762 290 l 5
 807 290 l 5
 807 261 l 5
818 261 m 5
 726 261 l 5
 726 364 700 486 601 486 c 4
 492 486 462 374 462 270 c 5
 361 250 l 5
 361 410 440 530 601 530 c 4
 770 530 818 400 818 261 c 5
299 299 m 5
 299 261 l 5
 183 261 142 215 142 138 c 4
 142 71 190 46 240 46 c 4
 308 46 361 79 361 250 c 5
 395 179 l 5
 395 55 326 -10 195 -10 c 4
 106 -10 40 39 40 123 c 4
 40 217 127 299 299 299 c 5
451 367 m 5
 451 271 l 5
 361 273 l 5
 361 377 l 5
 451 367 l 5
70 403 m 5
 70 480 162 530 283 530 c 4
 423 530 451 448 451 367 c 5
 361 367 l 5
 361 434 338 484 258 484 c 4
 204 484 156 465 156 445 c 5
 70 403 l 5
299 299 m 5
 413 299 l 5
 413 261 l 5
 299 261 l 5
 299 299 l 5
184 393 m 4
 184 359 163 340 129 340 c 4
 98 340 70 359 70 403 c 5
 156 445 l 5
 156 427 184 432 184 393 c 4
EndSplineSet
Fore
SplineSet
423 320 m 0
 423 375 412 425 384 425 c 0
 321 425 255 304 255 180 c 0
 255 116 269 94 299 94 c 0
 340 94 423 186 423 320 c 0
681.073170732 483 m 2
 592 151 l 2
 590.599609375 145.094726562 589 136 589 131 c 0
 589 120 593 117 603 117 c 0
 623.220558043 117 470.274752382 143.414393618 496 193 c 0
 507.80078125 215.74609375 614.364257812 159.126953125 611 151 c 2
 645 47 l 2
 645.440839804 45.6515488346 564.456686907 173.693532868 550 145 c 0
 497.340820313 40.482421875 747.028320312 -20 635 -20 c 0
 578.6015625 -20 480.69140625 -5.8681640625 422 30 c 0
 394.340854763 46.9033734679 376.98046875 60.28515625 354 37.0595703125 c 0
 316.577532483 -0.762057468954 266.458315861 -20 202 -20 c 0
 103 -20 10 20 10 170 c 0
 10 390 163 539 302 539 c 0
 366.825077593 539 416.891601562 519.559570312 438 479.083984375 c 0
 453.569932252 449.228468203 459.855087603 438.435103086 464.744084285 483 c 0
 467.593901809 508.977073097 465.869294066 520 500 520 c 2
 648 520 l 2
 693.590768263 520 690.721856469 518.963283203 681.073170732 483 c 2
819 404 m 0
 819 423 811 442 782 442 c 0
 731.701171875 442 665.991210938 405.864257812 634.067382812 315 c 0
 623.8515625 285.920898438 621.88671875 281.026367188 657 287.047851562 c 0
 746.206054688 302.344726562 819 336.14453125 819 404 c 0
615.543945312 173 m 0
 619.615234375 112.575195312 646.1640625 94 682 94 c 0
 719.923828125 94 771.0703125 108.778320312 808 153.427734375 c 0
 818.80078125 166.487304688 818.202148438 173 844 173 c 2
 923 173 l 2
 960.3203125 173 956.584960938 165.276367188 943 146.185546875 c 0
 882.926757812 61.765625 789.625976562 -20 635 -20 c 0
 506 -20 460 55 460 206 c 4
 460 386 566 540 797 540 c 0
 939 540 1020 485 1020 403 c 0
 1020 260.092773438 794.84375 212.791992188 636 198.124023438 c 0
 615.181640625 196.201171875 614.04296875 195.272460938 615.543945312 173 c 0
EndSplineSet
EndChar

StartChar: perthousand
Encoding: 8240 8240 537
Width: 1660
Flags: HMW
LayerCount: 2
Fore
SplineSet
1290 140 m 0
 1290 78 1294 65 1313 65 c 0
 1347 65 1390 158 1390 280 c 0
 1390 342 1386 355 1367 355 c 0
 1333 355 1290 242 1290 140 c 0
1095 160 m 0
 1095 343 1247 440 1390 440 c 0
 1473 440 1585 383 1585 260 c 0
 1585 97 1423 -20 1290 -20 c 0
 1197 -20 1095 37 1095 160 c 0
760 140 m 0
 760 78 764 65 783 65 c 0
 817 65 860 158 860 280 c 0
 860 342 856 355 837 355 c 0
 803 355 760 242 760 140 c 0
565 160 m 0
 565 343 717 440 860 440 c 0
 943 440 1055 383 1055 260 c 0
 1055 97 893 -20 760 -20 c 0
 667 -20 565 37 565 160 c 0
845 750 m 6
 893 750 l 6
 932.880654423 750 908.78635914 724.78568836 889.616 702 c 6
 331.812 39 l 6
 311.800084859 15.2140469796 309.158236627 0 263 0 c 6
 224 0 l 6
 151.451680387 0 207.932332304 32.9390711133 230.88 60 c 6
 785.472 714 l 6
 802.655603831 734.263683762 805.669249783 750 845 750 c 6
250 470 m 0
 250 408 254 395 273 395 c 0
 307 395 350 488 350 610 c 0
 350 672 346 685 327 685 c 0
 293 685 250 572 250 470 c 0
55 490 m 0
 55 673 207 770 350 770 c 0
 433 770 545 713 545 590 c 0
 545 427 383 310 250 310 c 0
 157 310 55 367 55 490 c 0
EndSplineSet
EndChar

StartChar: uni2031
Encoding: 8241 8241 538
Width: 2190
Flags: HMW
LayerCount: 2
Fore
SplineSet
845 750 m 6
 893 750 l 6
 932.880654423 750 908.78635914 724.78568836 889.616 702 c 6
 331.812 39 l 6
 311.800084859 15.2140469796 309.158236627 0 263 0 c 6
 224 0 l 6
 151.451680387 0 207.932332304 32.9390711133 230.88 60 c 6
 785.472 714 l 6
 802.655603831 734.263683762 805.669249783 750 845 750 c 6
1820 140 m 0
 1820 78 1824 65 1843 65 c 0
 1877 65 1920 158 1920 280 c 0
 1920 342 1916 355 1897 355 c 0
 1863 355 1820 242 1820 140 c 0
1625 160 m 0
 1625 343 1777 440 1920 440 c 0
 2003 440 2115 383 2115 260 c 0
 2115 97 1953 -20 1820 -20 c 0
 1727 -20 1625 37 1625 160 c 0
1290 140 m 0
 1290 78 1294 65 1313 65 c 0
 1347 65 1390 158 1390 280 c 0
 1390 342 1386 355 1367 355 c 0
 1333 355 1290 242 1290 140 c 0
1095 160 m 0
 1095 343 1247 440 1390 440 c 0
 1473 440 1585 383 1585 260 c 0
 1585 97 1423 -20 1290 -20 c 0
 1197 -20 1095 37 1095 160 c 0
760 140 m 0
 760 78 764 65 783 65 c 0
 817 65 860 158 860 280 c 0
 860 342 856 355 837 355 c 0
 803 355 760 242 760 140 c 0
565 160 m 0
 565 343 717 440 860 440 c 0
 943 440 1055 383 1055 260 c 0
 1055 97 893 -20 760 -20 c 0
 667 -20 565 37 565 160 c 0
250 470 m 0
 250 408 254 395 273 395 c 0
 307 395 350 488 350 610 c 0
 350 672 346 685 327 685 c 0
 293 685 250 572 250 470 c 0
55 490 m 0
 55 673 207 770 350 770 c 0
 433 770 545 713 545 590 c 0
 545 427 383 310 250 310 c 0
 157 310 55 367 55 490 c 0
EndSplineSet
EndChar

StartChar: uniFB00
Encoding: 64256 64256 542
Width: 910
VWidth: 1155
Flags: HMW
LayerCount: 2
Back
SplineSet
896 710 m 5
 1080 664 l 5
 1080 586 1021 547 967 547 c 4
 919 547 872 578 872 635 c 4
 872 671 896 698 896 710 c 5
565 572 m 5
 735 550 l 5
 605 -100 l 5
 435 -100 l 5
 565 572 l 5
1080 664 m 5
 896 710 l 5
 896 716 881 720 864 720 c 4
 804 720 765 677 735 550 c 5
 565 572 l 5
 595 703 702 800 862 800 c 4
 1003 800 1080 731 1080 664 c 5
486 680 m 5
 670 654 l 5
 670 576 611 537 557 537 c 4
 509 537 462 558 462 615 c 4
 462 651 486 668 486 680 c 5
135 542 m 5
 305 520 l 5
 170 -150 l 5
 0 -150 l 5
 135 542 l 5
670 654 m 5
 486 680 l 5
 486 686 461 690 444 690 c 4
 384 690 335 647 305 520 c 5
 135 542 l 5
 165 673 282 770 442 770 c 4
 583 770 670 721 670 654 c 5
45 520 m 5
 855 520 l 5
 855 435 l 5
 45 435 l 5
 45 520 l 5
EndSplineSet
Fore
SplineSet
556.8125 530 m 0
 558.979634373 541.116903043 549.40777735 537.771942427 539.00000159 539.080638797 c 0
 496.429697035 544.43352152 462 561.81400156 462 610 c 0
 462 656 490 658 490 670 c 0
 490 676 481 680 469 680 c 0
 432.836219116 680 381.142087038 653.026232138 349.389364879 554 c 0
 341.611140751 529.742293077 332.313206808 520 368 520 c 2
 532 520 l 2
 546.760706471 520 554.238470938 516.795820386 556.8125 530 c 0
496 415 m 2
 350 415 l 2
 323.420473658 415 319.968864652 416.762610129 315.552238806 394 c 2
 217.373134328 -112 l 2
 210.047366919 -149.755878184 208.409841525 -150 163 -150 c 2
 39 -150 l 2
 -9.59225873108 -150 2.05698250976 -139.456060024 9.36416184971 -102 c 2
 102.225433526 374 l 2
 107.709436486 402.11059295 120.022332917 415 82 415 c 2
 46 415 l 2
 19.6362670196 415 25 423.346945897 25 448 c 2
 25 498 l 2
 25 521.660484194 26.9641105038 520 50 520 c 2
 106 520 l 2
 131.017432802 520 130.931325267 521.144274701 135 542 c 0
 177 723 322 770 472 770 c 0
 543.586988132 770 606.51386268 752.381148224 648.8678951 722.202274602 c 1
 714.900216621 781.328701625 807.456954142 800 902 800 c 0
 1033 800 1135 741 1135 654 c 0
 1135 581 1071 537 1007 537 c 0
 949 537 892 568 892 630 c 0
 892 676 920 688 920 700 c 0
 920 706 911 710 899 710 c 0
 859 710 794.849572057 678.192236801 770 550 c 0
 764.674829142 522.528880496 760.838111717 520 795 520 c 2
 868 520 l 2
 891.718823581 520 895 522.64065519 895 498 c 2
 895 449 l 2
 895 424.167902868 900.76467885 415 874 415 c 2
 783 415 l 2
 740.748979839 415 742.95237815 410.468617441 736.270769231 376 c 2
 650.590769231 -66 l 2
 644.288487692 -98.511769844 644.16108733 -100 605 -100 c 6
 469 -100 l 2
 434.615895119 -100 433.767457106 -101.192891794 439.458333333 -72 c 2
 526.011904762 372 l 2
 533.035593053 408.029912457 541.605994538 415 496 415 c 2
EndSplineSet
LCarets2: 1 0
Ligature2: "Not your mama's contextual ligatures" f f
EndChar

StartChar: uniFB01
Encoding: 64257 64257 543
Width: 856
VWidth: 1155
Flags: HMW
LayerCount: 2
Back
SplineSet
521 705 m 5
 700 674 l 5
 700 596 641 567 587 567 c 4
 539 567 492 588 492 645 c 4
 492 681 521 693 521 705 c 5
145 572 m 5
 315 550 l 5
 170 -150 l 5
 0 -150 l 5
 145 572 l 5
700 674 m 5
 521 705 l 5
 521 716 481 720 464 720 c 4
 404 720 345 677 315 550 c 5
 145 572 l 5
 175 703 282 800 462 800 c 4
 603 800 700 751 700 674 c 5
45 520 m 5
 535 520 l 5
 535 435 l 5
 45 435 l 5
 45 520 l 5
703 520 m 5
 614 134 l 6
 612.599609375 128.094726562 611 119 611 114 c 4
 611 103 615 100 625 100 c 4
 651 100 677 130 713 191 c 5
 786 168 l 5
 730 38 634 -20 543 -20 c 4
 476 -20 437 5 437 65 c 4
 437 84 441.448242188 104.684570312 445 120 c 6
 535.076171875 520 l 5
 703 520 l 5
EndSplineSet
Fore
SplineSet
740.867208672 492 m 2
 654 151 l 2
 652.599609375 145.094726562 651 136 651 131 c 0
 651 120 655 117 665 117 c 0
 683.953860863 117 705.624159092 136.694170902 729.451253645 180 c 0
 741.597223303 202.075343056 739.706011088 213.5015552 766 201.076923077 c 2
 810 180.285714286 l 2
 839.142811342 166.5149353 834.787759672 162.231082008 820.000007008 134.356792105 c 0
 767.022072539 34.4956206708 682.236163805 -25 573 -25 c 0
 491 -25 440 17 440 77 c 0
 440 96 446.448242188 124.684570312 450 140 c 2
 501.045703125 368 l 2
 508.702779496 402.200986678 522.457043865 415 476 415 c 2
 364 415 l 2
 317.66542148 415 321.502566931 407.512834653 314 370 c 2
 218 -110 l 2
 209.879283717 -150.603581417 207.046500269 -150 158 -150 c 2
 48 -150 l 2
 -13.2430232443 -150 3.08161257357 -134.655694634 12.4515235457 -88 c 6
 104.432132964 370 l 2
 110.088605155 398.165330496 124.801079389 415 86 415 c 2
 56 415 l 2
 27.689393624 415 25 412.707498884 25 442 c 2
 25 498 l 2
 25 522.558576064 28.2043537247 520 52 520 c 2
 90 520 l 2
 142.128108564 520 136.692267841 530.633223321 145 572 c 0
 182 754 342 800 492 800 c 0
 623 800 735 771 735 664 c 0
 735 591 671 557 607 557 c 0
 549 557 492 578 492 640 c 0
 492 686 520 688 520 700 c 0
 520 706 511 710 499 710 c 0
 459 710 380 677 350 550 c 1
 343.002682543 515.013412717 350.245995659 520 390 520 c 2
 714 520 l 2
 748.961722598 520 748.020657006 520.081089736 740.867208672 492 c 2
EndSplineSet
LCarets2: 1 0
Ligature2: "Not your mama's contextual ligatures" f i
EndChar

StartChar: uniFB02
Encoding: 64258 64258 544
Width: 885
VWidth: 1155
Flags: HMW
LayerCount: 2
Back
SplineSet
476 710 m 5
 660 664 l 5
 660 586 601 547 547 547 c 4
 499 547 452 578 452 635 c 4
 452 671 476 698 476 710 c 5
145 572 m 5
 315 550 l 5
 170 -150 l 5
 0 -150 l 5
 145 572 l 5
660 664 m 5
 476 710 l 5
 476 716 461 720 444 720 c 4
 384 720 345 677 315 550 c 5
 145 572 l 5
 175 703 282 800 442 800 c 4
 583 800 660 731 660 664 c 5
45 520 m 5
 435 520 l 5
 435 435 l 5
 45 435 l 5
 45 520 l 5
791 800 m 5
 642 134 l 6
 640.599609375 128.094726562 639 119 639 114 c 4
 639 103 643 100 653 100 c 4
 679 100 705 130 741 191 c 5
 814 168 l 5
 758 38 662 -20 571 -20 c 4
 504 -20 465 5 465 65 c 4
 465 84 469.448242188 104.684570312 473 120 c 6
 598.076171875 680 l 5
 791 800 l 5
EndSplineSet
Fore
SplineSet
823.755007704 760 m 2
 683 151 l 2
 681.599609375 145.094726562 680 136 680 131 c 0
 680 120 684 117 694 117 c 0
 713.527931012 117 735.939340961 137.905222303 760.622182265 184 c 0
 770.954765868 203.295920529 769.396103423 213.175467613 792 202.494505495 c 6
 841 179.340659341 l 2
 865.370086261 167.825124074 865.30314631 166.496983246 852.953053001 142.000008574 c 0
 800.289182405 37.5388136822 713.99503237 -25 602 -25 c 0
 520 -25 470 14 470 74 c 0
 470 93 474.728515625 120.623046875 479 140 c 2
 567.564977575 535 l 2
 572.09266509 555.193496541 575.094612783 556.142455804 552.000001605 558.724547777 c 0
 508.059054452 563.637363414 472 580.686999452 472 630 c 0
 472 676 500 688 500 700 c 0
 500 706 491 710 479 710 c 0
 439 710 380 677 350 550 c 1
 343.921556755 519.607783774 343.574911325 520 380 520 c 2
 450 520 l 2
 474.374376648 520 475 520.519324548 475 496 c 2
 475 439 l 2
 475 413.316199186 473.021111866 415 448 415 c 2
 353 415 l 2
 325.80107141 415 323.226888651 416.134443257 318.6 393 c 2
 220.8 -96 l 2
 211.738665637 -141.306671817 216.243314613 -150 160 -150 c 2
 42 -150 l 2
 -1.01302489816 -150 -0.00619313158746 -150.030837524 7.22991689751 -114 c 2
 109.252077562 394 l 2
 114.446215958 419.863227044 106.467369406 415 78 415 c 2
 58 415 l 2
 25.1113811172 415 25 415.000281843 25 448 c 2
 25 490 l 2
 25 516.704764171 22.2957121719 520 50 520 c 2
 112 520 l 2
 139.860343447 520 136.155851227 527.962238525 140.581717452 550 c 2
 145 572 l 2
 182 754 332 800 482 800 c 0
 550.893283024 800 611.765923373 783.682140767 653.999996958 755.555403764 c 0
 691.94273951 730.286575769 687.361562806 724.968550432 732 747.965821713 c 2
 799 782.483543943 l 2
 825.296165263 796.031062275 830.86617469 790.767649159 823.755007704 760 c 2
EndSplineSet
LCarets2: 1 0
Ligature2: "Not your mama's contextual ligatures" f l
EndChar

StartChar: uniFB03
Encoding: 64259 64259 545
Width: 1276
VWidth: 1155
Flags: HMW
LayerCount: 2
Back
SplineSet
486 680 m 5
 670 654 l 5
 670 576 611 537 557 537 c 4
 509 537 462 558 462 615 c 4
 462 651 486 668 486 680 c 5
135 542 m 5
 305 520 l 5
 170 -150 l 5
 0 -150 l 5
 135 542 l 5
670 654 m 5
 486 680 l 5
 486 686 461 690 444 690 c 4
 384 690 335 647 305 520 c 5
 135 542 l 5
 165 673 282 770 442 770 c 4
 583 770 670 721 670 654 c 5
45 520 m 5
 955 520 l 5
 955 435 l 5
 45 435 l 5
 45 520 l 5
941 705 m 5
 1120 674 l 5
 1120 596 1061 567 1007 567 c 4
 959 567 912 588 912 645 c 4
 912 681 941 693 941 705 c 5
565 572 m 5
 735 550 l 5
 605 -100 l 5
 435 -100 l 5
 565 572 l 5
1120 674 m 5
 941 705 l 5
 941 716 901 720 884 720 c 4
 824 720 765 677 735 550 c 5
 565 572 l 5
 595 703 702 800 882 800 c 4
 1023 800 1120 751 1120 674 c 5
1123 520 m 5
 1034 134 l 6
 1032.59960938 128.094726562 1031 119 1031 114 c 4
 1031 103 1035 100 1045 100 c 4
 1071 100 1097 130 1133 191 c 5
 1206 168 l 5
 1150 38 1054 -20 963 -20 c 4
 896 -20 857 5 857 65 c 4
 857 84 861.448242188 104.684570312 865 120 c 6
 955.076171875 520 l 5
 1123 520 l 5
EndSplineSet
Fore
SplineSet
1159.84823848 488 m 2
 1074 151 l 2
 1072.59960938 145.094726562 1071 136 1071 131 c 0
 1071 120 1075 117 1085 117 c 0
 1103.51054007 117 1124.61193152 135.783672439 1147.78289109 177 c 0
 1163.28122285 204.568315261 1160.88776083 212.943145983 1193 197.769230769 c 2
 1230 180.285714286 l 2
 1262.52229801 164.918035005 1251.87094489 155.272839348 1235.43940204 126.000008183 c 0
 1182.21763217 31.1853034813 1099.15374146 -25 993 -25 c 0
 911 -25 860 17 860 77 c 0
 860 96 866.448242188 124.684570312 870 140 c 2
 920.597933799 366 l 2
 928.803753533 402.651995853 942.539731653 415 893 415 c 2
 776 415 l 2
 742.752976791 415 742.720514078 413.602570389 737.2 386 c 2
 637 -115 l 2
 630.519118837 -147.404405813 631.294084951 -150 592 -150 c 2
 478 -150 l 2
 409.131158196 -150 422.109403911 -139.496623287 433.05401662 -85 c 2
 523.227146814 364 l 2
 532.015236435 407.758625557 541.430264748 415 486 415 c 2
 374 415 l 2
 314.910611083 415 318.303771947 408.180978495 308.955223881 360 c 2
 220.28358209 -97 l 2
 210.351012787 -148.190934097 209.643983023 -150 148 -150 c 2
 52 -150 l 2
 -11.4144193748 -150 2.311405431 -138.151906976 11.9002890173 -89 c 2
 104.566473988 386 l 2
 109.683631134 412.230168477 113.729610662 415 81 415 c 2
 52 415 l 2
 27.0535253076 415 25 413.219236365 25 439 c 2
 25 492 l 2
 25 517.936052402 23.2035537303 520 50 520 c 6
 101 520 l 2
 128.028872789 520 130.495230925 518.908887409 135 542 c 0
 177 723 332 770 482 770 c 0
 543.11628515 770 597.920536676 763.687966377 638.99999664 748.119104881 c 0
 671.135702352 735.939870982 670.060425906 738.71326879 698.999996008 754.42027384 c 0
 761.559132628 788.374360627 837.397951387 800 912 800 c 0
 1043 800 1155 771 1155 664 c 0
 1155 591 1091 557 1027 557 c 0
 969 557 912 578 912 640 c 0
 912 686 940 688 940 700 c 0
 940 706 931 710 919 710 c 0
 879 710 800 677 770 550 c 0
 764.611527598 523.057637988 760.192363704 520 794 520 c 2
 1123 520 l 2
 1164.99833159 520 1168.83722511 523.286553899 1159.84823848 488 c 2
557.167590028 533 m 0
 561.248104018 553.318145524 551.20479237 547.804428302 533.000001485 551.790369137 c 0
 498.125707665 559.426099351 472 578.025233088 472 620 c 0
 472 666 500 668 500 680 c 0
 500 686 491 690 479 690 c 0
 445.841705527 690 392.755472129 660.451676767 358.476472017 578 c 0
 346.122322717 548.284421325 323.421329776 520 376 520 c 2
 526 520 l 2
 544.995830201 520 553.779306475 516.128684653 557.167590028 533 c 0
EndSplineSet
LCarets2: 2 0 0
Ligature2: "Not your mama's contextual ligatures" f f i
EndChar

StartChar: uniFB04
Encoding: 64260 64260 546
Width: 1305
VWidth: 1155
Flags: HMW
LayerCount: 2
Back
SplineSet
486 680 m 5
 670 654 l 5
 670 576 611 537 557 537 c 4
 509 537 462 558 462 615 c 4
 462 651 486 668 486 680 c 5
135 542 m 5
 305 520 l 5
 170 -150 l 5
 0 -150 l 5
 135 542 l 5
670 654 m 5
 486 680 l 5
 486 686 461 690 444 690 c 4
 384 690 335 647 305 520 c 5
 135 542 l 5
 165 673 282 770 442 770 c 4
 583 770 670 721 670 654 c 5
45 520 m 5
 855 520 l 5
 855 435 l 5
 45 435 l 5
 45 520 l 5
896 710 m 5
 1080 664 l 5
 1080 586 1021 547 967 547 c 4
 919 547 872 578 872 635 c 4
 872 671 896 698 896 710 c 5
565 572 m 5
 735 550 l 5
 605 -100 l 5
 435 -100 l 5
 565 572 l 5
1080 664 m 5
 896 710 l 5
 896 716 881 720 864 720 c 4
 804 720 765 677 735 550 c 5
 565 572 l 5
 595 703 702 800 862 800 c 4
 1003 800 1080 731 1080 664 c 5
1211 800 m 5
 1062 134 l 6
 1060.59960938 128.094726562 1059 119 1059 114 c 4
 1059 103 1063 100 1073 100 c 4
 1099 100 1125 130 1161 191 c 5
 1234 168 l 5
 1178 38 1082 -20 991 -20 c 4
 924 -20 885 5 885 65 c 4
 885 84 889.448242188 104.684570312 893 120 c 6
 1018.07617188 680 l 5
 1211 800 l 5
EndSplineSet
Fore
SplineSet
1238.20801233 736 m 2
 1103 151 l 2
 1101.59960938 145.094726562 1100 136 1100 131 c 0
 1100 120 1104 117 1114 117 c 0
 1133.24323311 117 1155.2864815 137.300110771 1179.54407836 182 c 0
 1190.57779071 202.332010741 1188.9359909 213.39288342 1213 202.021978022 c 2
 1245 186.901098901 l 2
 1265.5858659 177.173711716 1289.02031383 175.708404357 1277.83144684 152.000008806 c 0
 1225.70248427 41.5425276869 1137.52436426 -25 1022 -25 c 0
 940 -25 890 14 890 74 c 0
 890 93 894.728515625 120.623046875 899 140 c 2
 985.098611115 524 l 2
 992.056281091 555.031223807 995.631067171 554.631043567 962.000001549 560.084912125 c 4
 922.718346434 566.455123111 892 584.485143414 892 630 c 0
 892 676 920 688 920 700 c 0
 920 706 911 710 899 710 c 0
 859 710 795.615384615 678.076923077 770 550 c 0
 764.01828246 520.091412301 763.032683586 520 799 520 c 2
 859 520 l 2
 888.075317847 520 895 525.040999476 895 494 c 2
 895 444 l 2
 895 411.885317624 891.150263825 415 860 415 c 2
 771 415 l 2
 740.182645385 415 742.19721691 410.986084552 737.2 386 c 2
 640.2 -99 l 2
 632.066503277 -139.667483615 637.480513355 -150 586 -150 c 2
 474 -150 l 2
 412.805978734 -150 421.203535138 -144.007225038 431.045706371 -95 c 2
 522.423822715 360 l 2
 530.824440449 401.829282788 545.165360673 415 490 415 c 2
 362 415 l 2
 314.904073855 415 318.337940234 408.357076593 310.895522388 370 c 2
 219.119402985 -103 l 2
 210.392682375 -147.976175454 210.181665741 -150 156 -150 c 2
 56 -150 l 2
 -4.97387994795 -150 0.676803040906 -146.530757746 10.3395953757 -97 c 2
 104.566473988 386 l 2
 109.574155184 411.669002871 114.160077375 415 82 415 c 2
 50 415 l 2
 20.1171963179 415 25 421.848321287 25 450 c 2
 25 488 l 2
 25 512.317877083 19.8928232305 520 46 520 c 2
 106 520 l 2
 131.017432802 520 130.931325267 521.144274701 135 542 c 0
 177 723 322 770 472 770 c 0
 543.586988132 770 606.51386268 752.381148224 648.8678951 722.202274602 c 1
 714.900216621 781.328701625 807.456954142 800 902 800 c 0
 966.142304225 800 1023.33205204 785.855143856 1064.99999676 761.204426735 c 0
 1109.17258964 735.071962111 1102.62332798 722.527459777 1153 748.481011596 c 2
 1219 782.483543943 l 2
 1245.78249168 796.281612728 1248.93471353 782.410860532 1238.20801233 736 c 2
535.000001567 539.623191351 m 0
 494.293646329 545.559687393 462 563.332686128 462 610 c 0
 462 656 490 658 490 670 c 0
 490 676 481 680 469 680 c 0
 433.57761909 680 383.255140481 654.120882944 351.367107517 560 c 0
 340.204221562 527.051568108 333.958007662 520 380 520 c 2
 532 520 l 2
 564.212072504 520 563.450443404 535.47406195 535.000001567 539.623191351 c 0
EndSplineSet
LCarets2: 2 0 0
Ligature2: "Not your mama's contextual ligatures" f f l
EndChar

StartChar: uniFFFD
Encoding: 65533 65533 547
Width: 905
Flags: HMW
LayerCount: 2
Back
SplineSet
717 0 m 29
 622 0 l 6
 538 0 484 28 484 88 c 4
 484 139 509 203 509 255 c 4
 509 306 492 335 427 335 c 5
 467 381 l 5
 602 381 655 323 655 257 c 4
 655 197 628 149 628 109 c 4
 628 88 635 75 658 75 c 6
 717 75 l 5
 717 0 l 29
175 75 m 1
 310 75 l 1
 310 0 l 1
 175 0 l 1
 175 75 l 1
110 750 m 1
 225 750 l 1
 225 675 l 1
 110 675 l 1
 110 750 l 1
-40 75 m 1
 95 75 l 1
 95 0 l 1
 -40 0 l 1
 -40 75 l 1
449 415 m 1
 525 415 619 471 619 580 c 0
 619 639 595 675 519 675 c 1
 519 750 l 1
 690 750 759 690 759 580 c 0
 759 440 640 364 449 364 c 1
 449 415 l 1
317 750 m 1
 519 750 l 1
 519 675 l 1
 317 675 l 1
 317 750 l 1
237 415 m 1
 469 415 l 1
 469 335 l 1
 237 335 l 1
 237 415 l 1
222 750 m 1
 362 750 l 1
 202 0 l 1
 62 0 l 1
 222 750 l 1
EndSplineSet
Fore
SplineSet
778 0 m 2
 662 0 l 2
 548 0 504 28 504 88 c 0
 504 139 529 188 529 240 c 0
 529 291 492 305 427 305 c 2
 384 305 l 2
 349.037128357 305 354.281924751 291.946522271 348.533333333 265 c 2
 326.773333333 163 l 2
 321.539714418 138.467411334 316.707687616 135 348 135 c 2
 378 135 l 2
 408.720967395 135 420 142.106766333 420 109 c 2
 420 51 l 2
 420 11.847378886 427.992696395 0 386 0 c 2
 20 0 l 2
 -21.4452157634 0 -30 -6.32872224794 -30 37 c 2
 -30 111 l 2
 -30 135.943876698 -28.9023536154 135 -4 135 c 2
 48 135 l 2
 88.771756227 135 83.3771246202 147.080271657 90.1866666667 179 c 2
 174.24 573 l 2
 181.004564724 604.708897145 192.367020788 615 150 615 c 2
 108 615 l 2
 72.8483560262 615 80 626.129261196 80 659 c 2
 80 727 l 2
 80 760.134860495 102.354539382 750 132 750 c 2
 559 750 l 2
 740 750 859 710 859 580 c 0
 859 461.823546859 747.89530401 395.785610272 607.350833296 373.083983206 c 1
 698.3912083 361.345491246 775.000000008 334.228808708 775 277 c 0
 775 227 748 199 748 169 c 0
 748 148 755 135 778 135 c 2
 794 135 l 2
 819.576051197 135 817 131.794341201 817 107 c 2
 817 45 l 2
 817 4.0207471921 820.412969816 0 778 0 c 2
420 445 m 2
 489 445 l 2
 565 445 619 496 619 556 c 0
 619 591 585 615 539 615 c 2
 452 615 l 2
 418.03611725 615 421.636802174 607.672510192 415.946666667 581 c 2
 395.04 483 l 6
 388.508072146 452.381588184 379.546809762 445 420 445 c 2
EndSplineSet
EndChar

StartChar: uniFFF0
Encoding: 65520 65520 548
Width: 475
VWidth: 1155
Flags: HMW
LayerCount: 2
Back
SplineSet
10 58 m 5
 184 114 l 5
 184 103 189 95 202 95 c 4
 228 95 253 130 285 191 c 5
 363 173 l 5
 317 53 236 -20 115 -20 c 4
 48 -20 10 8 10 58 c 5
15.001953125 520 m 5
 400.001953125 520 l 5
 400.001953125 415 l 5
 15.001953125 415 l 5
 15.001953125 520 l 5
184 114 m 5
 10 58 l 5
 10 66 10.880859375 77.0283203125 13 86 c 6
 132 520 l 5
 228 520 235 618 235 618 c 5
 313 618 l 5
 188 139 l 6
 185.051757812 126.994140625 184 123 184 114 c 5
EndSplineSet
Fore
SplineSet
86 415 m 2
 41 415 l 2
 12.0965026826 415 10 413.157793989 10 443 c 2
 10 495 l 6
 10 522.159473364 12.5908585824 520 39 520 c 2
 140.998046875 520 l 2
 202.890495582 520 240.259307439 560.734176463 259.000000559 589.678822569 c 0
 278.065883561 619.1257183 264.324817166 618 296 618 c 2
 334 618 l 2
 368.756177246 618 360.248547649 611.296036578 353.647169682 586 c 2
 346.60111705 559 l 2
 337.791153258 525.240811014 330.030823578 520 375 520 c 2
 415 520 l 2
 438.957618374 520 455 527.814570994 455 501 c 2
 455 453 l 2
 455 414.603054919 454.464131502 415 416 415 c 2
 363 415 l 2
 324.312184715 415 310.564045853 420.908365832 302.237081963 389 c 2
 242.998046875 162 l 2
 240.049804688 149.994140625 238.998046875 146 238.998046875 137 c 0
 238.998046875 126 243.998046875 118 256.998046875 118 c 0
 279.668797845 118 301.579248595 142.32960708 328.03296127 188.999985434 c 0
 340.516288378 211.02341959 340.672513283 210.650577644 364 198.5652532 c 2
 396 181.986939947 l 2
 423.959138646 167.502084986 423.5231639 163.46289107 410.181524463 133.000012254 c 0
 367.202065601 34.8652925206 278.685587951 -20 169.998046875 -20 c 0
 82.998046875 -20 29.998046875 13 29.998046875 83 c 0
 29.998046875 91 31.6845703125 107.541015625 35.998046875 126 c 2
 103.954899667 381 l 2
 110.603975583 405.949865817 121.207668006 415 86 415 c 2
EndSplineSet
EndChar

